<svg width="166" height="54" viewBox="0 0 166 54" fill="none" xmlns="http://www.w3.org/2000/svg">
<g clip-path="url(#clip0_76_1163)">
<path d="M163.69 24.3407L0 36.0528L2.22243 28.5029C3.6417 23.6752 7.95453 20.2494 13.0155 19.9166L154.36 10.6866C159.025 10.3811 163.051 13.8996 163.337 18.531L163.695 24.3407H163.69Z" fill="black"/>
<path d="M2.22243 30.2704C3.6417 25.4426 7.95453 22.0168 13.0155 21.684L154.36 12.454C159.025 12.1485 163.051 15.6671 163.337 20.2985L163.585 24.3516H163.695L163.337 18.531C163.051 13.8996 159.025 10.3865 154.36 10.6866L13.0155 19.9166C7.95453 20.2494 3.6472 23.6752 2.22243 28.5029L0 36.0528L0.533603 36.0146L2.22793 30.2704H2.22243Z" fill="#353535"/>
<path d="M0 36.0527V39.1349C0 40.5041 0.649125 41.7915 1.74934 42.6098L1.98588 42.7843C4.36234 44.5518 7.2614 45.4955 10.232 45.4682L139.782 44.339C144.293 44.3009 148.776 43.6681 153.117 42.4516L161.572 40.0895C164.19 39.3585 166.005 36.9856 166.005 34.2853V27.8428C166.005 26.5227 165.307 25.3008 164.168 24.6189L163.695 24.3352L0 36.0527Z" fill="black"/>
<path d="M164.163 24.6244L163.69 24.3407L0 36.0528V37.7057L163.69 25.9936L164.163 26.2773C165.301 26.9591 166 28.1811 166 29.5012V27.8483C166 26.5282 165.301 25.3063 164.163 24.6244Z" fill="#353535"/>
<path d="M34.6347 18.5036L47.4246 10.992C58.3718 4.57132 70.7657 0.965505 83.4731 0.512732L95.6799 0.0763248C113.465 -0.561921 131.145 2.98389 147.285 10.4192L148.683 11.0629L34.6292 18.5091L34.6347 18.5036Z" fill="black"/>
<path d="M47.9912 11.5593C58.9329 5.13319 71.3267 1.52738 84.0397 1.06915L96.2465 0.63274C114.031 -5.07517e-05 131.712 3.54031 147.852 10.9756L148.116 11.0956L148.688 11.0574L147.291 10.4137C131.145 2.97843 113.465 -0.561926 95.6799 0.0708655L83.4731 0.507273C70.7601 0.965501 58.3662 4.56586 47.4246 10.992L34.6347 18.5036L36.3455 18.3945L47.9912 11.5593Z" fill="black"/>
<path d="M28.314 26.97C20.1889 26.97 13.5986 33.5052 13.5986 41.5624C13.5986 42.8989 13.7857 44.1972 14.1267 45.43L42.5782 45.1845C42.8753 44.0281 43.0348 42.817 43.0348 41.5678C43.0348 33.5106 36.4445 26.9754 28.3195 26.9754L28.314 26.97Z" fill="black"/>
<path d="M29.0016 26.97C36.9341 26.97 43.3979 33.1942 43.7059 40.9896C43.7059 40.8368 43.7224 40.6841 43.7224 40.5314C43.7224 32.4742 37.1321 25.939 29.0071 25.939C20.882 25.939 14.2917 32.4742 14.2917 40.5314C14.2917 40.6786 14.3028 40.8259 14.3083 40.9732C14.6218 33.1888 21.0801 26.9754 29.0071 26.9754L29.0016 26.97Z" fill="#302D2D"/>
<path d="M130.859 26.3427C122.734 26.3427 116.144 32.8779 116.144 40.935C116.144 42.1788 116.303 43.3844 116.595 44.5409L139.089 44.3445C141.157 44.3281 143.22 44.1808 145.267 43.9135C145.47 42.9534 145.575 41.9551 145.575 40.935C145.575 32.8779 138.984 26.3427 130.859 26.3427Z" fill="black"/>
<path d="M131.547 26.3427C139.54 26.3427 146.037 32.6597 146.251 40.5314C146.251 40.4005 146.262 40.2696 146.262 40.1386C146.262 32.0815 139.672 25.5463 131.547 25.5463C123.422 25.5463 116.832 32.0815 116.832 40.1386C116.832 40.2587 116.843 40.3787 116.843 40.4932C117.079 32.6379 123.57 26.3427 131.547 26.3427Z" fill="#302D2D"/>
<path d="M44.157 17.8819L54.5045 11.6031C63.2952 6.26797 73.2961 3.21311 83.5886 2.70579L93.32 2.22574C104.724 1.66386 116.111 3.62224 126.656 7.95905C128.274 8.62457 128.868 10.5993 127.878 12.034L127.603 12.4377L44.1625 17.8873L44.157 17.8819Z" fill="#302D2D"/>
<path d="M87.0543 4.38049L83.6711 4.46232C73.7032 4.95328 63.9333 7.94267 55.4232 13.1032L51.1874 15.6725L85.2829 13.4469L87.0488 4.38049H87.0543Z" fill="black"/>
<path d="M74.8859 5.55334C73.4006 5.84792 71.9264 6.2025 70.4686 6.61163L62.0464 14.9634L65.6331 14.7288L74.8859 5.55334Z" fill="#474C55"/>
<path d="M76.6793 5.22597L67.201 14.6251L68.9943 14.5105L78.6542 4.9314C77.994 5.01868 77.3339 5.11687 76.6793 5.23143V5.22597Z" fill="#474C55"/>
<path d="M126.552 10.2065C126.502 10.0374 126.359 9.73194 125.98 9.57919C116.787 5.80427 107.084 3.88953 97.1377 3.88953C95.9 3.88953 93.375 3.92226 92.1373 3.98226L90.3879 13.0268L126.557 10.7466C126.618 10.5229 126.585 10.3265 126.552 10.2065Z" fill="black"/>
<path d="M87.1588 15.0778L89.5463 2.53113" stroke="black" stroke-miterlimit="10"/>
<path d="M82.9835 23.3642H76.1897C75.8211 23.3642 75.524 23.0696 75.524 22.7041C75.524 22.3386 75.8211 22.0441 76.1897 22.0441H82.9835C83.3521 22.0441 83.6491 22.3386 83.6491 22.7041C83.6491 23.0696 83.3521 23.3642 82.9835 23.3642Z" fill="white"/>
<path d="M121.826 21.2039H115.033C114.664 21.2039 114.367 20.9093 114.367 20.5439C114.367 20.1784 114.664 19.8838 115.033 19.8838H121.826C122.195 19.8838 122.492 20.1784 122.492 20.5439C122.492 20.9093 122.195 21.2039 121.826 21.2039Z" fill="white"/>
<path d="M153.606 19.3819C156.379 21.8313 159.932 23.2278 163.635 23.3478L163.337 18.5255C163.282 17.669 163.101 16.8507 162.815 16.087H149.876L153.612 19.3819H153.606Z" fill="white"/>
<path d="M3.92224 29.3102C6.66727 29.3102 9.32428 28.3665 11.4422 26.6372L15.4525 23.3641L4.88493 23.806C3.6747 25.1261 2.75052 26.719 2.22242 28.5083L1.98587 29.3156H3.92224V29.3102Z" fill="white"/>
<path d="M54.51 11.1884H55.9238C56.98 11.1884 57.8381 12.0393 57.8381 13.0867V14.5487C57.8381 15.5961 56.98 16.4471 55.9238 16.4471H54.51C53.2613 16.4471 52.2436 15.4379 52.2436 14.1996V13.4413C52.2436 12.203 53.2613 11.1938 54.51 11.1938V11.1884Z" fill="black"/>
<path d="M109.394 4.88228C108.849 4.795 108.299 4.70772 107.755 4.63135L99.8937 12.4267L101.918 12.3012L109.4 4.88228H109.394Z" fill="#474C55"/>
<path d="M94.0736 12.7976L98.1169 12.5412L106.286 4.44039C105.142 4.30401 103.992 4.18945 102.837 4.10217L94.0681 12.7976H94.0736Z" fill="#474C55"/>
<path d="M39.0064 49.2319C43.4228 43.7536 42.5246 35.7622 37.0001 31.3827C31.4757 27.0031 23.417 27.8938 19.0005 33.3721C14.5841 38.8505 15.4823 46.8418 21.0068 51.2214C26.5313 55.6009 34.59 54.7102 39.0064 49.2319Z" fill="#343741"/>
<path d="M38.1379 48.5377C42.1649 43.5336 41.3385 36.2398 36.2923 32.2465C31.246 28.2532 23.8908 29.0726 19.8638 34.0767C15.8369 39.0808 16.6632 46.3746 21.7095 50.3679C26.7557 54.3612 34.111 53.5418 38.1379 48.5377Z" fill="black"/>
<path d="M36.1361 46.9265C39.2653 43.0198 38.6084 37.3372 34.6687 34.2341C30.7291 31.131 24.9987 31.7825 21.8694 35.6892C18.7402 39.5959 19.3972 45.2785 23.3368 48.3816C27.2764 51.4847 33.0069 50.8332 36.1361 46.9265Z" fill="#B2B5B6"/>
<path d="M35.569 46.4683C38.4444 42.8734 37.8365 37.6476 34.2113 34.7963C30.5861 31.9449 25.3163 32.5477 22.4409 36.1426C19.5655 39.7376 20.1734 44.9633 23.7986 47.8147C27.4239 50.666 32.6937 50.0633 35.569 46.4683Z" fill="#D7D8D6"/>
<path d="M31.5816 41.306C31.5816 42.7188 30.4264 43.8699 28.9961 43.8699C27.5658 43.8699 26.4106 42.7243 26.4106 41.306C26.4106 39.8876 27.5658 38.7421 28.9961 38.7421C30.4264 38.7421 31.5816 39.8876 31.5816 41.306Z" fill="#B2B5B6"/>
<path d="M30.4429 37.602C30.8334 37.7493 31.191 37.9566 31.5101 38.213L34.0901 36.7346C33.1384 35.6927 31.8786 34.9454 30.4429 34.6399V37.602Z" fill="#343741"/>
<path d="M33.0064 41.306C33.0064 41.5133 32.9844 41.7151 32.9568 41.917L35.5423 43.4008C35.7569 42.7407 35.8779 42.037 35.8779 41.3115C35.8779 40.5859 35.7569 39.8768 35.5423 39.2222L32.9568 40.706C32.9899 40.9078 33.0064 41.1096 33.0064 41.3169V41.306Z" fill="#343741"/>
<path d="M26.4876 38.213C26.8067 37.9566 27.1697 37.7493 27.5548 37.602V34.6399C26.119 34.9454 24.8538 35.6927 23.9076 36.7346L26.4876 38.213Z" fill="#343741"/>
<path d="M31.5156 44.399C31.1965 44.6554 30.8334 44.8627 30.4484 45.01V47.9721C31.8841 47.6667 33.1494 46.9193 34.0956 45.8774L31.5156 44.399Z" fill="#343741"/>
<path d="M27.5548 45.01C27.1642 44.8627 26.8067 44.6554 26.4876 44.399L23.9076 45.8774C24.8593 46.9193 26.119 47.6667 27.5548 47.9721V45.01Z" fill="#343741"/>
<path d="M24.9913 41.3061C24.9913 41.0988 25.0133 40.8969 25.0408 40.6951L22.4553 39.2113C22.2408 39.8714 22.1198 40.5751 22.1198 41.3006C22.1198 42.0261 22.2408 42.7353 22.4553 43.3899L25.0408 41.9061C25.0078 41.7043 24.9913 41.5024 24.9913 41.2952V41.3061Z" fill="#343741"/>
<path d="M29.0016 42.888C29.8827 42.888 30.5969 42.1797 30.5969 41.306C30.5969 40.4323 29.8827 39.724 29.0016 39.724C28.1205 39.724 27.4063 40.4323 27.4063 41.306C27.4063 42.1797 28.1205 42.888 29.0016 42.888Z" fill="black"/>
<path d="M136.658 53.0569C143.208 50.4103 146.354 42.9993 143.685 36.5041C141.016 30.009 133.543 26.8891 126.993 29.5358C120.443 32.1825 117.297 39.5934 119.966 46.0886C122.635 52.5838 130.108 55.7036 136.658 53.0569Z" fill="#343741"/>
<path d="M136.242 52.0284C142.219 49.6095 145.088 42.8433 142.648 36.9157C140.209 30.9882 133.386 28.1439 127.408 30.5629C121.431 32.9819 118.563 39.7481 121.002 45.6756C123.441 51.6032 130.264 54.4474 136.242 52.0284Z" fill="black"/>
<path d="M140.826 42.7651C141.636 37.8411 138.268 33.1979 133.303 32.3943C128.337 31.5906 123.655 34.9307 122.844 39.8547C122.034 44.7787 125.402 49.4219 130.368 50.2256C135.333 51.0293 140.015 47.6891 140.826 42.7651Z" fill="#B2B5B6"/>
<path d="M135.002 48.9946C139.284 47.255 141.333 42.4028 139.578 38.1569C137.824 33.911 132.931 31.8793 128.649 33.6189C124.368 35.3586 122.319 40.2108 124.073 44.4566C125.827 48.7025 130.721 50.7342 135.002 48.9946Z" fill="#D7D8D6"/>
<path d="M134.413 41.306C134.413 42.7188 133.258 43.8699 131.827 43.8699C130.397 43.8699 129.242 42.7243 129.242 41.306C129.242 39.8876 130.397 38.7421 131.827 38.7421C133.258 38.7421 134.413 39.8876 134.413 41.306Z" fill="#B2B5B6"/>
<path d="M133.269 37.602C133.659 37.7493 134.017 37.9566 134.336 38.213L136.916 36.7346C135.964 35.6927 134.704 34.9454 133.269 34.6399V37.602Z" fill="#343741"/>
<path d="M135.832 41.306C135.832 41.5133 135.81 41.7151 135.783 41.917L138.368 43.4008C138.583 42.7407 138.704 42.037 138.704 41.3115C138.704 40.5859 138.583 39.8768 138.368 39.2222L135.783 40.706C135.816 40.9078 135.832 41.1096 135.832 41.3169V41.306Z" fill="#343741"/>
<path d="M129.313 38.213C129.632 37.9566 129.996 37.7493 130.381 37.602V34.6399C128.945 34.9454 127.68 35.6927 126.733 36.7346L129.313 38.213Z" fill="#343741"/>
<path d="M134.341 44.399C134.022 44.6554 133.659 44.8627 133.274 45.01V47.9721C134.71 47.6667 135.975 46.9193 136.921 45.8774L134.341 44.399Z" fill="#343741"/>
<path d="M130.381 45.01C129.99 44.8627 129.632 44.6554 129.313 44.399L126.733 45.8774C127.685 46.9193 128.945 47.6667 130.381 47.9721V45.01Z" fill="#343741"/>
<path d="M127.817 41.3061C127.817 41.0988 127.839 40.8969 127.867 40.6951L125.281 39.2113C125.067 39.8714 124.946 40.5751 124.946 41.3006C124.946 42.0261 125.067 42.7353 125.281 43.3899L127.867 41.9061C127.834 41.7043 127.817 41.5024 127.817 41.2952V41.3061Z" fill="#343741"/>
<path d="M131.827 42.888C132.708 42.888 133.423 42.1797 133.423 41.306C133.423 40.4323 132.708 39.724 131.827 39.724C130.946 39.724 130.232 40.4323 130.232 41.306C130.232 42.1797 130.946 42.888 131.827 42.888Z" fill="black"/>
</g>
<defs>
<clipPath id="clip0_76_1163">
<rect width="166" height="54" fill="white"/>
</clipPath>
</defs>
</svg>
