<svg width="173" height="53" viewBox="0 0 173 53" fill="none" xmlns="http://www.w3.org/2000/svg">
<g clip-path="url(#clip0_76_1133)">
<path d="M165.732 15.0391L153.82 15.2451C148.443 12.4477 134.619 5.54074 130.171 2.59148C124.761 -0.97583 93.0462 -0.216829 81.44 1.06263C70.6972 2.24451 58.1839 12.8597 52.0967 17.0667C8.98332 20.1136 4.19659 22.3906 1.75951 32.4419C-2.21851 48.8147 16.8519 41.5499 36.5016 41.5499H99.0133C118.674 41.5499 169.798 32.5937 169.798 26.6193C169.798 26.6193 169.918 15.2668 165.732 15.0499V15.0391Z" fill="#EA5E94"/>
<path d="M125.952 17.598C134.411 17.598 139.854 15.8632 139.854 13.7163C139.854 9.92126 132.422 7.01537 128.805 4.6191C127.275 3.61071 120.291 2.42883 105.647 2.42883C95.7019 2.42883 88.0409 2.79749 83.287 3.31795C75.4402 4.18538 65.0362 14.2801 62.4024 17.5872H125.941L125.952 17.598Z" fill="#2A2A2B"/>
<path d="M96.9368 3.35046C91.5053 3.49142 86.8497 3.75165 83.3963 4.13115C76.9375 4.84678 68.1071 12.491 64.1947 16.7848H95.691C96.0407 12.3067 96.4669 7.82857 96.9368 3.35046Z" fill="#80C2DC"/>
<path d="M117.963 3.59978C114.761 3.38292 110.707 3.25281 105.647 3.25281C103.254 3.25281 100.948 3.27449 98.7619 3.31786C98.292 7.80682 97.8658 12.2958 97.5051 16.7956H123.22C121.712 12.3066 120.018 7.88272 117.953 3.61062L117.963 3.59978Z" fill="#80C2DC"/>
<path d="M171.12 43.6643C171.12 45.4642 146.072 49.2592 144.301 49.2592H5.09273C3.3223 49.2592 1.89065 47.8062 1.89065 46.0063V38.1561C1.89065 36.3562 3.3223 34.9032 5.09273 34.9032L167.918 29.3408C169.689 29.3408 171.12 30.7938 171.12 32.5937V43.6534V43.6643Z" fill="#091119"/>
<path d="M131.559 7.17794C130.378 6.52736 129.264 5.90932 128.357 5.30212C127.668 4.84672 125.22 4.19614 120.051 3.75159C122.029 7.98031 123.679 12.35 125.144 16.7847H125.963C135.209 16.7847 139.045 14.7896 139.045 13.7162C139.045 11.3199 134.892 9.02123 131.559 7.16709V7.17794Z" fill="#80C2DC"/>
<path d="M173 40.8234C173 42.6234 147.394 46.4184 145.58 46.4184H3.27858C1.46443 46.4184 0 44.9654 0 43.1655V35.3153C0 33.5153 1.46443 32.0624 3.27858 32.0624L169.732 26.5C171.546 26.5 173.011 27.9529 173.011 29.7529V40.8126L173 40.8234Z" fill="#C90D59"/>
<path d="M3.7048 30.3601H14.852C16.1525 30.3601 17.7918 23.8002 15.7154 23.8002C13.6389 23.8002 3.7048 25.3399 3.7048 30.3601Z" fill="white"/>
<path d="M145.58 46.4076C146.214 46.4076 149.711 45.9522 154.017 45.2799C154.421 43.9571 154.651 42.5584 154.651 41.1054C154.651 33.0817 148.094 26.5868 140.017 26.5868C131.941 26.5868 125.384 33.0925 125.384 41.1054C125.384 42.9812 125.756 44.7703 126.411 46.4184H145.58V46.4076Z" fill="#091119"/>
<path d="M46.1188 46.4076C46.7745 44.7594 47.1461 42.9704 47.1461 41.0945C47.1461 33.0708 40.5889 26.5759 32.5126 26.5759C24.4364 26.5759 17.8792 33.0817 17.8792 41.0945C17.8792 42.9704 18.2508 44.7594 18.9065 46.4076H46.1188Z" fill="#091119"/>
<path d="M32.5126 53C39.1338 53 44.5013 47.6746 44.5013 41.1053C44.5013 34.5361 39.1338 29.2107 32.5126 29.2107C25.8915 29.2107 20.5239 34.5361 20.5239 41.1053C20.5239 47.6746 25.8915 53 32.5126 53Z" fill="#2A2A2B"/>
<path d="M26.7423 35.3695C29.9335 32.2033 35.1027 32.2033 38.2939 35.3695C41.485 38.5356 41.485 43.6643 38.2939 46.8304C35.1027 49.9965 29.9335 49.9965 26.7423 46.8304C23.5512 43.6643 23.5512 38.5356 26.7423 35.3695Z" fill="#97989C"/>
<path d="M27.6822 36.3019C30.8733 33.1358 29.9881 38.3079 32.6656 40.9644C35.3431 43.6209 40.5561 42.7426 37.3649 45.9087C34.1738 49.0749 35.059 43.9028 32.3815 41.2463C29.704 38.5898 24.491 39.4681 27.6822 36.3019Z" fill="#2A2A2B"/>
<path d="M37.354 36.3019C40.5452 39.4681 35.3322 38.5898 32.6547 41.2463C29.9772 43.9028 30.8624 49.0749 27.6713 45.9087C24.4801 42.7426 29.6931 43.6209 32.3706 40.9644C35.0481 38.3079 34.1629 33.1358 37.354 36.3019Z" fill="#2A2A2B"/>
<path d="M32.5126 43.3065C33.7379 43.3065 34.7311 42.321 34.7311 41.1054C34.7311 39.8898 33.7379 38.9043 32.5126 38.9043C31.2874 38.9043 30.2941 39.8898 30.2941 41.1054C30.2941 42.321 31.2874 43.3065 32.5126 43.3065Z" fill="#97989C"/>
<path d="M140.017 53C146.639 53 152.006 47.6746 152.006 41.1053C152.006 34.5361 146.639 29.2107 140.017 29.2107C133.396 29.2107 128.029 34.5361 128.029 41.1053C128.029 47.6746 133.396 53 140.017 53Z" fill="#2A2A2B"/>
<path d="M140.017 49.2158C144.532 49.2158 148.192 45.5846 148.192 41.1053C148.192 36.6261 144.532 32.9949 140.017 32.9949C135.503 32.9949 131.843 36.6261 131.843 41.1053C131.843 45.5846 135.503 49.2158 140.017 49.2158Z" fill="#97989C"/>
<path d="M135.187 36.3019C138.378 33.1358 137.493 38.3079 140.17 40.9644C142.848 43.6209 148.061 42.7426 144.87 45.9087C141.679 49.0749 142.564 43.9028 139.886 41.2463C137.209 38.5898 131.996 39.4681 135.187 36.3019Z" fill="#2A2A2B"/>
<path d="M144.859 36.3019C148.05 39.4681 142.837 38.5898 140.16 41.2463C137.482 43.9028 138.367 49.0749 135.176 45.9087C131.985 42.7426 137.198 43.6209 139.875 40.9644C142.553 38.3079 141.668 33.1358 144.859 36.3019Z" fill="#2A2A2B"/>
<path d="M140.017 43.3065C141.243 43.3065 142.236 42.321 142.236 41.1054C142.236 39.8898 141.243 38.9043 140.017 38.9043C138.792 38.9043 137.799 39.8898 137.799 41.1054C137.799 42.321 138.792 43.3065 140.017 43.3065Z" fill="#97989C"/>
<path d="M63.528 13.9873H61.3751C59.5937 13.9873 57.7905 15.4186 57.3315 17.186C56.8725 18.9533 57.9545 20.3846 59.7249 20.3846H61.8778L63.528 13.9981V13.9873Z" fill="white"/>
<path d="M96.8057 20.0918C96.8057 20.7641 96.2592 21.3062 95.5817 21.3062H86.9809C86.3033 21.3062 85.7569 20.7641 85.7569 20.0918C85.7569 19.4196 86.3033 18.8774 86.9809 18.8774H95.5817C96.2592 18.8774 96.8057 19.4196 96.8057 20.0918Z" fill="white"/>
<path d="M125.056 20.0918C125.056 20.7641 124.51 21.3062 123.832 21.3062H115.231C114.554 21.3062 114.007 20.7641 114.007 20.0918C114.007 19.4196 114.554 18.8774 115.231 18.8774H123.832C124.51 18.8774 125.056 19.4196 125.056 20.0918Z" fill="white"/>
<path d="M168.716 18.3353L164.989 18.4654C164.006 18.4654 163.448 19.257 163.733 20.2328L165.11 24.8302C165.405 25.8061 166.432 26.5976 167.415 26.5976H170.454C170.388 24.6784 170.355 20.016 168.705 18.3353H168.716Z" fill="white"/>
</g>
<defs>
<clipPath id="clip0_76_1133">
<rect width="173" height="53" fill="white"/>
</clipPath>
</defs>
</svg>
