<svg width="164" height="67" viewBox="0 0 164 67" fill="none" xmlns="http://www.w3.org/2000/svg">
<g clip-path="url(#clip0_76_1089)">
<path d="M90.8 4.01C91.32 5.63 92.47 8.34 91.46 8.34L83.39 8.7C82.39 8.7 82 5.63 82.46 4.01L82.93 2.36C83.31 1.01 84.26 0 85.08 0H88.04C88.86 0 89.84 1.02 90.27 2.36L90.8 4.01Z" fill="#F4CC25"/>
<path d="M43.93 21.97C32.84 29.31 24.45 36.58 25.75 38.51C27.06 40.44 37.11 36.04 48.2 28.7C59.29 21.36 67.22 13.85 65.91 11.92C64.6 9.99003 55.02 14.62 43.92 21.97H43.93Z" fill="#80C2DC"/>
<path d="M97.99 15.29C98.51 16.91 98.15 18.35 97.15 18.35H78.04C77.04 18.35 76.63 16.92 77.09 15.29L77.56 13.64C77.94 12.29 78.89 11.28 79.71 11.28H95.23C96.05 11.28 97.03 12.3 97.46 13.64L97.99 15.29Z" fill="#F4CC25"/>
<path d="M92.28 13.7801H90.84V12.3401H92.28V13.7801ZM89.46 13.7801V12.3401H88.02V13.7801H89.4V15.1401H88.02V13.7801H86.64V12.3401H85.2V13.7801H86.58V15.1401H85.2V13.7801H83.82V12.3401H82.38V13.7801H83.76V15.1401H82.38V16.5801H83.82V15.2201H85.2V16.5801H86.64V15.2201H88.02V16.5801H89.46V15.2201H90.84V16.5801H92.28V15.1401H90.84V13.7801H89.46Z" fill="#091119"/>
<path d="M79.49 19.4501C74.64 19.6001 70.41 19.9101 67.19 20.3401C61.17 21.1501 49.82 29.8101 44.37 34.6701H72.12C74.52 29.5901 76.99 24.5201 79.48 19.4601L79.49 19.4501Z" fill="#80C2DC"/>
<path d="M105.72 18.79C110.61 18.94 116.39 19.03 119.67 19.75C121.55 20.16 135.63 27.5 144.82 32.89L117.06 34C113.33 28.92 109.53 23.85 105.71 18.79H105.72Z" fill="#80C2DC"/>
<path d="M156.6 5.46005C151.65 1.53005 84.58 6.57005 73.96 7.98005C64.13 9.28005 42.65 23.98 37.07 28.6C-2.37 31.94 2.63 41.7201 2.63 52.5401C2.63 56.2401 15.42 55.4701 33.4 55.4701H90.6C133.16 55.4701 162.46 51.0301 162.46 44.4701C162.46 44.4701 160.66 8.69005 156.59 5.46005H156.6Z" fill="#FFB600"/>
<path d="M161.88 57.46C161.88 59.12 142.87 62.86 141.25 62.86H4.66C3.04 62.86 1.73 61.52 1.73 59.86V52.62C1.73 50.96 3.04 49.62 13.88 49.62L157.66 44.25C161.62 44.25 161.89 45.59 161.89 47.25V57.45L161.88 57.46Z" fill="#091119"/>
<path d="M163.6 54.84C163.6 56.5 144.08 60.24 142.43 60.24H3C1.34 60.24 0 58.9 0 57.24V50C0 48.34 1.34 47 12.21 47L158.09 41.63C161.61 41.63 163.6 42.97 163.6 44.63V54.83V54.84Z" fill="#FFA200"/>
<path d="M142.43 60.2401C143.01 60.2401 146.21 59.8201 150.15 59.2001C150.52 57.9801 150.73 56.6901 150.73 55.3501C150.73 47.9501 144.73 41.9601 137.34 41.9601C129.95 41.9601 123.95 47.9601 123.95 55.3501C123.95 57.0801 124.29 58.7301 124.89 60.2501H142.43V60.2401Z" fill="#091119"/>
<path d="M42.2 60.2401C42.8 58.7201 43.14 57.0701 43.14 55.3401C43.14 47.9401 37.14 41.9501 29.75 41.9501C22.36 41.9501 16.36 47.9501 16.36 55.3401C16.36 57.0701 16.7 58.7201 17.3 60.2401H42.2Z" fill="#091119"/>
<path d="M29.75 66.3101C35.8086 66.3101 40.72 61.3987 40.72 55.3401C40.72 49.2816 35.8086 44.3701 29.75 44.3701C23.6914 44.3701 18.78 49.2816 18.78 55.3401C18.78 61.3987 23.6914 66.3101 29.75 66.3101Z" fill="#2A2A2B"/>
<path d="M24.47 50.0501C27.39 47.1301 32.12 47.1301 35.04 50.0501C37.96 52.9701 37.96 57.7001 35.04 60.6201C32.12 63.5401 27.39 63.5401 24.47 60.6201C21.55 57.7001 21.55 52.9701 24.47 50.0501Z" fill="#97989C"/>
<path d="M25.33 50.9101C28.25 47.9901 27.44 52.7601 29.89 55.2101C32.34 57.6601 37.11 56.8501 34.19 59.7701C31.27 62.6901 32.08 57.9201 29.63 55.4701C27.18 53.0201 22.41 53.8301 25.33 50.9101Z" fill="#2A2A2B"/>
<path d="M34.18 50.9101C37.1 53.8301 32.33 53.0201 29.88 55.4701C27.43 57.9201 28.24 62.6901 25.32 59.7701C22.4 56.8501 27.17 57.6601 29.62 55.2101C32.07 52.7601 31.26 47.9901 34.18 50.9101Z" fill="#2A2A2B"/>
<path d="M29.75 57.3701C30.8711 57.3701 31.78 56.4612 31.78 55.3401C31.78 54.2189 30.8711 53.3101 29.75 53.3101C28.6289 53.3101 27.72 54.2189 27.72 55.3401C27.72 56.4612 28.6289 57.3701 29.75 57.3701Z" fill="#97989C"/>
<path d="M137.34 66.31C143.399 66.31 148.31 61.3986 148.31 55.34C148.31 49.2814 143.399 44.37 137.34 44.37C131.281 44.37 126.37 49.2814 126.37 55.34C126.37 61.3986 131.281 66.31 137.34 66.31Z" fill="#2A2A2B"/>
<path d="M132.05 50.05C134.97 47.13 139.7 47.13 142.62 50.05C145.54 52.97 145.54 57.7 142.62 60.62C139.7 63.54 134.97 63.54 132.05 60.62C129.13 57.7 129.13 52.97 132.05 50.05Z" fill="#97989C"/>
<path d="M132.91 50.9099C135.83 47.9899 135.02 52.7599 137.47 55.2099C139.92 57.6599 144.69 56.8499 141.77 59.7699C138.85 62.6899 139.66 57.9199 137.21 55.4699C134.76 53.0199 129.99 53.8299 132.91 50.9099Z" fill="#2A2A2B"/>
<path d="M141.77 50.9099C144.69 53.8299 139.92 53.0199 137.47 55.4699C135.02 57.9199 135.83 62.6899 132.91 59.7699C129.99 56.8499 134.76 57.6599 137.21 55.2099C139.66 52.7599 138.85 47.9899 141.77 50.9099Z" fill="#2A2A2B"/>
<path d="M135.9 53.9C136.69 53.11 137.98 53.11 138.77 53.9C139.56 54.69 139.56 55.98 138.77 56.77C137.98 57.56 136.69 57.56 135.9 56.77C135.11 55.98 135.11 54.69 135.9 53.9Z" fill="#97989C"/>
<path d="M88.58 35.9601C88.58 36.5801 88.08 37.0801 87.46 37.0801H79.59C78.97 37.0801 78.47 36.5801 78.47 35.9601C78.47 35.3401 78.97 34.8401 79.59 34.8401H87.46C88.08 34.8401 88.58 35.3401 88.58 35.9601Z" fill="#2A2A2B"/>
<path d="M114.43 35.9601C114.43 36.5801 113.93 37.0801 113.31 37.0801H105.44C104.82 37.0801 104.32 36.5801 104.32 35.9601C104.32 35.3401 104.82 34.8401 105.44 34.8401H113.31C113.93 34.8401 114.43 35.3401 114.43 35.9601Z" fill="#2A2A2B"/>
<path d="M102.14 51.6301V45.9501H108.14V39.8801H102.07V45.9001H96.36V39.8301H90.29V45.9001H96.07V51.6301H90.29V45.9001H84.51V39.8301H78.44V45.9001H84.22V51.6301H78.44V45.9001H72.66V39.8301H66.59V45.9001H72.37V51.6301H66.59V57.7001H72.66V51.9701H78.44V57.7001H84.51V51.9701H90.29V57.7001H96.36V51.9701H102.14V57.7001H108.22V51.6301H102.14Z" fill="#091119"/>
<path d="M5.12 41.5401C5.12 41.5401 17 40.8101 24.04 33.1801C19.35 33.7701 6.3 34.3501 5.12 41.5401Z" fill="white"/>
<path d="M33.86 33.7701C33.86 33.7701 58.79 12.9501 81.08 11.9201C103.37 10.8901 142.96 10.6001 145.6 10.6001C148.24 10.6001 149.12 11.4801 149.71 16.3201C150.3 21.1601 149.12 25.4101 144.43 25.4101C139.74 25.4101 33.86 33.7701 33.86 33.7701Z" fill="#091119"/>
<path d="M81.15 13.4101C71.6 13.8501 61.45 18.1001 53.09 22.7001C53.07 25.3401 53.43 28.0201 54.07 30.6701C61.61 30.0801 70.62 29.3801 79.98 28.6501C80.77 23.5401 81.6 18.4401 82.52 13.3501C82.06 13.3701 81.61 13.3901 81.17 13.4101H81.15Z" fill="#80C2DC"/>
<path d="M122.52 24.3801C123.49 20.3001 123.54 16.3301 123.46 12.3301C113.72 12.4701 102.25 12.6901 92.14 13.0001C91.65 17.9101 91.62 22.8401 92.09 27.7201C102.83 26.8901 113.41 26.0901 122.24 25.4301C122.33 25.0801 122.44 24.7301 122.52 24.3801Z" fill="#80C2DC"/>
<path d="M55.32 27.52H53.35C51.72 27.52 50.07 28.84 49.65 30.47C49.23 32.1 50.22 33.42 51.84 33.42H53.81L55.32 27.53V27.52Z" fill="#FFD400"/>
<path d="M145.45 30.5101L124.43 31.5801V34.0201L145.45 32.9501C146.01 32.9201 146.46 32.3501 146.46 31.6801C146.46 31.0101 146.01 30.4901 145.45 30.5101Z" fill="#091119"/>
<path d="M156.69 8.54005C155.78 6.82005 155.08 12.33 155.46 17.53L157.57 36.78C157.78 38.54 159.47 39.78 161.42 39.68C161.42 39.68 159.37 13.57 156.7 8.54005H156.69Z" fill="#AF2D00"/>
<path d="M156.11 23.57L159.32 20.36C158.57 15.13 157.67 10.39 156.69 8.53004C155.78 6.81004 155.08 12.32 155.46 17.52L156.12 23.56L156.11 23.57Z" fill="white"/>
<path d="M160.36 28.7001C160.14 26.6801 159.88 24.5401 159.61 22.4301L156.35 25.6901L157.04 32.0201L160.36 28.7001Z" fill="white"/>
</g>
<defs>
<clipPath id="clip0_76_1089">
<rect width="163.6" height="66.31" fill="white"/>
</clipPath>
</defs>
</svg>
