<svg width="159" height="55" viewBox="0 0 159 55" fill="none" xmlns="http://www.w3.org/2000/svg">
<g clip-path="url(#clip0_76_1053)">
<path d="M86.55 4.01C87.07 5.63 86.71 7.07 85.71 7.07H80.79C79.79 7.07 79.38 5.64 79.84 4.01L80.31 2.36C80.69 1.01 81.64 0 82.46 0H83.79C84.61 0 85.59 1.02 86.02 2.36L86.55 4.01Z" fill="#F4CC25"/>
<path d="M79.49 7.66003C74.64 7.81003 70.41 8.12003 67.19 8.55003C61.17 9.36003 49.82 18.02 44.37 22.88H72.12C74.52 17.8 76.99 12.73 79.48 7.67003L79.49 7.66003Z" fill="#80C2DC"/>
<path d="M105.72 7.01001C110.61 7.16001 116.39 7.25001 119.67 7.97001C121.55 8.38001 135.63 15.72 144.82 21.11L117.06 22.22C113.33 17.14 109.53 12.07 105.71 7.01001H105.72Z" fill="#80C2DC"/>
<path d="M151.65 19.52L140.75 19.71C135.83 17.13 123.18 10.76 119.11 8.04C114.16 4.74 85.14 5.44 74.52 6.62C64.69 7.71 53.24 17.5 47.67 21.38C8.22 24.2 3.84 26.3 1.61 35.56C-2.03 50.66 15.42 43.96 33.4 43.96H90.6C108.59 43.96 155.37 35.7 155.37 30.19C155.37 30.19 155.48 19.72 151.65 19.52Z" fill="#FFB600"/>
<path d="M115.25 21.88C122.99 21.88 127.97 20.28 127.97 18.3C127.97 14.8 121.17 12.12 117.86 9.91001C116.46 8.98001 110.07 7.89001 96.67 7.89001C87.57 7.89001 80.56 8.23001 76.21 8.71001C69.03 9.51001 59.51 18.82 57.1 21.87H115.24L115.25 21.88Z" fill="#2A2A2B"/>
<path d="M88.7 8.73999C83.73 8.86999 79.47 9.10999 76.31 9.45999C70.4 10.12 62.32 17.17 58.74 21.13H87.56C87.88 17 88.27 12.87 88.7 8.73999Z" fill="#80C2DC"/>
<path d="M107.94 8.97003C105.01 8.77003 101.3 8.65002 96.67 8.65002C94.48 8.65002 92.37 8.67002 90.37 8.71002C89.94 12.85 89.55 16.99 89.22 21.14H112.75C111.37 17 109.82 12.92 107.93 8.98002L107.94 8.97003Z" fill="#80C2DC"/>
<path d="M156.58 45.92C156.58 47.58 133.66 51.08 132.04 51.08H4.66001C3.04001 51.08 1.73001 49.74 1.73001 48.08V40.84C1.73001 39.18 3.04001 37.84 4.66001 37.84L153.65 32.71C155.27 32.71 156.58 34.05 156.58 35.71V45.91V45.92Z" fill="#091119"/>
<path d="M120.38 12.27C119.3 11.67 118.28 11.1 117.45 10.54C116.82 10.12 114.58 9.51999 109.85 9.10999C111.66 13.01 113.17 17.04 114.51 21.13H115.26C123.72 21.13 127.23 19.29 127.23 18.3C127.23 16.09 123.43 13.97 120.38 12.26V12.27Z" fill="#80C2DC"/>
<path d="M158.3 43.29C158.3 44.95 134.87 48.45 133.21 48.45H3C1.34 48.45 0 47.11 0 45.45V38.21C0 36.55 1.34 35.21 3 35.21L155.31 30.08C156.97 30.08 158.31 31.42 158.31 33.08V43.28L158.3 43.29Z" fill="#FFA200"/>
<path d="M3.39001 33.65H13.59C14.78 33.65 16.28 27.6 14.38 27.6C12.48 27.6 3.39001 29.02 3.39001 33.65Z" fill="white"/>
<path d="M133.21 48.45C133.79 48.45 136.99 48.03 140.93 47.41C141.3 46.19 141.51 44.9 141.51 43.56C141.51 36.16 135.51 30.17 128.12 30.17C120.73 30.17 114.73 36.17 114.73 43.56C114.73 45.29 115.07 46.94 115.67 48.46H133.21V48.45Z" fill="#091119"/>
<path d="M42.2 48.45C42.8 46.93 43.14 45.28 43.14 43.55C43.14 36.15 37.14 30.16 29.75 30.16C22.36 30.16 16.36 36.16 16.36 43.55C16.36 45.28 16.7 46.93 17.3 48.45H42.2Z" fill="#091119"/>
<path d="M29.75 54.5201C35.8086 54.5201 40.72 49.6086 40.72 43.5501C40.72 37.4915 35.8086 32.5801 29.75 32.5801C23.6914 32.5801 18.78 37.4915 18.78 43.5501C18.78 49.6086 23.6914 54.5201 29.75 54.5201Z" fill="#2A2A2B"/>
<path d="M24.47 38.2701C27.39 35.3501 32.12 35.3501 35.04 38.2701C37.96 41.1901 37.96 45.9201 35.04 48.8401C32.12 51.7601 27.39 51.7601 24.47 48.8401C21.55 45.9201 21.55 41.1901 24.47 38.2701Z" fill="#97989C"/>
<path d="M25.33 39.13C28.25 36.21 27.44 40.98 29.89 43.43C32.34 45.88 37.11 45.07 34.19 47.99C31.27 50.91 32.08 46.14 29.63 43.69C27.18 41.24 22.41 42.05 25.33 39.13Z" fill="#2A2A2B"/>
<path d="M34.18 39.13C37.1 42.05 32.33 41.24 29.88 43.69C27.43 46.14 28.24 50.91 25.32 47.99C22.4 45.07 27.17 45.88 29.62 43.43C32.07 40.98 31.26 36.21 34.18 39.13Z" fill="#2A2A2B"/>
<path d="M29.75 45.58C30.8711 45.58 31.78 44.6712 31.78 43.55C31.78 42.4289 30.8711 41.52 29.75 41.52C28.6288 41.52 27.72 42.4289 27.72 43.55C27.72 44.6712 28.6288 45.58 29.75 45.58Z" fill="#97989C"/>
<path d="M128.12 54.52C134.179 54.52 139.09 49.6085 139.09 43.55C139.09 37.4914 134.179 32.58 128.12 32.58C122.061 32.58 117.15 37.4914 117.15 43.55C117.15 49.6085 122.061 54.52 128.12 54.52Z" fill="#2A2A2B"/>
<path d="M128.12 51.0299C132.251 51.0299 135.6 47.681 135.6 43.5499C135.6 39.4189 132.251 36.0699 128.12 36.0699C123.989 36.0699 120.64 39.4189 120.64 43.5499C120.64 47.681 123.989 51.0299 128.12 51.0299Z" fill="#97989C"/>
<path d="M123.7 39.1299C126.62 36.2099 125.81 40.9799 128.26 43.4299C130.71 45.8799 135.48 45.0699 132.56 47.9899C129.64 50.9099 130.45 46.1399 128 43.6899C125.55 41.2399 120.78 42.0499 123.7 39.1299Z" fill="#2A2A2B"/>
<path d="M132.55 39.1299C135.47 42.0499 130.7 41.2399 128.25 43.6899C125.8 46.1399 126.61 50.9099 123.69 47.9899C120.77 45.0699 125.54 45.8799 127.99 43.4299C130.44 40.9799 129.63 36.2099 132.55 39.1299Z" fill="#2A2A2B"/>
<path d="M128.12 45.5799C129.241 45.5799 130.15 44.671 130.15 43.5499C130.15 42.4288 129.241 41.5199 128.12 41.5199C126.999 41.5199 126.09 42.4288 126.09 43.5499C126.09 44.671 126.999 45.5799 128.12 45.5799Z" fill="#97989C"/>
<path d="M58.13 18.54H56.16C54.53 18.54 52.88 19.86 52.46 21.49C52.04 23.12 53.03 24.44 54.65 24.44H56.62L58.13 18.55V18.54Z" fill="#FFD400"/>
<path d="M88.58 24.17C88.58 24.79 88.08 25.2901 87.46 25.2901H79.59C78.97 25.2901 78.47 24.79 78.47 24.17C78.47 23.55 78.97 23.05 79.59 23.05H87.46C88.08 23.05 88.58 23.55 88.58 24.17Z" fill="#2A2A2B"/>
<path d="M114.43 24.17C114.43 24.79 113.93 25.2901 113.31 25.2901H105.44C104.82 25.2901 104.32 24.79 104.32 24.17C104.32 23.55 104.82 23.05 105.44 23.05H113.31C113.93 23.05 114.43 23.55 114.43 24.17Z" fill="#2A2A2B"/>
<path d="M154.38 22.5601L150.97 22.6801C150.07 22.6801 149.56 23.4101 149.82 24.3101L151.08 28.5501C151.35 29.4501 152.29 30.1801 153.19 30.1801H155.97C155.91 28.4101 155.88 24.1101 154.37 22.5601H154.38Z" fill="#AF2D00"/>
<path d="M102.14 39.84V34.17H108.14V28.1H102.07V34.11H96.36V28.04H90.29V34.11H96.07V39.84H90.29V34.11H84.51V28.04H78.44V34.11H84.22V39.84H78.44V34.11H72.66V28.04H66.59V34.11H72.37V39.84H66.59V45.91H72.66V40.19H78.44V45.91H84.51V40.19H90.29V45.91H96.36V40.19H102.14V45.91H108.22V39.84H102.14Z" fill="#091119"/>
</g>
<defs>
<clipPath id="clip0_76_1053">
<rect width="158.3" height="54.52" fill="white"/>
</clipPath>
</defs>
</svg>
