<svg width="118" height="118" viewBox="0 0 118 118" fill="none" xmlns="http://www.w3.org/2000/svg">
<g clip-path="url(#clip0_150_1137)">
<path d="M118 59C118 70.6691 114.54 82.0761 108.057 91.7786C101.574 101.481 92.3592 109.043 81.5784 113.509C70.7975 117.975 58.9346 119.143 47.4897 116.866C36.0448 114.59 25.532 108.971 17.2807 100.719C9.02944 92.468 3.41022 81.9552 1.13369 70.5103C-1.14283 59.0654 0.0255674 47.2025 4.49114 36.4217C8.95671 25.6409 16.5189 16.4263 26.2214 9.94334C35.9239 3.46034 47.3309 0 59 0C74.6464 0.00456762 89.6506 6.22213 100.714 17.2858C111.778 28.3494 117.995 43.3537 118 59Z" fill="#D33C00"/>
<path d="M99.304 45.8181H72.1819V18.696H45.818V45.8181H18.6959V72.1647H45.818V99.304H72.1819V72.1647H99.304V45.8181Z" fill="#F7F4F2"/>
<g style="mix-blend-mode:multiply">
<path d="M59 0V118C74.6478 118 89.6546 111.784 100.719 100.719C111.784 89.6547 118 74.6478 118 59C118 43.3523 111.784 28.3454 100.719 17.2807C89.6546 6.21609 74.6478 0 59 0Z" fill="#E2CCBC"/>
</g>
</g>
<defs>
<clipPath id="clip0_150_1137">
<rect width="118" height="118" fill="white"/>
</clipPath>
</defs>
</svg>
