<svg width="128" height="143" viewBox="0 0 128 143" fill="none" xmlns="http://www.w3.org/2000/svg">
<g clip-path="url(#clip0_150_944)">
<path d="M56.837 143C32.9084 143 9.79292 121.523 1.55718 90.6547C-1.19383 80.2961 -2.09354 55.7463 14.2568 36.8247C21.0738 28.9177 28.9981 24.6534 37.7875 24.1009C53.169 23.1514 65.4707 34.1142 65.9897 34.5976L61.6296 39.3971C61.5258 39.2935 50.7986 29.7809 38.1335 30.575C31.2128 31.0239 24.7937 34.5458 19.1014 41.0544C0.882402 62.1341 7.69937 88.7211 7.76858 88.9801C15.7794 119.054 38.791 139.357 61.4047 136.198C93.1711 131.761 97.4274 93.7105 97.6004 92.0877L104.054 92.7264C104.054 93.1753 99.1576 137.458 62.3044 142.62C60.4931 142.874 58.6661 143.001 56.837 143Z" fill="#C93218"/>
<path d="M100.87 92.4157L97.635 92.0877C97.4619 93.7105 93.2057 131.796 61.4392 136.198C38.9467 139.357 15.8658 119.054 7.80312 88.9801C7.80312 88.7211 0.882335 62.1341 19.1359 41.0544C24.7591 34.5458 31.1435 31.0239 38.1681 30.5751C50.8331 29.7809 61.5603 39.2072 61.6641 39.3971L63.7577 36.9801C63.7577 36.9801 38.2719 13.915 16.6617 38.9137C0.43247 57.7145 2.5087 81.7809 4.65415 89.8088C12.7688 120.263 36.6801 142.914 61.7507 139.392C96.6314 134.541 100.87 92.4157 100.87 92.4157Z" fill="#F75F3C"/>
<path d="M116.736 44.5936L120.854 42.6773L105.767 10.514C101.632 1.69192 92.2367 -1.45019 82.9456 2.90041L84.8661 7.00932C90.2643 4.48873 97.8772 4.4024 101.649 12.4476L116.736 44.5936Z" fill="#A3978E"/>
<path d="M103.708 11.4807L118.795 43.6268L116.736 44.5936L101.649 12.4475C97.8772 4.40239 90.2644 4.48872 84.8662 7.00931L83.9146 4.95485C91.4409 1.43294 99.7805 3.10757 103.708 11.4807Z" fill="#635952"/>
<path d="M77.4608 11.8951L74.3464 5.2656L82.6168 0L86.8039 8.92563L77.4608 11.8951Z" fill="#EFB078"/>
<g style="mix-blend-mode:multiply">
<path d="M75.9036 8.58033L84.7276 4.47144L86.8038 8.92562L77.4607 11.8951L75.9036 8.58033Z" fill="#F7D1B2"/>
</g>
<path d="M85.6101 44.8353L81.4922 42.919L96.6314 10.7556C100.784 1.93359 110.162 -1.20852 119.453 3.14208L117.532 7.25099C112.151 4.7304 104.521 4.64407 100.749 12.6892L85.6101 44.8353Z" fill="#A3978E"/>
<path d="M98.6383 11.7224L83.551 43.8858L85.61 44.8353L100.697 12.6892C104.469 4.64406 112.099 4.73039 117.48 7.25098L118.449 5.19652C110.888 1.67461 102.566 3.34924 98.6383 11.7224Z" fill="#635952"/>
<path d="M124.886 12.154L128 5.5073L119.712 0.241699L115.525 9.18459L124.886 12.154Z" fill="#EFB078"/>
<g style="mix-blend-mode:multiply">
<path d="M126.443 8.82203L117.619 4.71313L115.525 9.18458L124.886 12.154L126.443 8.82203Z" fill="#F7D1B2"/>
</g>
<path d="M101.234 75.2895C88.2918 75.2895 77.7549 66.5365 77.7549 55.7636H80.3502C80.3502 65.1036 89.7279 72.6999 101.234 72.6999C112.739 72.6999 122.1 65.1036 122.1 55.7636H124.695C124.695 66.5365 114.176 75.2895 101.234 75.2895Z" fill="#635952"/>
<path d="M101.234 73.9947C113.466 73.9947 123.398 65.8287 123.398 55.7636H122.1C122.1 65.1036 112.74 72.6999 101.234 72.6999C89.7281 72.6999 80.3504 65.1036 80.3504 55.7636H79.0527C79.0527 65.8287 88.9841 73.9947 101.234 73.9947Z" fill="#A3978E"/>
<path d="M101.234 94.0385C88.586 94.0385 77.8068 76.9642 74.9693 56.247L74.8655 55.3838L82.5649 39.0863L87.7554 41.5897L80.8347 56.2988C83.378 73.3387 91.856 85.6481 101.182 85.6481C110.508 85.6481 118.986 73.3732 121.512 56.2988L114.591 41.5897L119.885 39.0863L127.585 55.3838L127.463 56.247C124.661 76.9642 113.933 94.0385 101.234 94.0385Z" fill="#C93218"/>
<path d="M101.234 88.5312C112.549 88.5312 121.996 74.5989 124.591 55.8499L117.255 40.3121L114.608 41.5551L121.529 56.2643C119.003 73.3041 110.508 85.6136 101.199 85.6136C91.8907 85.6136 83.3954 73.3387 80.852 56.2643L87.7728 41.5551L85.1256 40.3121L77.8069 55.8499C80.4195 74.5989 89.9183 88.5312 101.234 88.5312Z" fill="#F75F3C"/>
<path d="M82.0544 37.8583L81.2263 39.6255L88.295 42.9235L89.1231 41.1563L82.0544 37.8583Z" fill="#C93218"/>
<path d="M120.426 37.8991L113.357 41.1958L114.185 42.9632L121.254 39.6665L120.426 37.8991Z" fill="#C93218"/>
<path d="M96.6141 95.1434H105.49L107.03 83.4037H95.0742L96.6141 95.1434Z" fill="#A3978E"/>
<path d="M101.061 95.1434H105.49L107.03 83.4037H101.061V95.1434Z" fill="#635952"/>
<path d="M75.8691 36.9801C75.8691 39.3403 75.1675 41.6474 73.853 43.6096C72.5385 45.5718 70.6703 47.1008 68.4847 48.0032C66.299 48.9056 63.8943 49.1409 61.5746 48.6792C59.255 48.2175 57.1247 47.0796 55.4534 45.4095C53.782 43.7394 52.6447 41.6121 52.1854 39.2968C51.726 36.9816 51.9653 34.5824 52.8728 32.4028C53.7804 30.2233 55.3154 28.3614 57.2838 27.0526C59.2522 25.7438 61.5654 25.047 63.9308 25.0505C65.5 25.0505 67.0538 25.3591 68.5034 25.9589C69.9529 26.5586 71.2698 27.4376 72.3786 28.5456C73.4874 29.6536 74.3664 30.9689 74.9653 32.4161C75.5643 33.8634 75.8714 35.4143 75.8691 36.9801Z" fill="#635952"/>
<path d="M63.8789 46.3546C62.0261 46.358 60.214 45.8127 58.672 44.7877C57.1301 43.7628 55.9277 42.3042 55.217 40.5968C54.5064 38.8895 54.3196 37.0101 54.6802 35.1967C55.0409 33.3833 55.9327 31.7175 57.2428 30.4103C58.5529 29.103 60.2224 28.2131 62.0397 27.8533C63.857 27.4934 65.7405 27.6799 67.4516 28.3889C69.1627 29.098 70.6244 30.2978 71.6516 31.8364C72.6789 33.375 73.2254 35.1831 73.2219 37.0319C73.2128 39.5016 72.2255 41.8676 70.4753 43.614C68.7251 45.3604 66.354 46.3455 63.8789 46.3546Z" fill="#EFB078"/>
<g style="mix-blend-mode:multiply">
<path d="M63.8614 40.6228C63.1455 40.6228 62.4457 40.4108 61.8506 40.0136C61.2556 39.6163 60.7921 39.0517 60.519 38.3914C60.2458 37.7311 60.1752 37.0047 60.3161 36.3043C60.4571 35.6039 60.8032 34.961 61.3106 34.4571C61.8181 33.9532 62.464 33.6109 63.1666 33.4736C63.8692 33.3363 64.5968 33.4103 65.2573 33.686C65.9177 33.9618 66.4813 34.4269 66.8765 35.0226C67.2718 35.6182 67.481 36.3175 67.4775 37.0319C67.4775 37.5049 67.3839 37.9733 67.202 38.4101C67.02 38.8469 66.7534 39.2435 66.4174 39.5772C66.0813 39.9109 65.6826 40.1751 65.2439 40.3545C64.8053 40.5339 64.3355 40.6251 63.8614 40.6228Z" fill="#F7D1B2"/>
</g>
</g>
<defs>
<clipPath id="clip0_150_944">
<rect width="128" height="143" fill="white"/>
</clipPath>
</defs>
</svg>
