<svg width="78" height="144" viewBox="0 0 78 144" fill="none" xmlns="http://www.w3.org/2000/svg">
<g clip-path="url(#clip0_150_968)">
<path d="M77.4467 137.038V48.6605C77.4325 42.8701 75.1263 37.3209 71.0322 33.2265C66.9381 29.1321 61.3894 26.8256 55.5995 26.8115H21.8471C16.0587 26.8303 10.5127 29.1383 6.41968 33.2317C2.32662 37.3251 0.0188243 42.8716 0 48.6605V137.038H77.4467Z" fill="#D1C5BD"/>
<path d="M3.96252 133.075V48.6605C3.96252 43.9262 5.84302 39.3859 9.19035 36.0382C12.5377 32.6906 17.0777 30.81 21.8115 30.81H55.5639C60.2977 30.81 64.8377 32.6906 68.185 36.0382C71.5323 39.3859 73.4129 43.9262 73.4129 48.6605V133.075H3.96252Z" fill="#F7F4F2"/>
<path d="M71.503 144H5.96156L0 137.056H77.4645L71.503 144Z" fill="#A3978E"/>
<path d="M61.097 21.8847H16.3496V27.9182H61.097V21.8847Z" fill="#D1C5BD"/>
<path d="M61.097 21.8847H16.3496V23.7055H61.097V21.8847Z" fill="#A3978E"/>
<path d="M67.5227 21.849V6.03348C67.518 4.45534 66.8878 2.94344 65.7703 1.82919C64.6528 0.714948 63.1392 0.0892568 61.5612 0.0892639H15.8856C14.3076 0.0892568 12.794 0.714948 11.6765 1.82919C10.559 2.94344 9.9288 4.45534 9.92407 6.03348V21.9383L67.5227 21.849Z" fill="#F75F3C"/>
<path d="M15.5108 1.24954H14.2792V21.849H15.5108V1.24954Z" fill="#C93218"/>
<path d="M18.5094 1.24954H17.26V21.849H18.5094V1.24954Z" fill="#C93218"/>
<path d="M21.4723 1.24954H20.2407V21.849H21.4723V1.24954Z" fill="#C93218"/>
<path d="M24.4531 1.24954H23.2216V21.849H24.4531V1.24954Z" fill="#C93218"/>
<path d="M27.4339 1.24954H26.1844V21.849H27.4339V1.24954Z" fill="#C93218"/>
<path d="M30.3967 1.24954H29.1652V21.849H30.3967V1.24954Z" fill="#C93218"/>
<path d="M33.3954 1.24954H32.146V21.849H33.3954V1.24954Z" fill="#C93218"/>
<path d="M36.3763 1.24954H35.1268V21.849H36.3763V1.24954Z" fill="#C93218"/>
<path d="M39.3391 1.24954H38.1075V21.849H39.3391V1.24954Z" fill="#C93218"/>
<path d="M42.3378 1.24954H41.0884V21.849H42.3378V1.24954Z" fill="#C93218"/>
<path d="M45.3007 1.24954H44.0691V21.849H45.3007V1.24954Z" fill="#C93218"/>
<path d="M48.2815 1.24954H47.0499V21.849H48.2815V1.24954Z" fill="#C93218"/>
<path d="M51.2622 1.24954H50.0306V21.849H51.2622V1.24954Z" fill="#C93218"/>
<path d="M54.2431 1.24954H53.0115V21.849H54.2431V1.24954Z" fill="#C93218"/>
<path d="M57.2416 1.24954H55.9922V21.849H57.2416V1.24954Z" fill="#C93218"/>
<path d="M60.2225 1.24954H58.973V21.849H60.2225V1.24954Z" fill="#C93218"/>
<path d="M63.1853 1.24954H61.9359V21.849H63.1853V1.24954Z" fill="#C93218"/>
<path d="M65.1666 1.23169H64.9167V21.849H66.1662V2.21347C65.8695 1.85104 65.5343 1.52186 65.1666 1.23169Z" fill="#C93218"/>
<path d="M12.298 1.23169C11.9263 1.51723 11.5906 1.84691 11.2985 2.21347V21.849H12.53V1.23169H12.298Z" fill="#C93218"/>
<path d="M10.0668 5.46225H67.5583C67.4375 3.97686 66.7632 2.59105 65.6689 1.57939C64.5747 0.567732 63.1404 0.00404438 61.6503 0H15.8855C14.4108 0.0261692 12.9986 0.599731 11.9232 1.60923C10.8478 2.61873 10.1861 3.99205 10.0668 5.46225Z" fill="#F75F3C"/>
<mask id="mask0_150_968" style="mask-type:luminance" maskUnits="userSpaceOnUse" x="3" y="30" width="71" height="104">
<path d="M3.96252 133.075V48.6605C3.96252 43.9262 5.84302 39.3859 9.19035 36.0382C12.5377 32.6906 17.0777 30.81 21.8115 30.81H55.5639C60.2977 30.81 64.8377 32.6906 68.185 36.0382C71.5323 39.3859 73.4129 43.9262 73.4129 48.6605V133.075H3.96252Z" fill="white"/>
</mask>
<g mask="url(#mask0_150_968)">
<path d="M40.178 46.929C41.5814 47.8894 42.5537 49.3605 42.8872 51.0282C43.2207 52.6959 42.889 54.4278 41.9629 55.8542L31.4856 72.2053C31.0844 73.019 30.5154 73.7386 29.8162 74.3166C29.1169 74.8946 28.3032 75.318 27.4286 75.5589C26.554 75.7999 25.6382 75.8528 24.7417 75.7143C23.8451 75.5759 22.988 75.2491 22.2268 74.7555C21.4656 74.262 20.8175 73.6128 20.3252 72.8508C19.8329 72.0887 19.5075 71.231 19.3705 70.3341C19.2334 69.4373 19.2879 68.5216 19.5302 67.6472C19.7724 66.7729 20.1971 65.9598 20.7762 65.2614L31.2535 48.9818C32.175 47.5379 33.6267 46.5136 35.2959 46.1297C36.9651 45.7457 38.7183 46.0328 40.178 46.929Z" fill="#FFD8B8"/>
<path d="M31.2357 48.9818L26.006 57.1216L36.7154 64.0654L41.963 55.9078C42.5202 55.2079 42.9248 54.3991 43.1506 53.5334C43.3764 52.6677 43.4184 51.7643 43.274 50.8813C43.1296 49.9984 42.8019 49.1555 42.312 48.4069C41.8222 47.6582 41.181 47.0205 40.4298 46.5347C39.6786 46.0489 38.834 45.7257 37.9504 45.5861C37.0668 45.4464 36.1637 45.4934 35.2993 45.7239C34.4349 45.9544 33.6283 46.3634 32.9316 46.9245C32.2348 47.4856 31.6632 48.1864 31.2536 48.9818H31.2357Z" fill="#F75F3C"/>
<g style="mix-blend-mode:multiply">
<path d="M31.4856 72.2053L41.963 55.9078C42.8891 54.4814 43.2208 52.7494 42.8873 51.0818C42.5538 49.4141 41.5815 47.9429 40.1781 46.9825L22.5612 74.2402C24.0162 75.1474 25.7708 75.4426 27.4426 75.0614C29.1143 74.6802 30.5676 73.6536 31.4856 72.2053Z" fill="#E2CCBC"/>
</g>
<path d="M53.0471 71.6876C52.3475 73.2564 51.0566 74.4854 49.4555 75.1072C47.8543 75.729 46.0724 75.6933 44.4974 75.0078L26.6485 67.3678C25.8303 67.0666 25.082 66.602 24.4491 66.0023C23.8162 65.4027 23.3119 64.6805 22.9669 63.8797C22.622 63.0789 22.4436 62.2163 22.4426 61.3444C22.4417 60.4725 22.6181 59.6095 22.9612 58.808C23.3044 58.0064 23.807 57.2831 24.4386 56.682C25.0702 56.081 25.8175 55.6147 26.6349 55.3116C27.4524 55.0086 28.323 54.8751 29.1938 54.9193C30.0645 54.9634 30.9171 55.1844 31.6997 55.5686L49.5487 63.2264C51.1304 63.8894 52.3859 65.1511 53.0412 66.7361C53.6966 68.3211 53.6987 70.101 53.0471 71.6876Z" fill="#FFD8B8"/>
<path d="M49.5488 63.1551L40.6243 59.3351L35.5552 71.1164L44.4797 74.9364C45.2532 75.2681 46.0844 75.4442 46.926 75.4546C47.7675 75.465 48.6029 75.3095 49.3844 74.9971C50.1658 74.6846 50.8781 74.2213 51.4806 73.6336C52.083 73.0458 52.5638 72.3451 52.8954 71.5716C53.2271 70.798 53.4032 69.9667 53.4136 69.125C53.424 68.2834 53.2686 67.448 52.9562 66.6664C52.6437 65.8849 52.1805 65.1725 51.5927 64.5701C51.005 63.9676 50.3044 63.4868 49.5309 63.1551H49.5488Z" fill="#52C6A2"/>
<g style="mix-blend-mode:multiply">
<path d="M26.7021 67.3678L44.551 75.0078C46.126 75.6933 47.9078 75.729 49.509 75.1072C51.1102 74.4854 52.401 73.2564 53.1007 71.6876L23.2572 58.8888C22.5968 60.4708 22.5884 62.2496 23.2336 63.8378C23.8789 65.426 25.1256 66.6948 26.7021 67.3678Z" fill="#E2CCBC"/>
</g>
<path d="M59.7583 102.551C58.9951 104.089 57.653 105.261 56.0266 105.809C54.4002 106.358 52.6225 106.239 51.0837 105.479L33.6275 97.071C32.8692 96.7053 32.1904 96.1939 31.6297 95.5658C31.0691 94.9377 30.6377 94.2054 30.3601 93.4106C30.0824 92.6158 29.9641 91.7741 30.0117 90.9335C30.0594 90.093 30.2721 89.27 30.6377 88.5117C31.0034 87.7534 31.5149 87.0745 32.1429 86.5138C32.7709 85.9531 33.5031 85.5217 34.2979 85.244C35.0926 84.9664 35.9342 84.848 36.7747 84.8957C37.6152 84.9433 38.4381 85.156 39.1964 85.5217L56.6526 93.9293C58.2012 94.668 59.3958 95.9876 59.9773 97.6019C60.5588 99.2161 60.4801 100.995 59.7583 102.551Z" fill="#FFD8B8"/>
<path d="M56.6526 93.9293L47.9245 89.7345L42.3556 101.284L51.0837 105.479C52.6151 106.217 54.3772 106.317 55.9822 105.756C57.5873 105.196 58.9038 104.02 59.6423 102.489C60.3808 100.957 60.4807 99.1949 59.92 97.5898C59.3593 95.9846 58.184 94.6679 56.6526 93.9293Z" fill="#52CCC6"/>
<g style="mix-blend-mode:multiply">
<path d="M33.6275 97.071L51.0838 105.479C52.6225 106.239 54.4003 106.358 56.0266 105.809C57.653 105.261 58.9951 104.089 59.7584 102.551L30.5218 88.4492C29.8 90.0058 29.7214 91.7842 30.3028 93.3985C30.8843 95.0127 32.079 96.3324 33.6275 97.071Z" fill="#E2CCBC"/>
</g>
<path d="M61.0435 77.9353C61.02 79.6523 60.3178 81.2903 59.0903 82.4911C57.8629 83.6919 56.21 84.3579 54.493 84.3436H35.0554C34.1843 84.3896 33.313 84.2577 32.4945 83.9559C31.676 83.6542 30.9275 83.1889 30.2946 82.5885C29.6617 81.9881 29.1577 81.2651 28.8133 80.4636C28.4689 79.662 28.2913 78.7987 28.2913 77.9263C28.2913 77.0539 28.4689 76.1907 28.8133 75.3891C29.1577 74.5876 29.6617 73.8646 30.2946 73.2642C30.9275 72.6638 31.676 72.1985 32.4945 71.8968C33.313 71.595 34.1843 71.4631 35.0554 71.5091H54.4216C55.2786 71.4949 56.1301 71.65 56.9271 71.9656C57.7241 72.2811 58.451 72.7508 59.0661 73.3477C59.6813 73.9447 60.1726 74.6572 60.5119 75.4444C60.8513 76.2317 61.0319 77.0781 61.0435 77.9353Z" fill="#FFD8B8"/>
<path d="M54.4929 71.5091H44.8009V84.3436H54.4929C55.364 84.3896 56.2354 84.2577 57.0539 83.9559C57.8723 83.6542 58.6208 83.1889 59.2537 82.5885C59.8866 81.9881 60.3906 81.2651 60.735 80.4636C61.0794 79.662 61.2571 78.7987 61.2571 77.9263C61.2571 77.0539 61.0794 76.1907 60.735 75.3891C60.3906 74.5876 59.8866 73.8646 59.2537 73.2642C58.6208 72.6638 57.8723 72.1985 57.0539 71.8968C56.2354 71.595 55.364 71.4631 54.4929 71.5091Z" fill="#FFBC27"/>
<g style="mix-blend-mode:multiply">
<path d="M35.0554 84.3436H54.4215C56.1385 84.3579 57.7914 83.6919 59.0188 82.4911C60.2463 81.2903 60.9485 79.6523 60.9721 77.9353H28.5762C28.5996 79.6399 29.292 81.2671 30.504 82.4659C31.7161 83.6647 33.3507 84.3391 35.0554 84.3436Z" fill="#E2CCBC"/>
</g>
<path d="M24.7565 111.209C23.3316 112.139 21.5984 112.474 19.9295 112.14C18.2607 111.806 16.7894 110.831 15.832 109.424L4.962 93.3581C4.41876 92.6652 4.02413 91.8677 3.80276 91.0154C3.58138 90.1632 3.53802 89.2744 3.67535 88.4047C3.81268 87.5349 4.12776 86.7028 4.60094 85.9602C5.07413 85.2176 5.69526 84.5805 6.42558 84.0887C7.15589 83.5969 7.97972 83.2608 8.84566 83.1016C9.7116 82.9423 10.6011 82.9632 11.4586 83.163C12.3161 83.3628 13.1232 83.7371 13.8296 84.2628C14.536 84.7884 15.1265 85.4539 15.5643 86.2179L26.4343 102.283C27.3801 103.694 27.7342 105.42 27.4205 107.089C27.1067 108.758 26.15 110.238 24.7565 111.209Z" fill="#FFD8B8"/>
<path d="M26.3808 102.194L21.0261 94.1793L10.406 101.319L15.7607 109.334C16.1985 110.098 16.789 110.764 17.4954 111.289C18.2018 111.815 19.0089 112.189 19.8664 112.389C20.7239 112.589 21.6134 112.61 22.4793 112.451C23.3453 112.291 24.1691 111.955 24.8994 111.464C25.6297 110.972 26.2509 110.335 26.724 109.592C27.1972 108.849 27.5123 108.017 27.6496 107.148C27.787 106.278 27.7436 105.389 27.5222 104.537C27.3008 103.685 26.9062 102.887 26.363 102.194H26.3808Z" fill="#52CCC6"/>
<g style="mix-blend-mode:multiply">
<path d="M4.90853 93.3759L15.7785 109.441C16.7359 110.849 18.2072 111.824 19.876 112.158C21.5449 112.492 23.2781 112.157 24.703 111.226L6.47924 84.4507C5.10668 85.4408 4.17455 86.9274 3.88121 88.5943C3.58786 90.2611 3.95644 91.9767 4.90853 93.3759Z" fill="#E2CCBC"/>
</g>
<path d="M46.4608 116.832C46.0127 118.488 44.929 119.901 43.4452 120.764C41.9613 121.626 40.1971 121.868 38.5359 121.437L19.7588 116.707C18.1019 116.288 16.6794 115.228 15.8041 113.76C14.9287 112.292 14.6723 110.536 15.0913 108.879C15.5102 107.222 16.5702 105.799 18.038 104.924C19.5058 104.049 21.2612 103.792 22.9181 104.211L41.6952 108.977C42.5249 109.178 43.3067 109.541 43.9958 110.045C44.6849 110.549 45.2676 111.184 45.7104 111.914C46.1533 112.644 46.4476 113.454 46.5764 114.298C46.7051 115.142 46.6659 116.003 46.4608 116.832Z" fill="#FFD8B8"/>
<path d="M41.6952 109.013L32.3066 106.621L29.1473 119.116L38.5359 121.49C39.3563 121.698 40.2095 121.742 41.0468 121.619C41.8841 121.497 42.6892 121.211 43.4159 120.778C44.1427 120.344 44.777 119.772 45.2826 119.093C45.7882 118.415 46.1552 117.643 46.3627 116.823C46.5701 116.002 46.6139 115.149 46.4916 114.311C46.3693 113.474 46.0833 112.669 45.6499 111.942C45.2165 111.215 44.6441 110.581 43.9656 110.075C43.287 109.57 42.5155 109.203 41.6952 108.995V109.013Z" fill="#59230E"/>
<g style="mix-blend-mode:multiply">
<path d="M19.7588 116.707L38.6252 121.437C40.2864 121.868 42.0505 121.626 43.5344 120.764C45.0183 119.901 46.102 118.488 46.5501 116.832L15.0824 108.852C14.6703 110.514 14.9304 112.27 15.806 113.741C16.6816 115.212 18.102 116.277 19.7588 116.707Z" fill="#E2CCBC"/>
</g>
<path d="M21.508 124.525C20.1046 123.565 19.1323 122.094 18.7988 120.426C18.4653 118.758 18.797 117.026 19.7231 115.6L30.2004 99.3023C30.6016 98.4886 31.1705 97.769 31.8698 97.191C32.569 96.613 33.3828 96.1896 34.2574 95.9487C35.132 95.7078 36.0477 95.6548 36.9443 95.7933C37.8409 95.9317 38.698 96.2585 39.4592 96.7521C40.2204 97.2456 40.8685 97.8948 41.3608 98.6569C41.8531 99.4189 42.1785 100.277 42.3155 101.173C42.4525 102.07 42.3981 102.986 42.1559 103.86C41.9136 104.735 41.4889 105.548 40.9098 106.246L30.4325 122.526C29.5056 123.965 28.0499 124.981 26.38 125.355C24.71 125.729 22.96 125.431 21.508 124.525Z" fill="#FFD8B8"/>
<path d="M30.4503 122.472L35.6801 114.332L24.9707 107.389L19.7231 115.546C19.1658 116.246 18.7613 117.055 18.5355 117.921C18.3097 118.786 18.2676 119.69 18.4121 120.573C18.5565 121.456 18.8842 122.299 19.374 123.047C19.8639 123.796 20.505 124.434 21.2562 124.919C22.0075 125.405 22.852 125.728 23.7357 125.868C24.6193 126.008 25.5224 125.961 26.3868 125.73C27.2512 125.5 28.0577 125.091 28.7545 124.53C29.4513 123.968 30.0229 123.268 30.4325 122.472H30.4503Z" fill="#F75F3C"/>
<g style="mix-blend-mode:multiply">
<path d="M30.129 99.2488L19.6517 115.546C18.7256 116.973 18.3939 118.705 18.7274 120.372C19.0609 122.04 20.0332 123.511 21.4366 124.472L39 97.1603C37.5419 96.2794 35.7967 96.0047 34.1386 96.3951C32.4804 96.7855 31.0411 97.8099 30.129 99.2488Z" fill="#E2CCBC"/>
</g>
<path d="M18.1881 80.3808C18.8874 78.812 20.1793 77.5839 21.7815 76.965C23.3836 76.3462 25.1656 76.387 26.7378 77.0785L44.5867 84.7185C46.1489 85.3907 47.38 86.6561 48.0093 88.2362C48.6386 89.8162 48.6145 91.5816 47.9423 93.1439C47.2701 94.7062 46.0049 95.9375 44.4249 96.5668C42.845 97.1962 41.0798 97.1721 39.5176 96.4998L21.6687 88.8598C20.0857 88.1935 18.831 86.9275 18.1788 85.3386C17.5265 83.7497 17.5299 81.9672 18.1881 80.3808Z" fill="#FFD8B8"/>
<path d="M21.6687 88.8598L30.5932 92.6798L35.6445 80.8985L26.72 77.0785C25.9465 76.7456 25.115 76.5683 24.273 76.5568C23.431 76.5453 22.595 76.6998 21.8126 77.0114C21.0303 77.3231 20.317 77.7857 19.7135 78.3731C19.11 78.9604 18.6281 79.6608 18.2953 80.4343C17.9624 81.2079 17.7852 82.0395 17.7737 82.8816C17.7622 83.7236 17.9166 84.5597 18.2282 85.3421C18.5398 86.1245 19.0025 86.8378 19.5897 87.4414C20.177 88.0449 20.8774 88.5269 21.6509 88.8598H21.6687Z" fill="#52C6A2"/>
<g style="mix-blend-mode:multiply">
<path d="M44.5331 84.7185L26.6842 77.0785C25.112 76.387 23.33 76.3462 21.7279 76.965C20.1257 77.5839 18.8338 78.812 18.1345 80.3808L47.9601 93.1975C48.6216 91.6177 48.6326 89.8407 47.9908 88.2529C47.3491 86.6651 46.1064 85.3948 44.5331 84.7185Z" fill="#E2CCBC"/>
</g>
<path d="M4.58716 81.7374C5.35042 80.1998 6.69257 79.028 8.31895 78.4791C9.94533 77.9303 11.723 78.0492 13.2618 78.81L30.7181 87.2175C31.5183 87.5573 32.2412 88.056 32.843 88.6833C33.4449 89.3107 33.9133 90.0536 34.2197 90.8672C34.5262 91.6808 34.6643 92.5481 34.6259 93.4167C34.5875 94.2852 34.3732 95.137 33.996 95.9203C33.6189 96.7036 33.0868 97.4023 32.4318 97.974C31.7769 98.5457 31.0128 98.9785 30.1857 99.2463C29.3586 99.5141 28.4858 99.6112 27.6201 99.5319C26.7544 99.4525 25.9138 99.1983 25.1492 98.7847L7.69289 90.3592C6.14108 89.6242 4.94331 88.3047 4.36136 86.6891C3.7794 85.0736 3.86057 83.2933 4.58716 81.7374Z" fill="#FFD8B8"/>
<path d="M7.69291 90.3593L16.4211 94.572L21.9899 83.0227L13.2618 78.81C12.5035 78.4443 11.6807 78.2315 10.8402 78.1839C9.99969 78.1362 9.15805 78.2546 8.36331 78.5323C7.56857 78.8099 6.83631 79.2414 6.20831 79.802C5.58031 80.3627 5.06886 81.0416 4.7032 81.7999C4.33754 82.5583 4.12482 83.3812 4.07717 84.2218C4.02952 85.0623 4.14789 85.904 4.42551 86.6988C4.70313 87.4936 5.13458 88.226 5.6952 88.854C6.25582 89.4821 6.93464 89.9936 7.69291 90.3593Z" fill="#52CCC6"/>
<g style="mix-blend-mode:multiply">
<path d="M30.7181 87.2175L13.2618 78.81C11.723 78.0492 9.94533 77.9303 8.31895 78.4791C6.69257 79.028 5.35041 80.1998 4.58716 81.7374L33.8238 95.8393C34.5455 94.2828 34.6242 92.5043 34.0428 90.8901C33.4613 89.2758 32.2666 87.9562 30.7181 87.2175Z" fill="#E2CCBC"/>
</g>
<path d="M8.10339 44.3406C8.12691 42.6219 8.82857 40.9822 10.0555 39.7785C11.2825 38.5749 12.9353 37.9049 14.654 37.9144H34.0201C34.8912 37.8685 35.7626 38.0004 36.5811 38.3021C37.3996 38.6039 38.1481 39.0691 38.781 39.6695C39.4138 40.2699 39.9178 40.993 40.2622 41.7945C40.6067 42.596 40.7843 43.4593 40.7843 44.3317C40.7843 45.2041 40.6067 46.0674 40.2622 46.8689C39.9178 47.6705 39.4138 48.3935 38.781 48.9939C38.1481 49.5943 37.3996 50.0595 36.5811 50.3613C35.7626 50.663 34.8912 50.7949 34.0201 50.749H14.654C12.937 50.7633 11.2841 50.0972 10.0566 48.8964C8.82917 47.6956 8.12692 46.0577 8.10339 44.3406Z" fill="#FFD8B8"/>
<path d="M14.6541 50.749H24.346V37.9144H14.6719C13.8008 37.8685 12.9294 38.0004 12.1109 38.3021C11.2924 38.6039 10.5439 39.0691 9.91104 39.6695C9.27817 40.2699 8.77418 40.993 8.42976 41.7945C8.08534 42.596 7.90771 43.4593 7.90771 44.3317C7.90771 45.2041 8.08534 46.0674 8.42976 46.8689C8.77418 47.6705 9.27817 48.3935 9.91104 48.9939C10.5439 49.5943 11.2924 50.0595 12.1109 50.3613C12.9294 50.663 13.8008 50.7949 14.6719 50.749H14.6541Z" fill="#FFBC27"/>
<g style="mix-blend-mode:multiply">
<path d="M34.0201 37.9144H14.654C12.9353 37.9049 11.2825 38.5749 10.0555 39.7785C8.82857 40.9822 8.12691 42.6219 8.10339 44.3406H40.5707C40.5472 42.6219 39.8455 40.9822 38.6186 39.7785C37.3916 38.5749 35.7388 37.9049 34.0201 37.9144Z" fill="#E2CCBC"/>
</g>
<path d="M35.1982 52.177C34.7497 50.5178 34.9768 48.7484 35.8298 47.2563C36.6829 45.7641 38.0924 44.6708 39.7497 44.2157L58.3661 38.8605C59.176 38.6261 60.0241 38.5535 60.862 38.6469C61.6998 38.7402 62.5111 38.9978 63.2495 39.4047C63.9879 39.8116 64.6389 40.36 65.1654 41.0186C65.6919 41.6771 66.0835 42.4329 66.3179 43.2428C66.5523 44.0527 66.6248 44.9009 66.5315 45.7388C66.4381 46.5768 66.1806 47.3882 65.7737 48.1266C65.3668 48.8651 64.8185 49.5162 64.16 50.0427C63.5015 50.5692 62.7458 50.9608 61.9359 51.1952L43.3016 56.5504C42.4824 56.7973 41.6226 56.8799 40.7714 56.7936C39.9201 56.7073 39.0944 56.4536 38.3414 56.0473C37.5885 55.6409 36.9232 55.0898 36.3838 54.4257C35.8444 53.7615 35.4415 52.9973 35.1982 52.177Z" fill="#FFD8B8"/>
<path d="M43.248 56.5504L52.5652 53.9085L48.9954 41.5738L39.6961 44.2157C38.8862 44.4501 38.1305 44.8417 37.472 45.3683C36.8135 45.8948 36.2652 46.5458 35.8583 47.2843C35.4514 48.0227 35.1939 48.8341 35.1005 49.6721C35.0072 50.51 35.0798 51.3582 35.3142 52.1681C35.5485 52.978 35.9402 53.7338 36.4666 54.3923C36.9931 55.0509 37.6441 55.5993 38.3825 56.0062C39.1209 56.4132 39.9322 56.6707 40.77 56.764C41.6079 56.8574 42.456 56.7848 43.2659 56.5504H43.248Z" fill="#52CCC6"/>
<g style="mix-blend-mode:multiply">
<path d="M58.3661 38.9141L39.7497 44.2692C38.0924 44.7244 36.6829 45.8177 35.8298 47.3098C34.9768 48.8019 34.7497 50.5713 35.1982 52.2306L66.4339 43.3053C65.9376 41.6588 64.8123 40.2744 63.302 39.4523C61.7916 38.6302 60.0181 38.4368 58.3661 38.9141Z" fill="#E2CCBC"/>
</g>
<path d="M41.1598 57.6035C41.6079 55.9467 42.6916 54.5337 44.1755 53.6714C45.6593 52.809 47.4235 52.5671 49.0847 52.9981L67.8618 57.7999C69.5187 58.2189 70.9412 59.2789 71.8166 60.7469C72.6919 62.2148 72.9483 63.9704 72.5293 65.6273C72.1104 67.2843 71.0504 68.707 69.5826 69.5824C68.1148 70.4578 66.3594 70.7142 64.7026 70.2953L45.9254 65.547C45.0886 65.3426 44.3006 64.9742 43.6071 64.4631C42.9136 63.9521 42.3283 63.3086 41.8851 62.5699C41.4419 61.8311 41.1496 61.0118 41.0251 60.1594C40.9006 59.3069 40.9464 58.4382 41.1598 57.6035Z" fill="#FFD8B8"/>
<path d="M45.9254 65.4399L55.314 67.814L58.4732 55.3187L49.0847 52.9267C47.4278 52.5077 45.6724 52.7642 44.2046 53.6396C42.7368 54.515 41.6769 55.9376 41.2579 57.5946C40.839 59.2516 41.0954 61.0072 41.9707 62.4751C42.846 63.943 44.2686 65.0031 45.9254 65.4221V65.4399Z" fill="#59230E"/>
<g style="mix-blend-mode:multiply">
<path d="M67.8617 57.7999L49.0846 53.0338C47.4234 52.6028 45.6592 52.8447 44.1754 53.7071C42.6915 54.5694 41.6078 55.9824 41.1597 57.6393L72.6274 65.6184C73.0259 63.95 72.7484 62.1917 71.8557 60.727C70.9629 59.2623 69.5272 58.2101 67.8617 57.7999Z" fill="#E2CCBC"/>
</g>
<path d="M65.0952 104.211C63.394 104.451 61.6671 104.007 60.2923 102.977C58.9175 101.946 58.0068 100.413 57.7593 98.7133L54.8499 79.5597C54.5943 77.879 55.0167 76.1656 56.0243 74.7965C57.0318 73.4273 58.5419 72.5145 60.2224 72.2588C61.903 72.0032 63.6162 72.4256 64.9852 73.4333C66.3543 74.4409 67.267 75.9512 67.5227 77.6318L70.4499 96.7676C70.7183 98.4636 70.3063 100.197 69.3036 101.591C68.3009 102.985 66.7885 103.927 65.0952 104.211Z" fill="#FFD8B8"/>
<path d="M70.4499 96.839L68.9862 87.2711L56.3135 89.1989L57.7592 98.7847C57.853 99.6472 58.1203 100.482 58.5453 101.238C58.9703 101.995 59.544 102.657 60.2319 103.186C60.9198 103.715 61.7076 104.098 62.5479 104.314C63.3882 104.53 64.2634 104.574 65.121 104.442C65.9785 104.311 66.8005 104.007 67.5375 103.549C68.2745 103.092 68.9112 102.489 69.4091 101.779C69.9071 101.068 70.256 100.264 70.4349 99.4154C70.6137 98.5664 70.6188 97.69 70.4499 96.839Z" fill="#F75F3C"/>
<g style="mix-blend-mode:multiply">
<path d="M54.8498 79.6311L57.7592 98.8561C58.0067 100.556 58.9175 102.089 60.2923 103.12C61.6671 104.15 63.394 104.594 65.0952 104.354L60.2045 72.2231C58.5185 72.5081 57.012 73.4445 56.0103 74.8304C55.0085 76.2163 54.5917 77.9406 54.8498 79.6311Z" fill="#E2CCBC"/>
</g>
<path d="M76.5899 132.772C75.8903 134.341 74.5994 135.57 72.9982 136.192C71.3971 136.813 69.6152 136.778 68.0402 136.092L50.1913 128.452C49.4178 128.12 48.7172 127.64 48.1295 127.037C47.5418 126.435 47.0785 125.722 46.766 124.941C46.4536 124.159 46.2982 123.324 46.3086 122.482C46.319 121.641 46.4951 120.809 46.8267 120.036C47.1584 119.262 47.6392 118.561 48.2416 117.974C48.8441 117.386 49.5563 116.923 50.3378 116.61C51.1193 116.298 51.9547 116.142 52.7962 116.153C53.6378 116.163 54.469 116.339 55.2425 116.671L73.0915 124.293C74.6745 124.96 75.9302 126.225 76.5854 127.813C77.2406 129.4 77.2422 131.183 76.5899 132.772Z" fill="#FFD8B8"/>
<path d="M73.1094 124.329L64.1849 120.509L59.1337 132.308L68.0582 136.128C68.839 136.501 69.6872 136.712 70.5517 136.75C71.4163 136.787 72.2795 136.649 73.0895 136.344C73.8995 136.04 74.6397 135.575 75.2655 134.977C75.8914 134.379 76.3901 133.661 76.7317 132.866C77.0733 132.071 77.2508 131.215 77.2535 130.35C77.2562 129.484 77.0841 128.627 76.7475 127.83C76.4109 127.032 75.9167 126.311 75.2946 125.71C74.6725 125.108 73.9353 124.638 73.1273 124.329H73.1094Z" fill="#52C6A2"/>
<g style="mix-blend-mode:multiply">
<path d="M50.2448 128.488L68.0938 136.128C69.6688 136.813 71.4507 136.849 73.0518 136.227C74.653 135.606 75.9438 134.377 76.6435 132.808L46.8178 120.009C46.1612 121.589 46.1526 123.364 46.7939 124.951C47.4351 126.537 48.6747 127.808 50.2448 128.488Z" fill="#E2CCBC"/>
</g>
<path d="M76.7506 57.7999C75.9873 59.3375 74.6452 60.5094 73.0188 61.0582C71.3924 61.6071 69.6147 61.4881 68.076 60.7274L50.6197 52.4448C49.8614 52.0791 49.1826 51.5676 48.622 50.9396C48.0613 50.3115 47.6299 49.5792 47.3523 48.7843C47.0746 47.9895 46.9563 47.1478 47.0039 46.3073C47.0516 45.4667 47.2643 44.6438 47.63 43.8855C47.9956 43.1271 48.507 42.4482 49.135 41.8876C49.763 41.3269 50.4953 40.8954 51.2901 40.6178C52.0848 40.3401 52.9265 40.2218 53.7669 40.2694C54.6074 40.3171 55.4303 40.5298 56.1885 40.8955L73.6448 49.3031C75.1651 50.0381 76.3395 51.3361 76.9192 52.9222C77.4989 54.5082 77.4384 56.2577 76.7506 57.7999Z" fill="#FFD8B8"/>
<path d="M73.6448 49.2138L64.9166 45.0011L59.3478 56.5504L68.0759 60.7631C68.8342 61.1288 69.6571 61.3415 70.4976 61.3892C71.338 61.4368 72.1797 61.3185 72.9744 61.0408C73.7691 60.7632 74.5014 60.3317 75.1294 59.771C75.7574 59.2103 76.2688 58.5315 76.6345 57.7731C77.0002 57.0148 77.2129 56.1918 77.2605 55.3513C77.3082 54.5107 77.1898 53.669 76.9122 52.8742C76.6346 52.0794 76.2031 51.3471 75.6425 50.719C75.0819 50.091 74.4031 49.5795 73.6448 49.2138Z" fill="#52CCC6"/>
<g style="mix-blend-mode:multiply">
<path d="M50.6196 52.4448L68.0759 60.8524C69.6147 61.6131 71.3924 61.7321 73.0187 61.1832C74.6451 60.6343 75.9873 59.4625 76.7505 57.9249L47.5496 43.7337C47.1772 44.5069 46.9611 45.3461 46.9139 46.203C46.8667 47.06 46.9893 47.9178 47.2745 48.7273C47.5598 49.5367 48.0022 50.2818 48.5762 50.9198C49.1503 51.5577 49.8447 52.076 50.6196 52.4448Z" fill="#E2CCBC"/>
</g>
<path d="M2.92719 124.222C3.41595 122.577 4.53349 121.192 6.03725 120.366C7.54102 119.541 9.30964 119.342 10.9592 119.813L29.7006 125.061C30.5117 125.295 31.2686 125.687 31.9281 126.214C32.5877 126.741 33.1371 127.393 33.5448 128.132C33.9525 128.871 34.2106 129.683 34.3044 130.523C34.3982 131.362 34.3259 132.211 34.0915 133.022C33.8571 133.833 33.4652 134.59 32.9383 135.25C32.4114 135.909 31.7598 136.459 31.0206 136.866C30.2813 137.274 29.4691 137.532 28.6301 137.626C27.7911 137.72 26.9419 137.648 26.1309 137.413L7.49652 132.165C6.67495 131.944 5.90503 131.562 5.23076 131.043C4.55648 130.524 3.99107 129.878 3.56676 129.14C3.14245 128.402 2.86758 127.588 2.75784 126.744C2.64811 125.901 2.70565 125.043 2.92719 124.222Z" fill="#FFD8B8"/>
<path d="M7.51441 132.165L16.8315 134.789L20.4013 122.437L11.0663 119.813C10.2553 119.585 9.40748 119.52 8.57119 119.62C7.73491 119.72 6.92656 119.984 6.19232 120.397C5.45808 120.81 4.81231 121.363 4.29189 122.026C3.77147 122.688 3.38662 123.446 3.15925 124.257C2.93189 125.068 2.86648 125.916 2.96678 126.753C3.06708 127.589 3.33113 128.397 3.74383 129.132C4.15653 129.866 4.7098 130.512 5.37207 131.032C6.03434 131.553 6.79262 131.938 7.60363 132.165H7.51441Z" fill="#FFBC27"/>
<g style="mix-blend-mode:multiply">
<path d="M29.7007 125.061L11.0485 119.813C9.39893 119.342 7.6303 119.541 6.12654 120.366C4.62278 121.192 3.50524 122.577 3.01648 124.222L34.27 133.004C34.7076 131.345 34.4733 129.58 33.6178 128.093C32.7623 126.606 31.3547 125.516 29.7007 125.061Z" fill="#E2CCBC"/>
</g>
<path d="M77.768 108.549C78.2116 110.208 77.9823 111.975 77.13 113.466C76.2776 114.957 74.8712 116.051 73.2165 116.51L54.5822 121.865C52.9466 122.339 51.19 122.143 49.6988 121.321C48.2075 120.499 47.1038 119.119 46.6304 117.483C46.1571 115.847 46.3528 114.091 47.1746 112.599C47.9963 111.108 49.3768 110.004 51.0124 109.531L69.6467 104.176C70.467 103.926 71.3286 103.841 72.1818 103.926C73.0351 104.011 73.863 104.264 74.618 104.671C75.373 105.077 76.04 105.629 76.5806 106.295C77.1212 106.961 77.5248 107.727 77.768 108.549Z" fill="#FFD8B8"/>
<path d="M69.718 104.211L60.4009 106.853L63.9707 119.188L73.2878 116.546C74.9234 116.072 76.3039 114.969 77.1257 113.477C77.9474 111.986 78.1431 110.229 77.6698 108.594C77.1964 106.958 76.0927 105.577 74.6014 104.755C73.1102 103.934 71.3536 103.738 69.718 104.211Z" fill="#52CCC6"/>
<g style="mix-blend-mode:multiply">
<path d="M54.5821 121.812L73.2165 116.457C74.8711 115.997 76.2776 114.903 77.1299 113.412C77.9823 111.922 78.2115 110.154 77.7679 108.495L46.5322 117.421C47.0246 119.066 48.1465 120.45 49.6539 121.272C51.1614 122.095 52.9325 122.289 54.5821 121.812Z" fill="#E2CCBC"/>
</g>
<path d="M5.62244 72.5087C4.42779 71.2774 3.76859 69.6235 3.78865 67.908C3.80872 66.1924 4.50644 64.5544 5.72955 63.3514L19.4197 49.6601C20.0151 49.0647 20.7219 48.5924 21.4998 48.2701C22.2776 47.9479 23.1114 47.782 23.9533 47.782C24.7953 47.782 25.629 47.9479 26.4069 48.2701C27.1848 48.5923 27.8916 49.0647 28.487 49.6601C29.0824 50.2555 29.5546 50.9624 29.8768 51.7403C30.199 52.5183 30.3649 53.352 30.3649 54.1941C30.3649 55.0361 30.199 55.87 29.8768 56.6479C29.5546 57.4259 29.0824 58.1327 28.487 58.7281L14.779 72.4195C13.5737 73.6403 11.9345 74.3348 10.2191 74.3516C8.50371 74.3683 6.8513 73.7058 5.62244 72.5087Z" fill="#FFD8B8"/>
<path d="M14.7789 72.4195L21.6329 65.5649L12.5835 56.4968L5.72952 63.3514C5.10629 63.9393 4.60725 64.6462 4.26194 65.4303C3.91663 66.2144 3.73205 67.0598 3.71911 67.9165C3.70617 68.7731 3.86514 69.6237 4.18661 70.4179C4.50808 71.2121 4.98551 71.9337 5.5907 72.5402C6.19589 73.1466 6.91655 73.6255 7.71002 73.9486C8.5035 74.2716 9.35367 74.4323 10.2103 74.421C11.0669 74.4098 11.9126 74.2269 12.6974 73.8831C13.4821 73.5393 14.1899 73.0416 14.7789 72.4195Z" fill="#59230E"/>
<g style="mix-blend-mode:multiply">
<path d="M19.4197 49.6601L5.72955 63.3514C4.50644 64.5545 3.80872 66.1924 3.78865 67.908C3.76859 69.6236 4.42779 71.2774 5.62244 72.5088L28.5941 49.553C27.3599 48.3572 25.7032 47.6974 23.9848 47.7175C22.2665 47.7375 20.6257 48.4358 19.4197 49.6601Z" fill="#E2CCBC"/>
</g>
<path d="M25.7204 59.1922C27.1275 60.1497 28.1028 61.6211 28.4366 63.2901C28.7703 64.9591 28.436 66.6925 27.5053 68.1175L17.0279 84.3971C16.6183 85.1925 16.0467 85.8933 15.3499 86.4544C14.6532 87.0155 13.8466 87.4245 12.9822 87.655C12.1179 87.8855 11.2148 87.9325 10.3312 87.7928C9.44752 87.6532 8.60291 87.3301 7.8517 86.8443C7.10049 86.3584 6.45934 85.7207 5.96949 84.9721C5.47964 84.2234 5.15193 83.3805 5.00751 82.4976C4.86309 81.6147 4.90514 80.7113 5.13094 79.8456C5.35674 78.9799 5.76128 78.171 6.31854 77.4712L16.7959 61.1736C17.7193 59.7305 19.1767 58.7118 20.8492 58.3405C22.5216 57.9692 24.2731 58.2754 25.7204 59.1922Z" fill="#FFD8B8"/>
<path d="M16.7959 61.2272L11.5483 69.3849L22.2577 76.3109L27.4875 68.171C28.0372 67.4707 28.4351 66.6636 28.6556 65.801C28.8761 64.9384 28.9145 64.0393 28.7683 63.1611C28.6221 62.2828 28.2945 61.4447 27.8064 60.7001C27.3183 59.9555 26.6804 59.3208 25.9334 58.8365C25.1864 58.3521 24.3467 58.0288 23.4678 57.887C22.5889 57.7453 21.6901 57.7882 20.8287 58.0131C19.9673 58.2381 19.1623 58.64 18.4648 59.1934C17.7674 59.7468 17.193 60.4394 16.7781 61.2272H16.7959Z" fill="#F75F3C"/>
<g style="mix-blend-mode:multiply">
<path d="M17.0993 84.4507L27.5767 68.171C28.5073 66.746 28.8418 65.0127 28.508 63.3436C28.1742 61.6746 27.1989 60.2032 25.7918 59.2458L8.22839 86.5571C9.68747 87.441 11.4356 87.7155 13.0954 87.3214C14.7551 86.9273 16.1933 85.8962 17.0993 84.4507Z" fill="#E2CCBC"/>
</g>
<path d="M2.08831 111.691C2.4327 110.912 2.92709 110.209 3.54319 109.622C4.1593 109.035 4.88506 108.575 5.67902 108.268C6.47298 107.961 7.31958 107.814 8.17046 107.835C9.02133 107.855 9.85981 108.043 10.638 108.388L28.4869 116.028C30.0491 116.698 31.2812 117.961 31.9122 119.54C32.5432 121.118 32.5213 122.882 31.8515 124.445C31.1816 126.007 29.9187 127.239 28.3404 127.87C26.7621 128.501 24.9979 128.479 23.4357 127.81L5.58672 120.17C4.00057 119.507 2.74176 118.242 2.08605 116.653C1.43033 115.064 1.43115 113.279 2.08831 111.691Z" fill="#FFD8B8"/>
<path d="M5.56883 120.17L14.4933 123.99L19.5446 112.208L10.6201 108.388C9.84658 108.055 9.0151 107.878 8.1731 107.867C7.3311 107.855 6.49507 108.01 5.71277 108.321C4.93046 108.633 4.2172 109.096 3.61368 109.683C3.01017 110.27 2.52822 110.971 2.19537 111.744C1.86253 112.518 1.68531 113.349 1.67382 114.191C1.66232 115.033 1.81678 115.87 2.12837 116.652C2.43997 117.434 2.90259 118.148 3.48984 118.751C4.0771 119.355 4.77748 119.837 5.55099 120.17H5.56883Z" fill="#52C6A2"/>
<g style="mix-blend-mode:multiply">
<path d="M28.4334 116.028L10.5844 108.388C9.80627 108.043 8.96781 107.855 8.11694 107.835C7.26607 107.814 6.41946 107.961 5.6255 108.268C4.83154 108.575 4.10578 109.035 3.48968 109.622C2.87357 110.209 2.37919 110.912 2.03479 111.691L31.8604 124.489C32.5212 122.912 32.5317 121.138 31.8897 119.553C31.2478 117.968 30.0054 116.701 28.4334 116.028Z" fill="#E2CCBC"/>
</g>
<path d="M46.6215 62.9587C47.3848 61.4211 48.7269 60.2493 50.3533 59.7004C51.9797 59.1515 53.7574 59.2705 55.2961 60.0312L72.7524 68.4388C74.2838 69.1774 75.4591 70.494 76.0198 72.0992C76.5805 73.7044 76.4806 75.4666 75.7421 76.9981C75.0036 78.5297 73.6871 79.7051 72.082 80.2658C70.477 80.8265 68.7149 80.7266 67.1835 79.9881L49.7272 71.5805C48.1787 70.8419 46.984 69.5222 46.4026 67.908C45.8211 66.2937 45.8998 64.5153 46.6215 62.9587Z" fill="#FFD8B8"/>
<path d="M49.7272 71.5805L58.4554 75.7932L64.0242 64.2261L55.2961 60.0312C54.5378 59.6655 53.715 59.4528 52.8745 59.4051C52.034 59.3575 51.1923 59.4759 50.3976 59.7535C49.6029 60.0312 48.8706 60.4626 48.2426 61.0233C47.6146 61.584 47.1032 62.2629 46.7375 63.0212C46.3718 63.7795 46.1591 64.6025 46.1115 65.443C46.0638 66.2836 46.1822 67.1253 46.4598 67.9201C46.7374 68.7149 47.1689 69.4472 47.7295 70.0753C48.2901 70.7034 48.9689 71.2148 49.7272 71.5805Z" fill="#52CCC6"/>
<g style="mix-blend-mode:multiply">
<path d="M72.7523 68.5102L55.2961 60.1026C53.7573 59.3419 51.9796 59.2229 50.3532 59.7718C48.7269 60.3207 47.3847 61.4925 46.6215 63.0301L75.8581 77.132C76.5798 75.5754 76.6585 73.797 76.0771 72.1828C75.4956 70.5685 74.3009 69.2488 72.7523 68.5102Z" fill="#E2CCBC"/>
</g>
<path d="M71.9314 105.693C71.9079 107.41 71.2056 109.048 69.9781 110.249C68.7507 111.449 67.0978 112.115 65.3808 112.101H46.0147C45.1435 112.147 44.2722 112.015 43.4537 111.713C42.6352 111.412 41.8867 110.946 41.2538 110.346C40.621 109.746 40.117 109.023 39.7725 108.221C39.4281 107.42 39.2505 106.556 39.2505 105.684C39.2505 104.811 39.4281 103.948 39.7725 103.147C40.117 102.345 40.621 101.622 41.2538 101.022C41.8867 100.421 42.6352 99.9561 43.4537 99.6543C44.2722 99.3526 45.1435 99.2207 46.0147 99.2666H65.3986C67.1142 99.2618 68.7625 99.9339 69.9856 101.137C71.2087 102.34 71.9079 103.977 71.9314 105.693Z" fill="#FFD8B8"/>
<path d="M65.3986 99.2666H55.7067V112.101H65.3986C66.2698 112.147 67.1411 112.015 67.9596 111.713C68.7781 111.412 69.5266 110.946 70.1595 110.346C70.7923 109.746 71.2964 109.023 71.6408 108.221C71.9852 107.42 72.1628 106.556 72.1628 105.684C72.1628 104.811 71.9852 103.948 71.6408 103.147C71.2964 102.345 70.7923 101.622 70.1595 101.022C69.5266 100.421 68.7781 99.9561 67.9596 99.6543C67.1411 99.3526 66.2698 99.2207 65.3986 99.2666Z" fill="#FFBC27"/>
<g style="mix-blend-mode:multiply">
<path d="M46.0147 112.101H65.3987C67.1157 112.115 68.7686 111.449 69.996 110.249C71.2235 109.048 71.9257 107.41 71.9492 105.693H39.4641C39.4876 107.41 40.1899 109.048 41.4173 110.249C42.6448 111.449 44.2977 112.115 46.0147 112.101Z" fill="#E2CCBC"/>
</g>
<path d="M74.9478 79.0599C75.3914 80.7189 75.1621 82.4861 74.3098 83.977C73.4574 85.4679 72.051 86.5619 70.3963 87.0212L51.762 92.3763C50.9521 92.6107 50.1041 92.6833 49.2662 92.59C48.4283 92.4966 47.617 92.2391 46.8786 91.8322C46.1402 91.4252 45.4892 90.8769 44.9627 90.2183C44.4362 89.5598 44.0446 88.8039 43.8102 87.994C43.5758 87.1841 43.5033 86.336 43.5966 85.498C43.69 84.66 43.9475 83.8487 44.3544 83.1102C44.7613 82.3718 45.3096 81.7207 45.9681 81.1942C46.6266 80.6677 47.3823 80.2761 48.1922 80.0416L66.8265 74.6865C67.6468 74.4369 68.5084 74.3521 69.3617 74.4372C70.2149 74.5222 71.0428 74.7753 71.7978 75.1818C72.5528 75.5884 73.2198 76.1403 73.7604 76.8059C74.301 77.4715 74.7046 78.2376 74.9478 79.0599Z" fill="#FFD8B8"/>
<path d="M66.898 74.6865L57.5808 77.3284L61.1506 89.6631L70.4678 87.0212C72.1033 86.5477 73.4838 85.4439 74.3056 83.9526C75.1274 82.4612 75.3231 80.7045 74.8497 79.0688C74.3763 77.4331 73.2726 76.0525 71.7814 75.2307C70.2901 74.4088 68.5335 74.2131 66.898 74.6865Z" fill="#52CCC6"/>
<g style="mix-blend-mode:multiply">
<path d="M51.762 92.3228L70.3964 86.9676C72.051 86.5084 73.4575 85.4143 74.3098 83.9234C75.1622 82.4325 75.3915 80.6654 74.9479 79.0063L43.7122 87.9316C44.2004 89.5794 45.3216 90.9667 46.8303 91.7897C48.339 92.6127 50.1123 92.8044 51.762 92.3228Z" fill="#E2CCBC"/>
</g>
<path d="M62.1144 131.772C61.6703 133.428 60.5901 134.841 59.109 135.703C57.628 136.566 55.8662 136.808 54.2073 136.378L35.4302 131.612C34.6098 131.405 33.8381 131.04 33.1591 130.535C32.4801 130.03 31.9071 129.397 31.4729 128.671C31.0386 127.945 30.7516 127.141 30.6282 126.304C30.5048 125.467 30.5475 124.614 30.7538 123.793C30.96 122.973 31.3259 122.201 31.8304 121.522C32.3349 120.843 32.9682 120.27 33.6942 119.836C34.4201 119.401 35.2245 119.114 36.0614 118.991C36.8983 118.867 37.7512 118.91 38.5716 119.116L57.3487 123.865C58.183 124.067 58.9688 124.433 59.6608 124.941C60.3527 125.449 60.9372 126.089 61.3803 126.825C61.8235 127.56 62.1165 128.376 62.2425 129.225C62.3685 130.074 62.325 130.94 62.1144 131.772Z" fill="#FFD8B8"/>
<path d="M57.3487 123.936L47.9601 121.562L44.8187 134.057L54.2073 136.449C55.0277 136.655 55.8807 136.698 56.7175 136.575C57.5544 136.451 58.3588 136.164 59.0847 135.73C59.8107 135.296 60.444 134.723 60.9485 134.044C61.453 133.365 61.8189 132.593 62.0251 131.772C62.2314 130.952 62.2741 130.099 62.1507 129.262C62.0273 128.425 61.7403 127.621 61.306 126.895C60.8718 126.168 60.2988 125.535 59.6198 125.031C58.9408 124.526 58.1691 124.16 57.3487 123.954V123.936Z" fill="#59230E"/>
<g style="mix-blend-mode:multiply">
<path d="M35.4302 131.612L54.2073 136.342C55.8663 136.773 57.6281 136.53 59.1091 135.668C60.5901 134.805 61.6703 133.392 62.1144 131.737L30.6467 123.847C30.2695 125.51 30.5591 127.254 31.4534 128.706C32.3478 130.158 33.7755 131.201 35.4302 131.612Z" fill="#E2CCBC"/>
</g>
<path d="M1.51718 107.621C0.903764 106.017 0.947727 104.237 1.63955 102.666C2.33138 101.095 3.61515 99.8606 5.21191 99.2309L23.1858 92.0907C23.9675 91.7778 24.8032 91.6219 25.6452 91.6319C26.4871 91.642 27.3189 91.8178 28.0929 92.1493C28.8669 92.4808 29.568 92.9616 30.1563 93.5641C30.7445 94.1666 31.2084 94.8791 31.5213 95.6608C31.8342 96.4426 31.9901 97.2784 31.9801 98.1204C31.97 98.9624 31.7942 99.7942 31.4627 100.568C31.1312 101.342 30.6505 102.044 30.0481 102.632C29.4456 103.22 28.7332 103.684 27.9515 103.997L9.97758 111.137C8.3889 111.788 6.60733 111.783 5.02208 111.124C3.43682 110.465 2.17676 109.206 1.51718 107.621Z" fill="#FFD8B8"/>
<path d="M10.0668 111.137L18.9913 107.567L14.2078 95.6608L5.28328 99.2309C4.50157 99.5439 3.78913 100.008 3.18668 100.596C2.58422 101.184 2.10353 101.886 1.77204 102.66C1.10258 104.223 1.08152 105.988 1.71349 107.567C2.34546 109.146 3.57867 110.409 5.14188 111.079C6.70508 111.748 8.47022 111.769 10.049 111.137H10.0668Z" fill="#FFBC27"/>
<g style="mix-blend-mode:multiply">
<path d="M23.1858 92.0193L5.21191 99.1595C3.61515 99.7892 2.33138 101.024 1.63955 102.595C0.947727 104.166 0.903764 105.946 1.51718 107.549L31.6462 95.4645C30.9732 93.8923 29.7075 92.6488 28.1237 92.0039C26.5398 91.3589 24.7656 91.3645 23.1858 92.0193Z" fill="#E2CCBC"/>
</g>
<path d="M3.71265 45.8401C4.80891 44.5186 6.38361 43.6849 8.09264 43.521C9.80168 43.3571 11.5061 43.8764 12.8335 44.9654L27.898 57.1394C28.6073 57.6502 29.2049 58.3004 29.6543 59.0501C30.1036 59.7998 30.3954 60.6333 30.5116 61.4997C30.6278 62.366 30.5661 63.247 30.3302 64.0886C30.0943 64.9303 29.6891 65.715 29.1396 66.3947C28.59 67.0744 27.9076 67.6348 27.1341 68.0417C26.3605 68.4486 25.512 68.6934 24.6406 68.7611C23.7692 68.8287 22.8932 68.7179 22.0661 68.4354C21.239 68.1529 20.4782 67.7045 19.8303 67.1179L4.71219 54.9438C3.37743 53.8658 2.52322 52.3036 2.33596 50.598C2.1487 48.8924 2.6436 47.182 3.71265 45.8401Z" fill="#FFD8B8"/>
<path d="M4.71215 54.9438L12.2444 61.0308L20.3122 51.0524L12.7799 44.9654C12.132 44.3787 11.3712 43.9304 10.5441 43.6478C9.71698 43.3653 8.84091 43.2545 7.9695 43.3222C7.0981 43.3899 6.24967 43.6347 5.4761 44.0415C4.70254 44.4484 4.0201 45.0089 3.47055 45.6886C2.92099 46.3683 2.51588 47.153 2.27998 47.9946C2.04407 48.8363 1.98234 49.7172 2.09856 50.5836C2.21478 51.4499 2.50652 52.2834 2.95591 53.0332C3.4053 53.7829 4.00289 54.433 4.71215 54.9438Z" fill="#F75F3C"/>
<g style="mix-blend-mode:multiply">
<path d="M27.9158 57.1394L12.8513 44.9654C11.5239 43.8764 9.8195 43.3571 8.11046 43.521C6.40143 43.6849 4.82673 44.5186 3.73047 45.8401L28.9868 66.2432C30.0478 64.8923 30.5308 63.1763 30.3301 61.4703C30.1294 59.7642 29.2614 58.2071 27.9158 57.1394Z" fill="#E2CCBC"/>
</g>
<path d="M53.654 29.2391C54.8292 30.4919 55.4638 32.1571 55.4203 33.8743C55.3769 35.5915 54.659 37.2225 53.422 38.4143L39.4998 51.8914C38.2785 53.075 36.637 53.7248 34.9366 53.698C33.2361 53.6713 31.616 52.97 30.4325 51.7486C29.2491 50.5272 28.5993 48.8856 28.626 47.185C28.6528 45.4844 29.354 43.8641 30.5753 42.6805L44.4797 29.2034C45.0839 28.6023 45.8007 28.1264 46.5891 27.8028C47.3775 27.4792 48.2221 27.3143 49.0743 27.3176C49.9265 27.321 50.7697 27.4924 51.5555 27.8221C52.3414 28.1518 53.0545 28.6333 53.654 29.2391Z" fill="#FFD8B8"/>
<path d="M44.4975 29.2391L37.5364 35.9688L46.4609 45.1796L53.422 38.45C54.6433 37.2664 55.3445 35.6461 55.3712 33.9455C55.398 32.2449 54.7482 30.6034 53.5647 29.3819C52.3813 28.1605 50.7611 27.4592 49.0607 27.4325C47.3603 27.4057 45.7188 28.0556 44.4975 29.2391Z" fill="#52C6A2"/>
<g style="mix-blend-mode:multiply">
<path d="M39.4998 51.8914L53.422 38.4143C54.659 37.2225 55.3769 35.5915 55.4203 33.8743C55.4637 32.1571 54.8292 30.4919 53.654 29.2391L30.3433 51.8378C31.5533 53.0539 33.1951 53.7419 34.9105 53.752C36.6259 53.762 38.2756 53.0932 39.4998 51.8914Z" fill="#E2CCBC"/>
</g>
</g>
<g style="mix-blend-mode:multiply">
<path d="M77.4467 137.056V48.6605C77.4312 43.8302 75.8196 39.1406 72.8626 35.3213C69.9057 31.5021 65.7692 28.7676 61.0971 27.5433V21.849H67.5227V6.03346C67.5214 4.74527 67.1017 3.49236 66.3268 2.46336C66.1311 2.19295 65.9099 1.9419 65.6664 1.71364L65.4879 1.57083C65.2737 1.39233 65.0595 1.21382 64.8275 1.05317L64.4527 0.856812C64.264 0.741482 64.0671 0.640064 63.8637 0.553356C63.6619 0.468901 63.4527 0.403172 63.2389 0.357L62.7749 0.214192C62.3924 0.141579 62.004 0.105719 61.6147 0.107094H38.7323V144.107H71.503L77.4467 137.056Z" fill="#D1C5BD"/>
</g>
</g>
<defs>
<clipPath id="clip0_150_968">
<rect width="78" height="144" fill="white"/>
</clipPath>
</defs>
</svg>
