<svg width="143" height="113" viewBox="0 0 143 113" fill="none" xmlns="http://www.w3.org/2000/svg">
<g clip-path="url(#clip0_150_1115)">
<path d="M103.015 0C85.5958 0 71.4896 12.5092 71.4896 24.3513C71.4896 12.6135 57.3834 0 39.985 0C35.8341 0.0109371 31.726 0.839816 27.8952 2.43936C24.0644 4.0389 20.586 6.37777 17.6586 9.3224C14.7312 12.267 12.4121 15.7598 10.8337 19.6012C9.25536 23.4426 8.44862 27.5575 8.45958 31.7109C8.45958 78.6622 71.4896 113.021 71.4896 113.021C71.4896 113.021 134.52 78.683 134.52 31.7109C134.542 23.3263 131.236 15.2761 125.328 9.32975C119.42 3.38339 111.395 0.0276061 103.015 0Z" fill="#F75F3C"/>
<path d="M103.015 0C85.5958 0 71.4896 12.5092 71.4896 24.3513H87.1377L71.4062 36.2976V113C71.4062 113 134.436 78.6622 134.436 31.69C134.453 23.3235 131.156 15.2912 125.267 9.3517C119.378 3.41224 111.376 0.0496202 103.015 0Z" fill="#C93218"/>
<g style="mix-blend-mode:soft-light">
<path d="M39.985 0C32.8833 0.0174803 25.9949 2.43059 20.4332 6.84932C14.8714 11.268 10.9613 17.4342 9.33472 24.3513H71.4063C71.4063 12.6135 57.3834 0 39.985 0Z" fill="#FFDFDC"/>
</g>
<path d="M71.4063 103.931C58.4461 95.9458 16.1899 67.1954 16.1899 31.7109C16.1817 28.578 16.7909 25.4742 17.9828 22.5772C19.1747 19.6801 20.9258 17.0466 23.1359 14.8274C25.3461 12.6083 27.9718 10.8469 30.863 9.64418C33.7542 8.44147 36.854 7.82103 39.985 7.8183C53.7162 7.8183 63.676 17.7006 63.676 24.3513H79.3033C79.3033 16.8666 89.8881 7.8183 103.015 7.8183C109.321 7.8514 115.356 10.3852 119.797 14.8642C124.238 19.3431 126.723 25.4016 126.706 31.7109C126.706 67.2996 84.4707 95.9666 71.4063 103.931Z" fill="#F75F3C"/>
<g style="mix-blend-mode:multiply">
<path d="M134.52 31.7109C134.542 23.3263 131.236 15.2761 125.328 9.32975C119.42 3.38339 111.395 0.0276061 103.015 0C85.5958 0 71.4896 12.5092 71.4896 24.3513V113C71.4896 113 134.52 78.6622 134.52 31.7109Z" fill="#E2CCBC"/>
</g>
<path d="M77.7405 87.3144L66.2805 66.424L56.1123 86.7515L44.6315 59.9192L35.151 82.0396H0V75.2013H30.6503L44.6315 42.5522L56.5916 70.4895L65.9888 51.7048L76.0111 69.9266L91.9509 18.8889L105.64 75.2013H143V82.0396H100.244L91.1174 44.4703L77.7405 87.3144Z" fill="#FFD8B8"/>
<g style="mix-blend-mode:multiply">
<path d="M35.151 82.0397L44.6315 59.9192L56.1123 86.7515L66.2805 66.424L77.7405 87.3144L91.1174 44.4703L100.244 82.0397H143V78.6205H102.932L91.5342 31.6901L76.8862 78.6205L66.1346 59.0644L56.3624 78.6205L44.6315 51.2253L32.9006 78.6205H0V82.0397H35.151Z" fill="#E2CCBC"/>
</g>
</g>
<defs>
<clipPath id="clip0_150_1115">
<rect width="143" height="113" fill="white"/>
</clipPath>
</defs>
</svg>
