<svg width="129" height="129" viewBox="0 0 129 129" fill="none" xmlns="http://www.w3.org/2000/svg">
<g clip-path="url(#clip0_150_1125)">
<path d="M129 64.4435C129 77.2004 125.217 89.6708 118.13 100.278C111.042 110.885 100.969 119.152 89.1831 124.034C77.3973 128.916 64.4285 130.193 51.9167 127.704C39.4049 125.215 27.9121 119.072 18.8916 110.052C9.87116 101.031 3.72813 89.5386 1.23938 77.0268C-1.24937 64.5151 0.0279454 51.5462 4.9098 39.7604C9.79165 27.9746 18.0588 17.9011 28.6658 10.8137C39.2727 3.72636 51.7431 -0.0565186 64.5 -0.0565186C81.6065 -0.0565186 98.0123 6.73901 110.108 18.8351C122.205 30.9312 129 47.337 129 64.4435Z" fill="#52CCC6"/>
<g style="mix-blend-mode:multiply">
<path d="M129 64.4435C129 47.337 122.204 30.9312 110.108 18.8351C98.0123 6.73901 81.6065 -0.0565186 64.5 -0.0565186V128.943C72.9703 128.943 81.3576 127.275 89.1831 124.034C97.0086 120.792 104.119 116.041 110.108 110.052C116.098 104.062 120.849 96.9521 124.09 89.1266C127.332 81.3011 129 72.9137 129 64.4435Z" fill="#E2CCBC"/>
</g>
<path d="M89.9684 48.3562C87.6425 43.6091 84.0316 39.6098 79.5461 36.8125C75.0606 34.0153 69.8804 32.5325 64.5942 32.5325C59.3079 32.5325 54.1277 34.0153 49.6422 36.8125C45.1567 39.6098 41.5458 43.6091 39.2199 48.3562L37.7129 34.6612C38.0158 32.791 38.5211 30.9593 39.2199 29.1983C39.2199 29.1983 46.0391 15.6729 64.5942 15.6729C83.1492 15.6729 89.9684 29.1983 89.9684 29.1983C90.7683 31.2147 91.3187 33.3213 91.6073 35.4712L89.9684 48.3562Z" fill="#E22379"/>
<g style="mix-blend-mode:multiply">
<path d="M40.3879 27.2204C39.922 27.8168 39.5002 28.4464 39.1258 29.1042C38.427 30.8652 37.9217 32.6969 37.6188 34.5671L39.1258 48.262C41.3703 43.7325 44.7601 39.8686 48.959 37.0536L40.3879 27.2204Z" fill="#E2CCBC"/>
</g>
<path d="M84.8447 113.421L50.24 73.1842C29.9519 49.6372 39.1258 29.1983 39.1258 29.1983L100.216 100.084L84.8447 113.421Z" fill="#F45B95"/>
<g style="mix-blend-mode:multiply">
<path d="M63.0119 56.9084L49.6372 72.4495L50.24 73.1842L65.9883 91.4566L79.3818 75.9156L63.0119 56.9084Z" fill="#E2CCBC"/>
</g>
<g style="mix-blend-mode:multiply">
<path d="M89.9685 48.3561L91.6074 35.4712C91.3187 33.3213 90.7684 31.2147 89.9685 29.1983C89.5941 28.5405 89.1723 27.9109 88.7064 27.3145L80.1353 37.2419C84.3217 40.0308 87.7105 43.861 89.9685 48.3561Z" fill="#E2CCBC"/>
</g>
<path d="M44.1554 113.421L78.7601 73.2783C99.0482 49.7313 89.8743 29.2925 89.8743 29.2925L28.7839 100.084L44.1554 113.421Z" fill="#FF92BC"/>
<g style="mix-blend-mode:multiply">
<path d="M78.7601 73.1842C92.229 57.5489 92.7188 43.3077 91.5131 35.5089C91.5131 35.5089 91.5131 35.3582 91.5131 35.2828L91.3436 34.2845V33.9642C91.3436 33.6063 91.1929 33.2484 91.1176 32.9281C91.1176 32.5702 90.948 32.2312 90.8538 31.9298V31.7225C90.8538 31.4965 90.722 31.2704 90.6655 31.082V30.8748L90.4582 30.272C90.4582 30.0837 90.3264 29.933 90.2887 29.8011C90.251 29.6692 90.2887 29.8011 90.2887 29.6881V29.4809V29.3867C90.2887 29.3867 83.4695 15.8613 64.9144 15.8613V32.8151C70.4354 32.7369 75.8516 34.3256 80.4555 37.3738C81.1148 37.8071 81.6987 38.2592 82.3392 38.7113L64.971 58.8675V89.9496L66.4591 91.6826L85.2967 113.553L100.668 100.367L77.8935 74.1825L78.7601 73.1842Z" fill="#F4B8BB"/>
</g>
</g>
<defs>
<clipPath id="clip0_150_1125">
<rect width="129" height="129" fill="white"/>
</clipPath>
</defs>
</svg>
