<svg width="108" height="143" viewBox="0 0 108 143" fill="none" xmlns="http://www.w3.org/2000/svg">
<g clip-path="url(#clip0_150_1083)">
<path d="M103.069 2.96863H4.93127C2.2078 2.96863 0 5.18118 0 7.9105V138.058C0 140.787 2.2078 143 4.93127 143H103.069C105.792 143 108 140.787 108 138.058V7.9105C108 5.18118 105.792 2.96863 103.069 2.96863Z" fill="#52CCC6"/>
<g style="mix-blend-mode:multiply">
<path d="M103.069 2.96863H4.93122C4.59838 2.97171 4.26628 3.00091 3.93799 3.05595V138.058C3.94256 138.319 4.04921 138.568 4.23498 138.751C4.42075 138.934 4.6708 139.036 4.93122 139.036H103.069C103.329 139.036 103.579 138.934 103.765 138.751C103.951 138.568 104.057 138.319 104.062 138.058V3.05595C103.734 2.99933 103.402 2.97012 103.069 2.96863Z" fill="#E2CCBC"/>
</g>
<path d="M99.2178 17.3926H8.79956V135.771H99.2178V17.3926Z" fill="white"/>
<path d="M93.5896 31.9214C93.5896 33.7069 93.0612 35.4524 92.0713 36.9371C91.0814 38.4218 89.6745 39.5789 88.0284 40.2622C86.3822 40.9455 84.5709 41.1243 82.8234 40.776C81.0758 40.4276 79.4706 39.5678 78.2107 38.3052C76.9509 37.0426 76.0929 35.4339 75.7453 33.6827C75.3977 31.9314 75.576 30.1161 76.2579 28.4665C76.9397 26.8168 78.0944 25.4068 79.5759 24.4148C81.0574 23.4228 82.7991 22.8933 84.5808 22.8933C86.9687 22.8979 89.2574 23.8506 90.9459 25.5427C92.6344 27.2347 93.585 29.5284 93.5896 31.9214Z" fill="#F75F3C"/>
<path d="M90.7318 29.9132H86.5847V25.7571H82.5595V29.9132H78.4298V33.9295H82.5595V38.0856H86.5847V33.9295H90.7318V29.9132Z" fill="white"/>
<path d="M28.9777 57.5912H16.8848V45.4897H28.9777V57.5912ZM18.8538 55.6179H26.9913V47.4629H18.8538V55.6179Z" fill="#635952"/>
<path d="M90.1219 49.5759H33.1597V53.5224H90.1219V49.5759Z" fill="#A3978E"/>
<path d="M28.9777 73.4122H16.8848V61.3107H28.9777V73.4122ZM18.8538 71.4389H26.9913V63.2839H18.8538V71.4389Z" fill="#635952"/>
<path d="M90.1219 65.3969H33.1597V69.3434H90.1219V65.3969Z" fill="#A3978E"/>
<path d="M28.9777 89.2331H16.8848V77.1142H28.9777V89.2331ZM18.8538 87.2599H26.9913V79.1049H18.8538V87.2599Z" fill="#635952"/>
<path d="M90.1219 81.2004H33.1597V85.1469H90.1219V81.2004Z" fill="#A3978E"/>
<path d="M28.9777 105.054H16.8848V92.9352H28.9777V105.054ZM18.8538 103.063H26.9913V94.9084H18.8538V103.063Z" fill="#635952"/>
<path d="M90.1219 97.0214H33.1597V100.968H90.1219V97.0214Z" fill="#A3978E"/>
<path d="M28.9777 120.858H16.8848V108.756H28.9777V120.858ZM18.8538 118.884H26.9913V110.729H18.8538V118.884Z" fill="#635952"/>
<path d="M90.1219 112.842H33.1597V116.806H90.1219V112.842Z" fill="#A3978E"/>
<path d="M81.1306 11.7697C81.1306 14.3017 77.21 16.3798 72.4181 16.3798H35.5818C30.7899 16.3798 26.8693 14.3017 26.8693 11.7697C26.8693 9.23764 30.7899 7.15961 35.5818 7.15961H72.4181C77.21 7.15961 81.1306 9.23764 81.1306 11.7697Z" fill="#A3978E"/>
<path d="M34.9197 11.7697C34.9197 12.2878 34.7664 12.7942 34.4792 13.2249C34.192 13.6557 33.7838 13.9914 33.3062 14.1897C32.8286 14.3879 32.3031 14.4398 31.7961 14.3387C31.289 14.2377 30.8233 13.9882 30.4578 13.6219C30.0922 13.2555 29.8433 12.7888 29.7425 12.2807C29.6416 11.7726 29.6934 11.2459 29.8912 10.7673C30.089 10.2887 30.4241 9.87959 30.8539 9.59177C31.2837 9.30395 31.789 9.15033 32.306 9.15033C32.9992 9.15033 33.664 9.42628 34.1542 9.91751C34.6444 10.4087 34.9197 11.075 34.9197 11.7697Z" fill="#635952"/>
<path d="M33.4386 11.7697C33.4386 11.9942 33.3722 12.2137 33.2477 12.4003C33.1233 12.587 32.9464 12.7325 32.7394 12.8184C32.5325 12.9043 32.3047 12.9268 32.085 12.883C31.8653 12.8392 31.6635 12.7311 31.5051 12.5723C31.3467 12.4136 31.2388 12.2113 31.1951 11.9911C31.1514 11.771 31.1738 11.5427 31.2596 11.3353C31.3453 11.1279 31.4905 10.9507 31.6767 10.826C31.863 10.7012 32.082 10.6346 32.306 10.6346C32.4547 10.6346 32.602 10.664 32.7394 10.7211C32.8768 10.7781 33.0017 10.8617 33.1069 10.9671C33.212 11.0725 33.2955 11.1976 33.3524 11.3353C33.4093 11.4731 33.4386 11.6207 33.4386 11.7697Z" fill="#A3978E"/>
<path d="M78.3775 11.7697C78.381 12.2919 78.2296 12.8034 77.9426 13.2394C77.6556 13.6753 77.2459 14.016 76.7654 14.2182C76.2849 14.4205 75.7553 14.4752 75.2438 14.3754C74.7323 14.2757 74.2618 14.0259 73.892 13.6579C73.5223 13.2898 73.27 12.82 73.1671 12.308C73.0641 11.7961 73.1152 11.265 73.3138 10.7822C73.5125 10.2993 73.8497 9.88647 74.2827 9.59595C74.7158 9.30543 75.2252 9.15034 75.7463 9.15033C76.4411 9.15031 77.1078 9.42571 77.6007 9.91644C78.0936 10.4072 78.3729 11.0734 78.3775 11.7697Z" fill="#635952"/>
<path d="M76.8442 11.7697C76.8476 11.9984 76.7831 12.2229 76.6589 12.4147C76.5346 12.6065 76.3562 12.7569 76.1464 12.8468C75.9366 12.9368 75.7049 12.9621 75.4806 12.9196C75.2564 12.8771 75.0498 12.7688 74.8872 12.6083C74.7247 12.4479 74.6134 12.2425 74.5676 12.0185C74.5218 11.7945 74.5435 11.5619 74.63 11.3502C74.7165 11.1386 74.8639 10.9576 75.0534 10.8302C75.2429 10.7027 75.4659 10.6347 75.6941 10.6346C75.8443 10.6323 75.9935 10.66 76.1329 10.716C76.2723 10.772 76.3992 10.8552 76.5063 10.9608C76.6133 11.0665 76.6983 11.1924 76.7563 11.3312C76.8143 11.4701 76.8442 11.6192 76.8442 11.7697Z" fill="#A3978E"/>
<path d="M61.1442 6.25156C60.9173 4.51594 60.0682 2.92226 58.7553 1.7677C57.4424 0.613134 55.7554 -0.0234985 54.0087 -0.0234985C52.262 -0.0234985 50.5749 0.613134 49.262 1.7677C47.9491 2.92226 47.1001 4.51594 46.8732 6.25156H61.1442Z" fill="#D1C5BD"/>
<path d="M71.5121 5.4483H36.5054V18.126H71.5121V5.4483Z" fill="#A3978E"/>
<path d="M71.5121 9.63928H36.5054V12.4857H71.5121V9.63928Z" fill="#D1C5BD"/>
<g style="mix-blend-mode:multiply">
<path d="M71.5121 14.3367H36.5054V18.126H71.5121V14.3367Z" fill="#D3D3D3"/>
</g>
<path d="M22.9139 60.2629L16.9894 51.619L19.6031 49.8204L22.426 53.9241L27.3921 43.4641L30.2672 44.8436L22.9139 60.2629Z" fill="#52C6A2"/>
<path d="M29.1345 64.5063L26.3465 61.6949L23.1752 64.873L20.0038 61.6949L17.2158 64.5063L20.3872 67.667L17.2158 70.8452L20.0038 73.6392L23.1752 70.461L26.3465 73.6392L29.1345 70.8452L25.9632 67.667L29.1345 64.5063Z" fill="#F75F3C"/>
<path d="M22.9139 91.9049L16.9894 83.261L19.6031 81.4624L22.426 85.5486L27.3921 75.106L30.2672 76.4681L22.9139 91.9049Z" fill="#52C6A2"/>
<path d="M79.5624 132.889C78.6389 132.802 80.0503 127.179 80.0503 127.179C80.0828 127.026 80.1235 126.874 80.1723 126.725C80.2533 126.222 80.2533 125.709 80.1723 125.206L79.9284 125.538C79.5908 126.031 79.3047 126.557 79.0745 127.109C79.2589 128.214 79.1691 129.348 78.8131 130.41C78.5169 131.003 78.6389 131.108 77.7851 131.23C76.9313 131.353 76.5653 130.34 76.5653 130.34C76.4444 129.159 76.5872 127.966 76.9835 126.847C76.9233 126.313 76.836 125.783 76.7221 125.258C76.0486 126.024 75.5545 126.931 75.2759 127.912H73.15C73.4347 126.207 74.2887 124.65 75.5721 123.494C75.8278 123.252 76.1339 123.07 76.4685 122.962C76.803 122.853 77.1575 122.82 77.5063 122.866C77.6576 122.917 77.7991 122.994 77.9245 123.093C78.0549 123.183 78.1624 123.303 78.2381 123.442C78.3245 123.614 78.3888 123.796 78.4298 123.983C79.1473 123.269 80.1031 122.846 81.1133 122.796C81.3093 122.846 81.4879 122.948 81.6293 123.093C81.7708 123.238 81.8696 123.419 81.9148 123.617C81.9148 123.943 81.9671 124.257 82.0716 124.56C82.7168 124.117 83.4855 123.891 84.2672 123.914C84.6494 123.966 85.0112 124.118 85.3169 124.354C85.6225 124.589 85.8614 124.901 86.0097 125.258C86.2214 125.147 86.4201 125.012 86.6021 124.857C87.1904 124.304 87.9572 123.982 88.7628 123.948C89.1101 123.952 89.4534 124.023 89.7735 124.158H89.8954C90.3684 124.237 90.8512 124.237 91.3243 124.158L92.2478 124.071L92.3349 126.131H91.5334C90.8365 126.261 90.1218 126.261 89.4249 126.131L88.9719 125.974C88.909 125.958 88.8431 125.958 88.7802 125.974C88.4666 125.974 88.2575 126.131 87.8742 126.428C87.4588 126.783 86.9798 127.056 86.4627 127.231C86.2424 127.317 86.007 127.356 85.771 127.347C85.5349 127.339 85.3032 127.282 85.0897 127.181C84.8762 127.079 84.6854 126.936 84.5291 126.758C84.3727 126.581 84.2539 126.374 84.18 126.149C84.1341 126.049 84.0755 125.955 84.0058 125.869C83.2223 126.084 82.5419 126.573 82.089 127.249C82.0588 127.386 82.018 127.52 81.9671 127.651C81.9671 127.651 80.5034 132.959 79.5624 132.889Z" fill="#52CCC6"/>
<g style="mix-blend-mode:multiply">
<path d="M53.9825 143.035H103.051C104.358 143.03 105.609 142.508 106.533 141.582C107.457 140.657 107.978 139.402 107.983 138.093V7.91049C107.982 6.7711 107.591 5.66648 106.874 4.78238C106.157 3.89827 105.158 3.28862 104.045 3.05593C103.716 2.99931 103.384 2.9701 103.051 2.96861H59.7676C59.109 2.05198 58.2428 1.30497 57.2402 0.788922C56.2376 0.272872 55.1271 0.0024975 54 0L53.9825 143.035Z" fill="#D1C5BD"/>
</g>
</g>
<defs>
<clipPath id="clip0_150_1083">
<rect width="108" height="143" fill="white"/>
</clipPath>
</defs>
</svg>
