<svg width="178" height="178" viewBox="0 0 178 178" fill="none" xmlns="http://www.w3.org/2000/svg">
<path d="M22.25 89C14.0916 89 7.41663 82.325 7.41663 74.1667V37.0833C7.41663 28.925 14.0916 22.25 22.25 22.25H81.5833C89.7416 22.25 96.4166 28.925 96.4166 37.0833V74.1667C96.4166 82.325 89.7416 89 81.5833 89H66.75V111.25L44.5 89H22.25ZM155.75 133.5C163.908 133.5 170.583 126.825 170.583 118.667V81.5833C170.583 73.425 163.908 66.75 155.75 66.75H111.25V74.1667C111.25 90.4833 97.9 103.833 81.5833 103.833V118.667C81.5833 126.825 88.2583 133.5 96.4166 133.5H111.25V155.75L133.5 133.5H155.75Z" fill="url(#paint0_linear_150_1145)"/>
<defs>
<linearGradient id="paint0_linear_150_1145" x1="89" y1="22.25" x2="89" y2="155.75" gradientUnits="userSpaceOnUse">
<stop stop-color="#00781E"/>
<stop offset="0.9375" stop-color="#52CF6F"/>
</linearGradient>
</defs>
</svg>
