<svg width="99" height="99" viewBox="0 0 99 99" fill="none" xmlns="http://www.w3.org/2000/svg">
<path d="M36.3 46.2C31.9239 46.2 27.727 44.4616 24.6327 41.3673C21.5383 38.2729 19.8 34.0761 19.8 29.7V16.5C19.8 15.6248 20.1476 14.7854 20.7665 14.1665C21.3854 13.5477 22.2247 13.2 23.1 13.2H26.4C27.2752 13.2 28.1145 12.8523 28.7334 12.2335C29.3523 11.6146 29.7 10.7752 29.7 9.9C29.7 9.02478 29.3523 8.18542 28.7334 7.56655C28.1145 6.94768 27.2752 6.6 26.4 6.6H23.1C20.4743 6.6 17.9562 7.64303 16.0996 9.49964C14.243 11.3563 13.2 13.8744 13.2 16.5V29.7C13.2042 33.4281 14.1133 37.0995 15.8492 40.3989C17.5851 43.6982 20.0959 46.5269 23.166 48.642C26.1156 51.2425 28.5077 54.4137 30.1979 57.9642C31.8881 61.5147 32.8413 65.3709 33 69.3C33 75.4265 35.4337 81.3021 39.7658 85.6342C44.0979 89.9663 49.9734 92.4 56.0999 92.4C62.2265 92.4 68.102 89.9663 72.4341 85.6342C76.7662 81.3021 79.2 75.4265 79.2 69.3V65.538C82.3107 64.7348 85.0218 62.8246 86.8249 60.1656C88.6281 57.5065 89.3996 54.2811 88.9947 51.0939C88.5899 47.9067 87.0366 44.9766 84.6259 42.8527C82.2152 40.7289 79.1127 39.5572 75.9 39.5572C72.6872 39.5572 69.5847 40.7289 67.174 42.8527C64.7633 44.9766 63.21 47.9067 62.8052 51.0939C62.4003 54.2811 63.1718 57.5065 64.975 60.1656C66.7781 62.8246 69.4892 64.7348 72.5999 65.538V69.3C72.5999 73.6761 70.8616 77.8729 67.7672 80.9673C64.6729 84.0616 60.476 85.8 56.0999 85.8C51.7239 85.8 47.527 84.0616 44.4327 80.9673C41.3383 77.8729 39.6 73.6761 39.6 69.3C39.767 65.3661 40.7305 61.5069 42.4322 57.9561C44.1338 54.4053 46.5383 51.2367 49.5 48.642C52.5578 46.5196 55.0558 43.6877 56.7799 40.3888C58.5041 37.0899 59.4031 33.4223 59.4 29.7V16.5C59.4 13.8744 58.3569 11.3563 56.5003 9.49964C54.6437 7.64303 52.1256 6.6 49.5 6.6H46.2C45.3247 6.6 44.4854 6.94768 43.8665 7.56655C43.2476 8.18542 42.9 9.02478 42.9 9.9C42.9 10.7752 43.2476 11.6146 43.8665 12.2335C44.4854 12.8523 45.3247 13.2 46.2 13.2H49.5C50.3752 13.2 51.2145 13.5477 51.8334 14.1665C52.4523 14.7854 52.7999 15.6248 52.7999 16.5V29.7C52.7999 31.8668 52.3732 34.0124 51.544 36.0143C50.7148 38.0161 49.4994 39.8351 47.9672 41.3673C46.435 42.8994 44.6161 44.1148 42.6142 44.944C40.6124 45.7732 38.4668 46.2 36.3 46.2ZM75.9 59.4C74.1495 59.4 72.4708 58.7046 71.233 57.4669C69.9953 56.2292 69.2999 54.5504 69.2999 52.8C69.2999 51.0496 69.9953 49.3708 71.233 48.1331C72.4708 46.8954 74.1495 46.2 75.9 46.2C77.6504 46.2 79.3291 46.8954 80.5669 48.1331C81.8046 49.3708 82.4999 51.0496 82.4999 52.8C82.4999 54.5504 81.8046 56.2292 80.5669 57.4669C79.3291 58.7046 77.6504 59.4 75.9 59.4Z" fill="url(#paint0_linear_150_258)"/>
<defs>
<linearGradient id="paint0_linear_150_258" x1="51.15" y1="6.6" x2="51.15" y2="92.4" gradientUnits="userSpaceOnUse">
<stop stop-color="#00781E"/>
<stop offset="0.9375" stop-color="#52CF6F"/>
</linearGradient>
</defs>
</svg>
