<?xml version="1.0" encoding="utf-8"?>
<!-- Generator: Adobe Illustrator 27.2.0, SVG Export Plug-In . SVG Version: 6.00 Build 0)  -->
<svg version="1.1" id="Layer_1" xmlns="http://www.w3.org/2000/svg" xmlns:xlink="http://www.w3.org/1999/xlink" x="0px" y="0px"
	 viewBox="0 0 287 318" style="enable-background:new 0 0 287 318;" xml:space="preserve">
<style type="text/css">
	.st0{fill:#FFFFFF;}
	.st1{fill:none;stroke:#DADADA;}
	.st2{fill:none;}
	.st3{opacity:0.1;fill:#A0BFE4;}
	.st4{fill:#3C8F7C;}
	.st5{fill:#98D5C7;}
	.st6{fill:#51C0A5;}
	.st7{fill:#51BFA4;}
	.st8{fill:#0D2E35;}
	.st9{fill:#F8CC7F;}
	.st10{fill:#F37458;}
	.st11{fill:#3AB2C4;}
	.st12{fill:#F79C8D;}
	.st13{fill:#F58D80;}
	.st14{fill:#F8A491;}
	.st15{fill:#13375B;}
	.st16{fill:#34548A;}
	.st17{fill:#F9E0B2;}
	.st18{fill:#F7A490;}
	.st19{fill:#B85742;}
	.st20{opacity:0.5;fill:#3AB2C4;}
	.st21{fill:#E77B50;}
	.st22{fill:#F2F9FD;}
	.st23{opacity:0.3;fill:#D9EDF5;}
	.st24{opacity:0.2;fill:#3AB2C4;}
	.st25{fill:#A0BFE4;}
	.st26{fill:#E6B96F;}
	.st27{fill:#276754;}
	.st28{opacity:0.3;fill:#3C8F7C;}
	.st29{fill:#DC5239;}
	.st30{fill:#6DAFB4;}
	.st31{fill:#345489;}
	.st32{fill:#8CB0DD;}
	.st33{fill:#194655;}
	.st34{fill:#F7A391;}
	.st35{fill:#F27458;}
</style>
<g>
	<path class="st0" d="M22,6h245c6.6,0,12,5.4,12,12v276c0,6.6-5.4,12-12,12H22c-6.6,0-12-5.4-12-12V18C10,11.4,15.4,6,22,6z"/>
	<path class="st1" d="M22,6.5h245c6.4,0,11.5,5.1,11.5,11.5v276c0,6.4-5.1,11.5-11.5,11.5H22c-6.4,0-11.5-5.1-11.5-11.5V18
		C10.5,11.6,15.6,6.5,22,6.5z"/>
</g>
<rect x="173.1" y="193.4" class="st2" width="69.8" height="69.8"/>
<g>
	<path class="st3" d="M97.8,67.8c39.2-2.3,80.4,9.6,74.3,26.8c-6,17.2,32.3-6.1,47.7,0.1c10.9,4.4,6.5,17.8,11.8,23.3
		c12.1,12.4,24.5-3.2,39.9,6.2c15.4,9.4-16.1,96.9-32.2,97.4l-183.4-1.1l-13.2-1.2c0,0-36.4-19.9-10.4-38.3
		c17.6-12.4,4.9-21.4,3-27.1c-2.2-6.5-7.3-17.9,15-26.3s16.6-26.6,16-30.3C65.9,93.3,58.6,70,97.8,67.8L97.8,67.8z"/>
	<g>
		<g>
			<path class="st4" d="M53.2,181.6c-4.2-6.3-5.2-14-5.4-19.4c-0.1-5.8,0.8-10.3,0.8-10.3l-0.3-0.1c0,0-0.9,4.5-0.8,10.4
				c0.1,5.4,1.1,13.3,5.4,19.6L53.2,181.6z"/>
		</g>
		<g>
			<path class="st4" d="M49.6,150.8c-0.1,1.3-0.6,2.5-1.4,3.2c-0.7-0.9-1.2-2.1-1.1-3.5c0.1-1.3,0.6-2.5,1.4-3.2
				C49.2,148.2,49.6,149.5,49.6,150.8z"/>
		</g>
		<g>
			<path class="st4" d="M47,153.9c0.7,1.1,1,2.4,0.8,3.6c-1-0.2-2.1-0.9-2.8-2.1c-0.7-1.1-1-2.4-0.8-3.6
				C45.3,152.1,46.3,152.8,47,153.9z"/>
		</g>
		<g>
			<path class="st4" d="M45.6,157.6c1.1,0.7,1.8,1.7,2.1,2.9c-1,0.3-2.2,0.2-3.2-0.5c-1.1-0.7-1.8-1.7-2.1-2.9
				C43.4,156.8,44.5,156.9,45.6,157.6z"/>
		</g>
		<g>
			<path class="st4" d="M46.3,162.6c0.9,0.5,1.4,1.5,1.6,2.5c-0.9,0.4-1.8,0.4-2.7-0.1c-0.9-0.5-1.4-1.5-1.6-2.5
				C44.4,162,45.4,162,46.3,162.6z"/>
		</g>
		<g>
			<path class="st4" d="M49.5,156.5c0.9-0.5,2-0.6,2.9-0.3c-0.2,1-0.8,1.9-1.7,2.5c-0.9,0.5-2,0.6-2.9,0.3
				C48,158,48.6,157.1,49.5,156.5z"/>
		</g>
		<g>
			<path class="st4" d="M49.5,160c0.9-0.5,2-0.6,2.9-0.3c-0.2,1-0.8,1.9-1.7,2.5c-0.9,0.5-2,0.6-2.9,0.3
				C48,161.4,48.6,160.5,49.5,160z"/>
		</g>
	</g>
	<g>
		<g>
			<path class="st5" d="M48.9,212.5c-8.8-3.2-15-10.9-18.7-16.8c-3.9-6.4-5.8-12.1-5.8-12.1l-0.4,0.2c0,0.1,1.9,5.8,5.9,12.2
				c3.7,5.9,9.9,13.7,18.9,17L48.9,212.5z"/>
		</g>
		<g>
			<path class="st5" d="M24.7,181.5c0.8,1.5,0.9,3.2,0.5,4.7c-1.4-0.3-2.7-1.3-3.5-2.9c-0.8-1.5-0.9-3.2-0.5-4.7
				C22.6,179,23.9,180,24.7,181.5z"/>
		</g>
		<g>
			<path class="st5" d="M23.9,187.3c1.5,0.6,2.7,1.8,3.2,3.2c-1.3,0.7-2.9,0.8-4.5,0.2c-1.5-0.6-2.7-1.8-3.2-3.2
				C20.7,186.9,22.3,186.7,23.9,187.3z"/>
		</g>
		<g>
			<path class="st5" d="M24.7,192.6c1.6-0.2,3.2,0.3,4.3,1.3c-0.9,1.2-2.3,2.1-4,2.4c-1.6,0.2-3.2-0.3-4.3-1.3
				C21.6,193.7,23,192.8,24.7,192.6z"/>
		</g>
		<g>
			<path class="st5" d="M27.8,197.7c1.6-0.2,3.2,0.3,4.3,1.3c-0.9,1.2-2.3,2.1-4,2.4c-1.6,0.2-3.2-0.3-4.3-1.3
				C24.7,198.8,26.1,197.9,27.8,197.7z"/>
		</g>
		<g>
			<path class="st5" d="M27.5,189.8c0.1-1.6,0.8-3,1.7-4c0.9,1,1.4,2.4,1.3,4c-0.1,1.6-0.8,3-1.7,4
				C27.9,192.8,27.4,191.4,27.5,189.8z"/>
		</g>
		<g>
			<path class="st5" d="M30.8,195.1c0.1-1.6,0.7-3.1,1.7-4.1c0.9,0.9,1.4,2.4,1.4,4c-0.1,1.6-0.7,3.1-1.7,4.1
				C31.2,198.1,30.7,196.7,30.8,195.1z"/>
		</g>
		<g>
			<path class="st5" d="M33.1,202.9c0.6-0.3,1.3-0.3,1.9-0.1c-0.2,0.7-0.6,1.2-1.2,1.6c-0.6,0.3-1.3,0.3-1.9,0.1
				C32,203.9,32.5,203.3,33.1,202.9z"/>
		</g>
	</g>
	<path class="st4" d="M70.1,204c0,0,6.9-15.2,4.6-18.6c-3.2-4.7-7.1,9.7-7.3,8.4c-1.8-11.9-1.4-27-9.9-29.2
		c-4.8-1.3,0.3,11.2-0.3,14.5c-0.6,3.2-8.6-8.3-13.6-14.4c-5-6.1-8-2.7-5.1,4.7c2.8,7.2,12.8,15.5,10.6,16.3
		c-2.3,0.7-14.9-9.2-16.8-5.6c-2.3,4.5,17.1,12.4,15.2,13.3c-2,0.9-11.2-3.3-11.2,0.3c0,3.6,12.8,4.5,12.5,6
		c-0.5,2.5-8.6-3.9-9.2-0.4c-0.6,3.6,10.9,3.8,10.5,6.6c-0.2,1.6-3.1-0.1-3.7,2.1c-1.2,5,17,12.1,17,12.1L70.1,204z"/>
	<path class="st5" d="M82.5,207.3c2.8,1.3,2,4.5,2,4.5s7.5-5.9,10.3-2.4c2.8,3.4,1.3,10.1-2,11.2c-3.3,1.1-31.9,0.3-31.9,0.3
		S80,206.2,82.5,207.3z"/>
	<g>
		<g>
			<g>
				<path class="st6" d="M62.9,215.6l0.3-0.2c-6-7.3-8.6-16.5-9.7-22.9c-1.2-7-0.9-12.2-0.9-12.3l-0.4-0.1c0,0.1-0.2,5.4,0.9,12.4
					C54.3,198.9,56.8,208.2,62.9,215.6z"/>
			</g>
			<g>
				<path class="st6" d="M53.4,179c0.2,1.6-0.2,2.9-1,3.8c-1-1-1.7-2.5-1.9-4.1c-0.2-1.6,0.2-2.9,1-3.8
					C52.5,175.9,53.2,177.4,53.4,179z"/>
			</g>
			<g>
				<path class="st6" d="M51,182.7c1,1.3,1.6,2.8,1.6,4.2c-1.2-0.2-2.6-1-3.6-2.3c-1-1.3-1.6-2.8-1.6-4.2
					C48.7,180.6,50,181.4,51,182.7z"/>
			</g>
			<g>
				<path class="st6" d="M50.1,187.1c1.4,0.8,2.4,2,3,3.3c-1.1,0.4-2.5,0.3-3.8-0.4c-1.4-0.8-2.4-2-3-3.3
					C47.3,186.2,48.7,186.3,50.1,187.1z"/>
			</g>
			<g>
				<path class="st6" d="M52.5,194.3c0.6,0.3,1.1,0.8,1.3,1.3c-0.4,0.2-1,0.2-1.6-0.1c-0.6-0.3-1.1-0.8-1.3-1.3
					C51.3,194,51.9,194,52.5,194.3z"/>
			</g>
			<g>
				<path class="st6" d="M53.2,197c0.6,0.3,1.1,0.8,1.3,1.3c-0.4,0.2-1,0.2-1.6-0.1c-0.6-0.3-1.1-0.8-1.3-1.3
					C52.1,196.7,52.7,196.7,53.2,197z"/>
			</g>
			<g>
				<path class="st6" d="M54.4,185.6c1-0.7,2.2-0.8,3.3-0.4c-0.1,1.2-0.6,2.3-1.5,3c-1,0.7-2.2,0.8-3.3,0.4
					C52.9,187.5,53.4,186.3,54.4,185.6z"/>
			</g>
			<g>
				<path class="st6" d="M55,189.8c1-0.7,2.2-0.8,3.3-0.4c-0.1,1.2-0.6,2.3-1.5,3s-2.2,0.8-3.3,0.4C53.5,191.6,54,190.4,55,189.8z"
					/>
			</g>
			<g>
				<path class="st6" d="M55.4,195.7c0.6-0.4,1.4-0.5,2.1-0.3c0,0.8-0.4,1.5-1,2c-0.6,0.4-1.4,0.5-2.1,0.3
					C54.4,196.9,54.8,196.2,55.4,195.7z"/>
			</g>
		</g>
	</g>
	<path class="st7" d="M67.5,221.1c0,0-8.8-11.3-12.5-13c-3.9-1.8-0.5,4.5-0.5,4.5s-8.4-8.2-10.3-6.2c-2,2.1,0.1,4,0.1,4
		s-7-1.3-8,1.3c-1.6,4,10,6,10,6s-5.5-1.2-4.4,1.3C43.4,222.8,67.5,221.1,67.5,221.1z"/>
	<path class="st5" d="M36.2,211.7c1-2.6,8-1.3,8-1.3s-2.1-1.9-0.1-4c2-2.1,8.5,2.8,8.5,2.8s-1-4.5,3.9-1
		c3.5,2.5,10.3,11.8,10.3,11.8L36.2,211.7z"/>
	<g>
		<g>
			<path class="st7" d="M61,220.9c0,0,14,1,16.7-1.5c2.7-2.5,0-7,0-7s4.8-3.8,4.7-6.3c-0.1-2.5-3.2-1.2-3.2-1.2s5.3-6.8,4-8.1
				c-2.3-2.4-8.5,4.7-8.5,4.7s1.8-3.4-0.1-3.9c-2.9-0.8-5,7.5-5,7.5s0.5-3.3-1.5-2.9C64.7,202.9,61,220.9,61,220.9z"/>
		</g>
	</g>
	<polygon class="st8" points="72.6,221.1 71.4,221.1 75.8,198.4 76.8,198.6 	"/>
	<path class="st7" d="M203.6,182.3l1.1-2.7c0.9-2,3.1-3,5-2.2l0,0c4.8,2.1,6.8,7.9,4.6,13l-1.6,3.7c-0.7,1.6-0.5,3.4,0.5,4.7
		c0.9,1.1,1,2.7,0.4,4.1l-0.9,2c-0.9,2.1-2.7,3.7-4.8,4.3c-1.2,0.4-2.3,1.3-2.9,2.7l-1.2,2.8c-1.3,3.1-4.7,4.5-7.6,3.3l-1.6-0.7
		c-2.9-1.3-4.1-4.8-2.8-7.8l0,0c2.2-3.7,2-6.4,1.2-8.3c-1.1-2.7-1.1-5.9,0.1-8.7l0.2-0.4c1.3-2.9,3.8-5.2,6.7-6.1
		C201.3,185.5,202.7,184.5,203.6,182.3z"/>
	<path class="st5" d="M183.1,220.8c2.3-3,15.2-19,23.4-21.7c9.1-3,0.5,8.8,0.5,8.8s16.2-17.8,22.1-16.2c5.4,1.5,0,12.5,0,12.5
		s6.1-6.1,13.6-6.1c7.2,0-5,22.2-5.7,23.3L183.1,220.8z"/>
	<g>
		<g>
			<path class="st4" d="M231.9,186.6c-6.6,10.4-11.4,22.4-14.2,34.6l-0.7,0c2.7-12,7.7-24.1,14.3-34.5c1.5-2.4,3.2-5.3,6.1-6.2
				c0.1,0,0.1,0.1,0,0.1C234.9,181.7,233.3,184.4,231.9,186.6z"/>
		</g>
		<g>
			<path class="st4" d="M219.2,221.3c7.4-10.1,16.5-19.5,27.2-27.6c0.1-0.1,0.3,0.1,0.1,0.2c-10.1,7.8-19.1,17-26.6,27.4
				L219.2,221.3z"/>
		</g>
		<path class="st4" d="M232.5,180.2c0.2,0.3,0.8,0.9,1,1.8c0.3,0.8,0.1,1.8,0,1.8c0,0,0.8-0.7,1-1.7c0.3-1,0.1-2.5-0.3-3
			c-0.7-1.1-1.9-1.2-2.2-0.7C231.8,178.9,232.2,179.6,232.5,180.2z"/>
		<path class="st4" d="M234.1,189.4c-0.2-0.2-0.9-0.8-1.7-1.1c-0.8-0.3-1.8-0.1-1.8-0.1c0,0,0.7-0.7,1.8-1c1-0.3,2.5,0,2.9,0.4
			c1.1,0.7,1.1,1.9,0.6,2.2C235.3,190.1,234.6,189.8,234.1,189.4z"/>
		<path class="st4" d="M231.7,193.5c-0.2-0.2-0.9-0.8-1.7-1.1c-0.8-0.3-1.8-0.1-1.8-0.1c0,0,0.7-0.7,1.8-1c1-0.3,2.5,0,2.9,0.4
			c1.1,0.7,1.1,1.9,0.6,2.2C233,194.2,232.3,193.9,231.7,193.5z"/>
		<path class="st4" d="M240.2,202.9c-0.2-0.2-0.9-0.8-1.7-1.1c-0.8-0.3-1.8-0.1-1.8-0.1c0,0,0.7-0.7,1.8-1c1-0.3,2.5,0,2.9,0.4
			c1.1,0.7,1.1,1.9,0.6,2.2C241.5,203.6,240.8,203.3,240.2,202.9z"/>
		<path class="st4" d="M244.6,199.1c-0.2-0.2-0.9-0.8-1.7-1.1c-0.8-0.3-1.8-0.1-1.8-0.1c0,0,0.7-0.7,1.8-1c1-0.3,2.5,0,2.9,0.4
			c1.1,0.7,1.1,1.9,0.6,2.2C245.8,199.7,245.1,199.4,244.6,199.1z"/>
		<path class="st4" d="M229.2,184.8c0.2,0.2,1,0.8,1.3,1.6c0.4,0.8,0.3,1.8,0.3,1.8c0,0,0.6-0.8,0.7-1.9c0.2-1.1-0.3-2.5-0.8-2.9
			c-0.9-1-2.1-0.9-2.2-0.3C228.3,183.6,228.7,184.3,229.2,184.8z"/>
		<path class="st4" d="M225.6,189.4c0.3,0.2,1.3,0.4,1.8,1.2c0.6,0.7,0.7,1.9,0.6,1.8c-0.1,0.1,0.7-1.1,0.7-2.4
			c0.1-1.3-0.7-2.6-1.3-2.9c-1.2-0.7-2.8-0.1-2.9,0.6C224.4,188.4,225,189,225.6,189.4z"/>
		<path class="st4" d="M221.9,196.3c0.3,0.1,1.4,0.2,2,0.9c0.7,0.6,1,1.7,0.9,1.7c0,0.1,0.5-1.2,0.3-2.5c-0.1-1.3-1.1-2.5-1.8-2.6
			c-1.3-0.5-2.8,0.4-2.8,1.1C220.6,195.6,221.3,196.1,221.9,196.3z"/>
		<path class="st4" d="M232.9,201.2c0.2,0.1,1.1,0.4,1.4,1.1c0.4,0.6,0.4,1.6,0.4,1.5c0,0,0.7-0.9,0.7-1.9c0.1-1-0.4-2.2-0.9-2.4
			c-1-0.6-2.3-0.2-2.4,0.3C231.9,200.4,232.4,200.8,232.9,201.2z"/>
		<path class="st4" d="M238.6,181.8c-0.1-0.1-0.5-0.5-1-0.7c-0.5-0.2-1.1-0.1-1.1-0.1c0,0,0.4-0.4,1.1-0.5c0.6-0.1,1.5,0.1,1.7,0.3
			c0.6,0.5,0.6,1.2,0.3,1.3C239.3,182.3,238.9,182,238.6,181.8z"/>
		<path class="st4" d="M237.3,178.9c0,0.2,0.1,0.7,0,1.2c-0.1,0.5-0.6,0.9-0.6,0.9c0,0,0.6-0.1,1.1-0.6c0.5-0.4,0.8-1.2,0.8-1.6
			c0-0.8-0.6-1.2-0.9-1C237.3,178,237.3,178.5,237.3,178.9z"/>
		<path class="st4" d="M247.7,195.1c-0.1-0.1-0.5-0.5-1-0.7c-0.5-0.2-1.1-0.1-1.1-0.1c0,0,0.4-0.4,1.1-0.5c0.6-0.1,1.5,0.1,1.7,0.3
			c0.6,0.5,0.6,1.2,0.3,1.3C248.4,195.6,248,195.4,247.7,195.1z"/>
		<path class="st4" d="M246.1,192.2c0,0.2,0.2,0.7,0,1.2c-0.1,0.5-0.5,1-0.5,1c0,0,0.6-0.1,1-0.6c0.5-0.5,0.7-1.3,0.6-1.6
			c-0.1-0.8-0.7-1.2-1-0.9C246.1,191.3,246.1,191.8,246.1,192.2z"/>
	</g>
	<path class="st4" d="M238.9,209.3c0,0.3,0.3,1.1,0.2,1.9c-0.1,0.8-0.7,1.6-0.7,1.5c0,0,0.9-0.3,1.5-1.1c0.7-0.7,1.1-2,0.9-2.6
		c-0.2-1.2-1.1-1.8-1.5-1.4C238.9,208,238.8,208.7,238.9,209.3z"/>
	<path class="st4" d="M232.9,211.5c0,0.3,0.3,1.1,0.2,1.9c-0.1,0.8-0.7,1.6-0.7,1.5c0,0,0.9-0.3,1.5-1.1c0.7-0.7,1.1-2,0.9-2.6
		c-0.2-1.2-1.1-1.8-1.5-1.4C232.9,210.2,232.9,210.9,232.9,211.5z"/>
	<path class="st4" d="M226.9,214.2c0,0.3,0.3,1.1,0.2,1.9c-0.1,0.8-0.7,1.6-0.7,1.5c0,0,0.9-0.3,1.5-1.1c0.7-0.7,1.1-2,0.9-2.6
		c-0.2-1.2-1.1-1.8-1.5-1.4C226.9,212.9,226.8,213.6,226.9,214.2z"/>
	<path class="st4" d="M240.7,214.9c-0.1-0.2-0.4-1-0.9-1.5c-0.5-0.5-1.4-0.8-1.4-0.7c0,0,0.8-0.3,1.7-0.1c0.9,0.2,1.9,0.9,2.1,1.4
		c0.5,1,0.1,1.9-0.4,1.9C241.4,215.9,241,215.4,240.7,214.9z"/>
	<path class="st4" d="M234.5,217.1c-0.1-0.2-0.4-1-0.9-1.5c-0.5-0.5-1.4-0.8-1.4-0.7c0,0,0.8-0.3,1.7-0.1c0.9,0.2,1.9,0.9,2.1,1.4
		c0.5,1,0.1,1.9-0.4,1.9C235.2,218.1,234.8,217.6,234.5,217.1z"/>
	<path class="st4" d="M245.4,212.7c-0.1-0.1-0.4-0.6-0.8-0.8c-0.4-0.3-1-0.3-0.9-0.3c0,0,0.5-0.3,1.1-0.3c0.6,0,1.3,0.3,1.5,0.6
		c0.5,0.5,0.3,1.2,0,1.2C246,213.2,245.6,212.9,245.4,212.7z"/>
	<path class="st4" d="M244.7,209.7c0,0.2,0,0.7-0.2,1.1c-0.2,0.4-0.7,0.8-0.7,0.7c0,0,0.6,0,1.1-0.3c0.5-0.3,1-1,1-1.3
		c0.1-0.7-0.3-1.2-0.6-1.1C244.9,209,244.8,209.4,244.7,209.7z"/>
	<path class="st9" d="M213.2,132c0.4,0,0.7-0.4,0.6-0.7c-0.1-0.5-0.3-1.1-0.4-1.6c-0.3-1.2-0.4-1.2-0.3-1.3c0.2-0.2,0.7,0,0.9,0.2
		c0.4,0.3,0.7,0.6,1.1,0.8c0.8,0.4,1.7-0.1,1.5-1.1c-0.1-0.9-0.3-1.8-0.5-2.6c0.9,0.5,1.7,1,2.6,1.4c0.3,0.2,0.6-0.1,0.6-0.4
		c-0.1-0.8-0.4-3.1-0.5-3.8c0-0.2-0.2-1.1,0-1.2c0.2-0.1,0.8,0.3,0.9,0.3c0.8,0.4,1.1,0.5,3.6,1.6c0.3,0.1,0.7-0.2,0.6-0.5
		c-1.1-3.1-0.7-3.3-1.2-3.8c-0.1-0.1-0.3-0.1-0.4,0.1c-0.2,0.4-0.2,0.5,0.1,1.9c0.1,0.4,0.2,0.7,0.3,1.1c-3.1-1.4-3.8-1.8-4.5-1.2
		c-0.5,0.4-0.3,0.6,0.2,4.9c-0.9-0.5-1.8-1-2.7-1.5c-0.3-0.2-0.7,0.1-0.7,0.5c0.5,3.1,0.6,3.2,0.6,3.5c0,0,0.2,0.1-0.1,0
		c-0.4-0.2-1-1-1.9-1.2c-0.7-0.1-1.6,0.3-1.7,1.1c0,0.5,0.1,0.7,0.5,2.5c-0.9-0.1-1.8-0.1-2.7,0.1c-0.4,0.1-0.7,0.2-1,0.4
		c-0.3,0.2-0.2,0.7,0.2,0.8C209.8,132.3,210.5,131.7,213.2,132z"/>
	<path class="st10" d="M227.8,144.7c0.1-0.8,0.3-1.6,0.6-2.5c0.1-0.2,0.1-0.5,0.3-0.5c0.5-0.1,0.8,0.7,2.2,1.5
		c0.6,0.3,1.8,1.1,2.4,0.3c0.3-0.4,0.4-1,0.5-1.5c0.1-0.4,0.2-0.7,0.3-1.1c2.2,1.4,2,1.5,2.7,1.4c0.2,0,0.3-0.2,0.3-0.4
		c-0.2-0.6-0.1-0.4-2.9-2.2c-0.3-0.2-0.7-0.1-0.7,0.2c-0.1,0.5-0.7,2.7-0.8,2.9c0,0-0.1,0-0.2,0c-1-0.3-1.8-1-2.6-1.6
		c-0.7-0.5-1.7-0.8-2.2,0c-0.3,0.5-0.6,1.6-0.7,2.4c-1.3-0.9-2.7-1.8-4-2.7c-0.3-0.2-0.7-0.1-0.8,0.3c-0.2,1-0.5,2-0.7,2.9
		c-0.8-0.5-1.5-1.2-2.1-2c-0.4-0.6-1.4,0-0.2,1.3c0.6,0.8,1.4,1.4,2.3,1.9c0.3,0.2,0.7,0.1,0.8-0.3c0.3-1,0.5-1.9,0.8-2.9
		c1.3,0.9,2.7,1.8,4,2.7C227.3,145.3,227.7,145,227.8,144.7z"/>
	<path class="st11" d="M227.1,165.6c-0.1,0.3,0.1,0.5,0.3,0.7c1.3,0.7,2.6,1.2,4,1.4c0.7,0.1,0.8-1,0.1-1.2
		c-1.1-0.2-2.3-0.5-3.3-0.9c0.3-0.8,0.6-1.6,1.1-2.3c0.2-0.3,0.1-0.7-0.3-0.8c-0.9-0.2-4.3-1-4.3-1c0,0,0,0,0-0.1
		c0-0.4,0.7-1.5,0.8-2.1c0.2-0.6-0.6-1.1-1.1-1.3c-1-0.4-2.3,0-3.2-0.7c-0.8-0.7,0.7-1.8,0.3-3.2c-0.3-1.1-1.4-1.1-3.1-1.3
		c-0.4,0-0.8-0.1-1.1,0.2c-0.1,0.1-0.1,0.2-0.1,0.3c0.3,0.6,1,0.6,2.5,0.7c0.2,0,0.5,0,0.7,0.2c0.4,0.6-0.8,1.6-0.4,2.9
		c0.3,1,1.2,1.4,2.1,1.6c0.7,0.1,1.6,0,2.3,0.4c-0.2,0.6-0.4,1.1-0.6,1.7c-0.2,0.6,0,1.2,0.6,1.4c0.7,0.3,1.5,0.4,2.2,0.6
		c0.5,0.1,1,0.2,1.5,0.4C227.6,164,227.3,164.8,227.1,165.6z"/>
	<path class="st11" d="M199,116.8c-2.9-4.2-5.6-2-4.9-0.4c0.3,0.7,1.1,1,1.7,0.5c0.3-0.2,0.1-0.8-0.3-0.8c-0.3,0-0.3-0.4,0.1-0.4
		c0.5,0,0.9,0.4,1.2,0.7c0.7,0.7,1.7,1.6,1.5,2.7c-0.3,1.7-2.4,2.9-4.5,1.2c-3.1-2.4-1.2-8,2.7-7.8c2.2,0.1,4,1.6,4.8,3.6
		c0.1,0.4,0.7,0.1,0.7-0.2c-0.3-2.7-3.1-4.6-5.7-4.5c-2.7,0.1-4.6,2.3-5,4.9c-0.4,2.7,1.2,5.5,4,6C198.3,123,201,119.8,199,116.8z"
		/>
	<path class="st4" d="M222.8,173.7c-0.5-0.6-1.7-1.3-2.4-0.5c-0.3,0.3-0.3,0.9,0.1,1.1c0.4,0.3,0.9,0.2,1.1,0.7
		c0.2,0.4-0.1,0.9-0.5,1.1c-1.1,0.7-2.8-0.1-3.6-0.9c-1.3-1.3-0.9-3.6,1.1-4.2c0.6-0.2,1.3-0.1,1.9,0c0.4,0,0.7-0.5,0.4-0.7
		c-1.1-1.1-3-0.7-4.2,0.2c-1.2,0.9-1.7,2.7-1.2,4.1c0.5,1.6,2,2.8,3.6,3.3C222.3,178.7,224.4,175.7,222.8,173.7z"/>
	<g>
		<path class="st8" d="M73.4,145.8c0.1-2.1-0.2-4.2-1.1-6.1c-0.8-1.7-2.8-2.6-4.6-2.6c-5.7,0-6.4,7.6-10.1,10.5
			c-1.1,0.9-2.4,1.6-3.4,2.6c-3.9,3.6-2.1,10.2,1.4,13.3c2.5,2.2,6.4,3.4,9.4,1.7c1.6-0.9,2.8-2.4,3.7-4c1.2-2.3,2-4.9,2.9-7.4
			C72.6,151.2,73.3,148.5,73.4,145.8z"/>
		<path class="st12" d="M61.2,146.6c0,0-4.2-7.6-5.2-9.2c-1-1.6-3.7-8-3.8-8.2c-0.1-0.3,1.8-3.3,1.4-3.4c-0.4-0.1-0.9,1.6-1.4,1.4
			c-0.5-0.2-1.8-4.3-2.1-4.1c-0.5,0.4,0.7,2.5,0.5,2.7c-0.3,0.1-1.1-2.4-1.6-2.3c-0.5,0.1,1,2.3,0.8,2.5c-0.1,0.2-1.7-1.9-2-1.5
			c-0.2,0.2,1.4,1.8,1.1,2c-0.3,0.1-1.7-0.9-1.8-0.6c-0.1,0.3,1.3,0.7,1.7,1.5c0.4,0.8,1.2,1.1,1.5,2.6c0.3,1.5,0.8,6.8,2.3,9.5
			c1.6,2.7,5,8.5,5,8.5L61.2,146.6z"/>
		<path class="st13" d="M83.4,174.4l-6.5-5c0,0-0.7-4.7-1.5-8.8c-1.1,0.3-2.1,1.2-3.2,1.5l1.7,9.3l8.6,4.4l2.4,3.1l0.6-3.2
			L83.4,174.4z"/>
		<path class="st9" d="M74.4,155.9c-1.8-5.4-3.8-5.2-3.8-5.2l1.5,11.4c1.1-0.3,2.5-1,3.6-1.3C75.4,159.1,74.8,157.2,74.4,155.9z"/>
		<path class="st14" d="M55.6,213c0,0-0.4,2.8-1.1,3.7c-0.2,0.3-0.7,0.7-0.9,1.2c-0.4,0.9-0.2,2.1,0.1,2.8c0.2,0.4,0,0.4,0.4,0.5
			c1.1,0.3,2.3-0.2,2.8-1.3c0.3-0.6,0.5-1.4,0.5-2.4c0.1-2.6,0.9-3.9,0.9-3.9L55.6,213z"/>
		<path class="st14" d="M67.7,214.3c0,0,0.2,3.2,0,4.2c-0.1,0.6-0.7,1.7-0.4,2.2c0.3,0.5,0.6,0.6,0.6,0.6l7.2,0.1
			c0.4,0,0.1-0.2-0.2-0.5c-0.5-0.4-0.9-0.6-2.6-1.4c-0.1-0.1-0.5-0.3-0.6-0.4c-0.4-0.2-0.7-0.6-1-0.9c-0.5-0.6-0.6-3.4-0.6-3.4
			L67.7,214.3z"/>
		<path class="st15" d="M73.3,172.2c0,0,0.9,5.1,0.3,8.5c-0.6,3.4-3.4,34.7-3.4,34.7l-3.2,0.2c0,0-0.7-13.1-0.5-14.9
			c0.1-1.8,1.1-4.9,1.1-4.9l-0.3-10.6l4-13.9L73.3,172.2z"/>
		<path class="st16" d="M64,171.1c0,0-2.5,3.8-3.1,6.9c-0.6,3.1,0.4,12.7-0.7,16.8c-0.6,2.2-3,5.6-3.3,8.5
			c-0.4,2.9-1.7,10.3-1.7,10.3l3.2,0.6l7.3-18.7l5.8-16.9l1.5-8.7L64,171.1z"/>
		<path class="st17" d="M66,149.7c0,0-3.3-0.2-4.6,1.2c-1.3,1.4,2.9,12.7,3.1,14.5c0.2,1.8-1.2,6.6-1.2,6.6s7.7,1.6,9.9,0.1
			c0,0,0.2-13.1,0-14.4c-0.2-1.3-2.2-6.6-2.7-7.1C70.1,150.2,66,149.7,66,149.7z"/>
		<path class="st18" d="M67.1,145.3c0,0,0,0.1,0,0.3c-0.1,0.8-0.7,3.4-1.1,4.2c-0.5,0.9,1.6,3.7,3.5,3.3c0.6-0.1-0.5-2.6-0.4-2.8
			c0.1-0.5,0.2-1.2,0.4-1.9c0.1-0.4,0.2-0.8,0.2-1.2c0.2-1.1,0.4-1.9,0.4-1.9L67.1,145.3z"/>
		<path class="st10" d="M67.1,145.5c0-0.2,0-0.3,0-0.3l2.9-0.1c0,0-0.2,0.9-0.4,1.9c-0.1,0.4-0.2,0.8-0.2,1.2
			c-0.5-0.1-0.9-0.3-1.4-0.7c-0.5-0.5-0.9-1-1.1-1.6C67,145.8,67.1,145.7,67.1,145.5z"/>
		<path class="st18" d="M69.1,138.5c0,0-1.4-0.2-2.3,1c-0.9,1.1-1.8,4.6,0.4,6.5c2.2,1.9,4.3-0.3,4.6-2.5
			C72.1,141.2,72.3,138.5,69.1,138.5z"/>
		<path class="st18" d="M72.5,143.5c-0.3,0.5-0.7,0.8-1,0.6c-0.3-0.2-0.3-0.7,0-1.2c0.3-0.5,0.7-0.8,1-0.6
			C72.7,142.4,72.7,143,72.5,143.5z"/>
		<path class="st8" d="M69.3,138.2c0,0-1.9,3.3-3.2,3.5c-1.3,0.2-1.5,1.9-1.5,1.9s0.5-4.1,1.8-4.9C67.7,137.9,69.3,138.2,69.3,138.2
			z"/>
		<path class="st19" d="M57,219.5c-1.7,0.3-2.9-0.7-3.5-1.5c-0.4,0.9-0.7,2.1-0.3,2.8c0.3,0.6,1.1,0.6,1.8,0.6c0.7,0,1.2-0.4,1.6-1
			C56.7,220.2,56.9,219.9,57,219.5z"/>
		<path class="st19" d="M71.7,219.2c-1.9,0.5-3.3,0.2-4.1-0.2c-0.2,0.6-0.5,1.3-0.3,1.7c0.2,0.5,0.4,0.6,0.6,0.6
			c1.7,0,6.3,0.1,7.7,0.1c0.2,0,0.3-0.2,0.2-0.4C75.4,220.8,71.8,219.3,71.7,219.2z"/>
		<path class="st18" d="M66.4,142.5c0.1,0.6-0.1,1.1-0.5,1.2c-0.4,0.1-0.8-0.3-0.9-0.9c-0.1-0.6,0.1-1.1,0.5-1.2
			C65.9,141.5,66.3,141.9,66.4,142.5z"/>
		<path class="st9" d="M60,144.2c0,0,4.6,5,5.3,7.1c0.7,2-0.7,4.9-2.6,5.1c-1.9,0.1-6.1-8.9-6.1-8.9L60,144.2z"/>
	</g>
	<g>
		<path class="st9" d="M141.7,130.4h57.8c1.8,0,3.3,1.5,3.3,3.3v83.8c0,1.8-1.5,3.3-3.3,3.3h-57.8c-1.8,0-3.3-1.5-3.3-3.3v-83.8
			C138.4,131.9,139.9,130.4,141.7,130.4z"/>
		<rect x="144.2" y="137.9" class="st11" width="53.4" height="13.8"/>
		<polygon class="st20" points="145.6,139.9 197.6,139.9 197.6,137.9 144.2,137.9 144.2,151.7 145.6,151.7 		"/>
		<path class="st10" d="M159.3,160.6h-14.8c-0.1,0-0.3-0.1-0.3-0.3v-4.5c0-0.1,0.1-0.3,0.3-0.3h14.8c0.1,0,0.3,0.1,0.3,0.3v4.5
			C159.5,160.5,159.4,160.6,159.3,160.6z"/>
		<path class="st10" d="M178.3,160.6h-14.8c-0.1,0-0.3-0.1-0.3-0.3v-4.5c0-0.1,0.1-0.3,0.3-0.3h14.8c0.1,0,0.3,0.1,0.3,0.3v4.5
			C178.6,160.5,178.5,160.6,178.3,160.6z"/>
		<path class="st10" d="M197.4,160.6h-14.8c-0.1,0-0.3-0.1-0.3-0.3v-4.5c0-0.1,0.1-0.3,0.3-0.3h14.8c0.1,0,0.3,0.1,0.3,0.3v4.5
			C197.6,160.5,197.5,160.6,197.4,160.6z"/>
		<path class="st10" d="M155.5,175.7h-10.7c-0.3,0-0.6-0.3-0.6-0.6v-10c0-0.3,0.3-0.6,0.6-0.6h10.7c0.3,0,0.6,0.3,0.6,0.6v10
			C156.1,175.4,155.8,175.7,155.5,175.7z"/>
		<path class="st17" d="M169.4,175.7h-10.7c-0.3,0-0.6-0.3-0.6-0.6v-10c0-0.3,0.3-0.6,0.6-0.6h10.7c0.3,0,0.6,0.3,0.6,0.6v10
			C169.9,175.4,169.7,175.7,169.4,175.7z"/>
		<path class="st17" d="M183.2,175.7h-10.7c-0.3,0-0.6-0.3-0.6-0.6v-10c0-0.3,0.3-0.6,0.6-0.6h10.7c0.3,0,0.6,0.3,0.6,0.6v10
			C183.8,175.4,183.5,175.7,183.2,175.7z"/>
		<path class="st10" d="M155.5,189.4h-10.7c-0.3,0-0.6-0.3-0.6-0.6v-10c0-0.3,0.3-0.6,0.6-0.6h10.7c0.3,0,0.6,0.3,0.6,0.6v10
			C156.1,189.1,155.8,189.4,155.5,189.4z"/>
		<path class="st17" d="M169.4,189.4h-10.7c-0.3,0-0.6-0.3-0.6-0.6v-10c0-0.3,0.3-0.6,0.6-0.6h10.7c0.3,0,0.6,0.3,0.6,0.6v10
			C169.9,189.1,169.7,189.4,169.4,189.4z"/>
		<path class="st17" d="M183.2,189.4h-10.7c-0.3,0-0.6-0.3-0.6-0.6v-10c0-0.3,0.3-0.6,0.6-0.6h10.7c0.3,0,0.6,0.3,0.6,0.6v10
			C183.8,189.1,183.5,189.4,183.2,189.4z"/>
		<path class="st17" d="M195.2,164.5h-7c-1.3,0-2.4,1.1-2.4,2.4v3.4v2.8V187c0,1.3,1.1,2.4,2.4,2.4h7c1.3,0,2.4-1.1,2.4-2.4v-13.7
			v-2.8v-3.4C197.6,165.6,196.6,164.5,195.2,164.5z"/>
		<path class="st10" d="M155.5,203.1h-10.7c-0.3,0-0.6-0.3-0.6-0.6v-10c0-0.3,0.3-0.6,0.6-0.6h10.7c0.3,0,0.6,0.3,0.6,0.6v10
			C156.1,202.9,155.8,203.1,155.5,203.1z"/>
		<path class="st17" d="M169.4,203.1h-10.7c-0.3,0-0.6-0.3-0.6-0.6v-10c0-0.3,0.3-0.6,0.6-0.6h10.7c0.3,0,0.6,0.3,0.6,0.6v10
			C169.9,202.9,169.7,203.1,169.4,203.1z"/>
		<path class="st17" d="M183.2,203.1h-10.7c-0.3,0-0.6-0.3-0.6-0.6v-10c0-0.3,0.3-0.6,0.6-0.6h10.7c0.3,0,0.6,0.3,0.6,0.6v10
			C183.8,202.9,183.5,203.1,183.2,203.1z"/>
		<path class="st17" d="M197.1,203.1h-10.7c-0.3,0-0.6-0.3-0.6-0.6v-10c0-0.3,0.3-0.6,0.6-0.6h10.7c0.3,0,0.6,0.3,0.6,0.6v10
			C197.6,202.9,197.4,203.1,197.1,203.1z"/>
		<path class="st10" d="M155.5,216.9h-10.7c-0.3,0-0.6-0.3-0.6-0.6v-10c0-0.3,0.3-0.6,0.6-0.6h10.7c0.3,0,0.6,0.3,0.6,0.6v10
			C156.1,216.6,155.8,216.9,155.5,216.9z"/>
		<path class="st17" d="M169.4,216.9h-10.7c-0.3,0-0.6-0.3-0.6-0.6v-10c0-0.3,0.3-0.6,0.6-0.6h10.7c0.3,0,0.6,0.3,0.6,0.6v10
			C169.9,216.6,169.7,216.9,169.4,216.9z"/>
		<path class="st17" d="M183.2,216.9h-10.7c-0.3,0-0.6-0.3-0.6-0.6v-10c0-0.3,0.3-0.6,0.6-0.6h10.7c0.3,0,0.6,0.3,0.6,0.6v10
			C183.8,216.6,183.5,216.9,183.2,216.9z"/>
		<path class="st21" d="M197.1,216.9h-10.7c-0.3,0-0.6-0.3-0.6-0.6v-10c0-0.3,0.3-0.6,0.6-0.6h10.7c0.3,0,0.6,0.3,0.6,0.6v10
			C197.6,216.6,197.4,216.9,197.1,216.9z"/>
		<g>
			<path class="st0" d="M152.2,194.6v0.6l-2.7,5.8h-0.9l2.7-5.6v0h-3.1v-0.7H152.2z"/>
		</g>
		<g>
			<path class="st0" d="M161.9,199.4c0-0.8,0.5-1.4,1.2-1.7l0,0c-0.7-0.3-1-0.9-1-1.4c0-1,0.8-1.7,1.9-1.7c1.2,0,1.8,0.8,1.8,1.6
				c0,0.5-0.3,1.1-1,1.5v0c0.8,0.3,1.3,0.9,1.3,1.6c0,1.1-0.9,1.8-2.1,1.8C162.7,201.1,161.9,200.3,161.9,199.4z M165.3,199.3
				c0-0.8-0.5-1.1-1.4-1.4c-0.7,0.2-1.1,0.7-1.1,1.3c0,0.6,0.5,1.2,1.3,1.2C164.8,200.4,165.3,200,165.3,199.3z M163,196.2
				c0,0.6,0.5,1,1.2,1.2c0.5-0.2,1-0.6,1-1.1c0-0.5-0.3-1-1.1-1C163.4,195.1,163,195.6,163,196.2z"/>
		</g>
		<g>
			<path class="st0" d="M166.2,211.3c0,2.1-0.8,3.3-2.2,3.3c-1.2,0-2.1-1.2-2.1-3.2c0-2.1,0.9-3.3,2.2-3.3
				C165.4,208.1,166.2,209.3,166.2,211.3z M162.8,211.4c0,1.6,0.5,2.6,1.3,2.6c0.9,0,1.3-1,1.3-2.6c0-1.6-0.4-2.6-1.3-2.6
				C163.3,208.8,162.8,209.7,162.8,211.4z"/>
		</g>
		<g>
			<path class="st0" d="M176.6,200.4c0.2,0,0.4,0,0.7,0c0.5-0.1,1-0.3,1.3-0.6c0.4-0.4,0.7-0.9,0.8-1.7h0c-0.3,0.4-0.9,0.7-1.5,0.7
				c-1.1,0-1.9-0.9-1.9-1.9c0-1.2,0.9-2.2,2.1-2.2s2.1,1,2.1,2.7c0,1.4-0.5,2.4-1.1,3c-0.5,0.5-1.2,0.8-1.8,0.8
				c-0.3,0-0.6,0.1-0.8,0V200.4z M176.9,196.7c0,0.8,0.5,1.3,1.2,1.3c0.6,0,1-0.3,1.2-0.7c0-0.1,0.1-0.2,0.1-0.3
				c0-1.1-0.4-1.9-1.3-1.9C177.4,195.2,176.9,195.8,176.9,196.7z"/>
		</g>
		<g>
			<path class="st0" d="M150.7,186.9v-1.7h-2.9v-0.6l2.8-4h0.9v3.9h0.9v0.7h-0.9v1.7H150.7z M150.7,184.6v-2.1c0-0.3,0-0.7,0-1h0
				c-0.2,0.4-0.3,0.6-0.5,0.9l-1.5,2.1v0H150.7z"/>
		</g>
		<g>
			<path class="st0" d="M165.8,181.4h-2.4l-0.2,1.6c0.1,0,0.3,0,0.5,0c0.5,0,1,0.1,1.4,0.3c0.5,0.3,0.9,0.8,0.9,1.6
				c0,1.2-1,2.2-2.3,2.2c-0.7,0-1.3-0.2-1.6-0.4l0.2-0.7c0.3,0.2,0.8,0.3,1.3,0.3c0.8,0,1.5-0.5,1.5-1.4c0-0.8-0.6-1.4-1.8-1.4
				c-0.4,0-0.6,0-0.9,0.1l0.4-3h3V181.4z"/>
		</g>
		<g>
			<path class="st0" d="M179.6,181.2c-0.2,0-0.4,0-0.6,0c-1.3,0.2-2,1.2-2.2,2.2h0c0.3-0.4,0.8-0.7,1.5-0.7c1.1,0,1.9,0.8,1.9,2
				c0,1.2-0.8,2.2-2.1,2.2c-1.3,0-2.2-1-2.2-2.7c0-1.2,0.4-2.2,1.1-2.8c0.5-0.5,1.2-0.8,2-0.9c0.3,0,0.5,0,0.6,0V181.2z
				 M179.4,184.9c0-0.9-0.5-1.4-1.3-1.4c-0.5,0-1,0.3-1.2,0.8c-0.1,0.1-0.1,0.2-0.1,0.4c0,1,0.5,1.8,1.4,1.8
				C178.9,186.4,179.4,185.8,179.4,184.9z"/>
		</g>
		<g>
			<path class="st0" d="M149.9,168L149.9,168l-1.1,0.6l-0.2-0.7l1.4-0.7h0.7v6.3h-0.8V168z"/>
		</g>
		<g>
			<path class="st0" d="M162,173.5V173l0.7-0.7c1.6-1.5,2.3-2.4,2.3-3.3c0-0.6-0.3-1.2-1.2-1.2c-0.6,0-1,0.3-1.3,0.5l-0.3-0.6
				c0.4-0.4,1.1-0.6,1.8-0.6c1.4,0,1.9,0.9,1.9,1.8c0,1.2-0.8,2.1-2.2,3.4l-0.5,0.5v0h2.8v0.7H162z"/>
		</g>
		<g>
			<path class="st0" d="M176.3,172.5c0.2,0.2,0.8,0.4,1.4,0.4c1.1,0,1.4-0.7,1.4-1.2c0-0.9-0.8-1.3-1.6-1.3H177v-0.6h0.5
				c0.6,0,1.4-0.3,1.4-1.1c0-0.5-0.3-1-1.1-1c-0.5,0-1,0.2-1.3,0.4l-0.2-0.6c0.3-0.2,1-0.5,1.6-0.5c1.2,0,1.8,0.7,1.8,1.5
				c0,0.7-0.4,1.2-1.2,1.5v0c0.8,0.2,1.4,0.7,1.4,1.6c0,1-0.8,1.9-2.3,1.9c-0.7,0-1.3-0.2-1.6-0.4L176.3,172.5z"/>
		</g>
		<g>
			<ellipse class="st0" cx="150.1" cy="213.7" rx="0.8" ry="0.8"/>
		</g>
		<g>
			<polygon class="st0" points="196.2,177.4 192.2,177.4 192.2,173.4 191.2,173.4 191.2,177.4 187.2,177.4 187.2,178.4 191.2,178.4 
				191.2,182.4 192.2,182.4 192.2,178.4 196.2,178.4 			"/>
		</g>
		<g>
			<polygon class="st0" points="180.5,213.7 178.4,211.6 180.5,209.4 180,208.9 177.9,211 175.7,208.9 175.2,209.4 177.3,211.6 
				175.2,213.7 175.7,214.2 177.9,212.1 180,214.2 			"/>
		</g>
		<g>
			<rect x="188.1" y="197.4" class="st0" width="6.7" height="1"/>
		</g>
		<g>
			<rect x="188.4" y="209.2" class="st0" width="6.7" height="1"/>
		</g>
		<g>
			<rect x="188.4" y="211.8" class="st0" width="6.7" height="1"/>
		</g>
	</g>
	<path class="st10" d="M153,80.5L153,80.5C153,80.5,153,80.5,153,80.5c-0.2-0.1-0.3-0.1-0.5-0.2c-0.1,0-0.1,0-0.2,0
		c-0.1,0-0.1,0-0.2,0c-0.1,0-0.1,0-0.2,0c-0.1,0-0.1,0-0.2,0c-0.1,0-0.1,0-0.2,0c-0.1,0-0.1,0-0.2,0c-0.1,0-0.1,0-0.2,0
		c-0.1,0-0.1,0-0.2,0c-0.1,0-0.2,0-0.3,0c0,0-0.1,0-0.1,0c-0.1,0-0.3,0-0.4,0H89.5c-0.1,0-0.3,0-0.4,0c-0.3,0-0.6,0-0.8,0.1
		c-0.1,0-0.3,0-0.4,0.1c-3.5,0.7-6.1,3.6-6.5,7.2c0,0.3,0,0.6,0,0.8v101.4v23.1c0,3.6,2.3,6.6,5.4,7.7l0,0c0,0,0,0,0,0
		c0.2,0.1,0.3,0.1,0.5,0.2c0.1,0,0.1,0,0.2,0c0.1,0,0.1,0,0.2,0c0.1,0,0.1,0,0.2,0c0.1,0,0.1,0,0.2,0c0.1,0,0.1,0,0.2,0
		c0.1,0,0.1,0,0.2,0c0.1,0,0.1,0,0.2,0c0.1,0,0.1,0,0.2,0c0.1,0,0.2,0,0.3,0c0,0,0.1,0,0.1,0c0.1,0,0.3,0,0.4,0h60.7
		c0.3,0,0.6,0,0.8,0c3.9-0.4,6.9-3.5,7.3-7.3c0-0.3,0-0.6,0-0.8V111.3V88.2C158.4,84.7,156.1,81.6,153,80.5z"/>
	<rect x="85.3" y="91.2" class="st22" width="69.1" height="118.5"/>
	<path class="st0" d="M134.6,87.5h-29.4c0,0-0.1,0-0.1-0.1v-1.3c0,0,0-0.1,0.1-0.1h29.4c0,0,0.1,0,0.1,0.1L134.6,87.5
		C134.7,87.4,134.6,87.5,134.6,87.5z"/>
	<ellipse class="st23" cx="119.8" cy="215.4" rx="3.4" ry="3.4"/>
	<rect x="85.3" y="204.7" class="st24" width="69.1" height="5"/>
	<rect x="85.3" y="91.2" class="st24" width="69.1" height="6.3"/>
	<g>
		<path class="st23" d="M99.2,94.1h-60c-2.1,0-3.8,1.7-3.8,3.8v24.9c0,2.1,1.7,3.8,3.8,3.8h47.3c1.9,2.7,5.4,7.5,5.7,7.5
			c0.3,0-0.3-4.5-0.7-7.5h7.7c2.1,0,3.8-1.7,3.8-3.8V97.9C103,95.8,101.3,94.1,99.2,94.1z"/>
		<path class="st25" d="M96.7,87.6h-60c-2.1,0-3.8,1.7-3.8,3.8v24.9c0,2.1,1.7,3.8,3.8,3.8h47.3c1.9,2.7,5.4,7.5,5.7,7.5
			c0.3,0-0.3-4.5-0.7-7.5h7.7c2.1,0,3.8-1.7,3.8-3.8V91.4C100.5,89.3,98.8,87.6,96.7,87.6z"/>
		<path class="st0" d="M68.7,97.4H39.2c0,0-0.1,0-0.1-0.1v-1.5c0,0,0-0.1,0.1-0.1h29.4c0,0,0.1,0,0.1,0.1L68.7,97.4
			C68.7,97.3,68.7,97.4,68.7,97.4z"/>
		<path class="st0" d="M51.8,101.7H39.2c0,0-0.1,0-0.1-0.1v-1.5c0,0,0-0.1,0.1-0.1h12.6c0,0,0.1,0,0.1,0.1L51.8,101.7
			C51.9,101.6,51.8,101.7,51.8,101.7z"/>
		<path class="st0" d="M92.9,101.7H53.4c0,0-0.1,0-0.1-0.1v-1.5c0,0,0-0.1,0.1-0.1h39.5c0,0,0.1,0,0.1,0.1L92.9,101.7
			C93,101.6,93,101.7,92.9,101.7z"/>
		<path class="st0" d="M93,97.4H71.8c0,0-0.1,0-0.1-0.1v-1.5c0,0,0-0.1,0.1-0.1H93c0,0,0.1,0,0.1,0.1L93,97.4
			C93.1,97.3,93.1,97.4,93,97.4z"/>
		<path class="st0" d="M93,110.2H39.2c0,0-0.1,0-0.1-0.1v-1.5c0,0,0-0.1,0.1-0.1H93c0,0,0.1,0,0.1,0.1L93,110.2
			C93.1,110.1,93.1,110.2,93,110.2z"/>
		<path class="st0" d="M66.9,106H39.2c0,0-0.1,0-0.1-0.1v-1.5c0,0,0-0.1,0.1-0.1h27.7c0,0,0.1,0,0.1,0.1L66.9,106
			C67,106,67,106,66.9,106z"/>
		<path class="st0" d="M93,106H68.7c0,0-0.1,0-0.1-0.1v-1.5c0,0,0-0.1,0.1-0.1H93c0,0,0.1,0,0.1,0.1L93,106
			C93.1,106,93.1,106,93,106z"/>
	</g>
	<path class="st0" d="M146,80.6h18.3c0,0,0.1,0,0.1-0.1v-1.3c0,0,0-0.1-0.1-0.1H146c0,0-0.1,0-0.1,0.1L146,80.6
		C145.9,80.5,145.9,80.6,146,80.6z"/>
	<path class="st23" d="M140.5,75h53.6c1.9,0,3.4,1.5,3.4,3.4v22.2c0,1.9-1.5,3.4-3.4,3.4h-42.2c-1.7,2.4-4.8,6.7-5.1,6.7
		c-0.3,0,0.2-4,0.6-6.7h-6.9c-1.9,0-3.4-1.5-3.4-3.4V78.3C137.1,76.5,138.6,75,140.5,75z"/>
	<path class="st25" d="M142.7,69.2h53.6c1.9,0,3.4,1.5,3.4,3.4v22.2c0,1.9-1.5,3.4-3.4,3.4h-42.2c-1.7,2.4-4.8,6.7-5.1,6.7
		c-0.3,0,0.2-4,0.6-6.7h-6.9c-1.9,0-3.4-1.5-3.4-3.4V72.6C139.3,70.7,140.8,69.2,142.7,69.2z"/>
	<path class="st0" d="M176.5,77.9h16.2c0,0,0.1,0,0.1-0.1v-1.3c0,0,0-0.1-0.1-0.1h-16.2c0,0-0.1,0-0.1,0.1L176.5,77.9
		C176.4,77.8,176.4,77.9,176.5,77.9z"/>
	<path class="st0" d="M181.8,82.7h10.9c0,0,0.1,0,0.1-0.1v-1.3c0,0,0-0.1-0.1-0.1l-10.9,0c0,0-0.1,0-0.1,0.1L181.8,82.7
		C181.7,82.6,181.8,82.7,181.8,82.7z"/>
	<path class="st0" d="M166.8,82.7h13.5c0,0,0.1,0,0.1-0.1v-1.3c0,0,0-0.1-0.1-0.1l-13.5,0c0,0-0.1,0-0.1,0.1L166.8,82.7
		C166.8,82.6,166.8,82.7,166.8,82.7z"/>
	<path class="st0" d="M146.1,82.7H165c0,0,0.1,0,0.1-0.1v-1.3c0,0,0-0.1-0.1-0.1l-18.9,0c0,0-0.1,0-0.1,0.1L146.1,82.7
		C146,82.6,146,82.7,146.1,82.7z"/>
	<path class="st0" d="M146,77.9h27.4c0,0,0.1,0,0.1-0.1v-1.3c0,0,0-0.1-0.1-0.1H146c0,0-0.1,0-0.1,0.1L146,77.9
		C145.9,77.8,145.9,77.9,146,77.9z"/>
	<path class="st0" d="M146,92h46.8c0,0,0.1,0,0.1-0.1v-1.3c0,0,0-0.1-0.1-0.1H146c0,0-0.1,0-0.1,0.1L146,92
		C145.9,92,145.9,92,146,92z"/>
	<path class="st0" d="M168.7,87.4h24.1c0,0,0.1,0,0.1-0.1V86c0,0,0-0.1-0.1-0.1h-24.1c0,0-0.1,0-0.1,0.1L168.7,87.4
		C168.6,87.4,168.6,87.4,168.7,87.4z"/>
	<path class="st0" d="M146,87.4h21.3c0,0,0.1,0,0.1-0.1V86c0,0,0-0.1-0.1-0.1H146c0,0-0.1,0-0.1,0.1L146,87.4
		C145.9,87.4,145.9,87.4,146,87.4z"/>
	<g>
		<path class="st9" d="M102.6,136.1c0,0-13.4,1.9-11.4,14.9c1.9,12.1,13.4,9.6,16.4,9C110.5,159.4,102.6,136.1,102.6,136.1z"/>
		<path class="st26" d="M107.6,160c1.4-0.3,0.4-5.5-1.1-10.9c-4.9,1-10.4,2-15.1,3C93.8,162.9,104.7,160.6,107.6,160z"/>
		<path class="st5" d="M110.3,162.2c0,0,2.9,10.5,2.2,18.7c-0.7,7.6,0.4,8.9,3.2,8.6c2.8-0.2,9.7-1.9,9.8-4.7
			c0.1-2.7-1.1-16.7-5.9-24.2C114.8,153.2,110.3,162.2,110.3,162.2z"/>
		<path class="st6" d="M114.8,157.9c-1.9,1.3-4.6,4.4-4.6,4.4s2.9,10.5,2.2,18.7c-0.7,7.6,0.4,8.9,3.2,8.6c1-0.1,2.6-0.4,4.2-0.8
			C121,170,116.1,160,114.8,157.9z"/>
		<path class="st5" d="M143.1,110.7c0,0-22.2,16.2-29.4,21.1l-4.2,6.3l3,18.2l7.2,3.5l35.1,6.9l-0.8-3.9l-6.4-17.7l-3.3-20.1
			l-0.9-12.4L143.1,110.7z"/>
		<polygon class="st6" points="147.6,145.1 146.8,139.8 111.3,148.4 112.5,156.2 119.7,159.7 154.8,166.7 154,162.7 		"/>
		<path class="st4" d="M113.7,131.7c0,0-2.9,15.5,6,28c0,0,0.5,1.2-0.6,1.9l-6.6,1.7c0,0-3.1,1.1-5.7-3.3
			c-2.6-4.4-7.2-14.3-4.5-25.3c0,0,0.7-3,4.3-3.5l4.8-0.9C111.5,130.3,113.6,130,113.7,131.7z"/>
		<path class="st27" d="M143.1,110.7c0,0,5.8-4.3,9.1-4.2c3.3,0.1,6.7,4.5,8.9,8.2c2.2,3.6,7.9,17.9,8.4,27.5
			c0.5,9.6,0.5,23.3-4.2,24.9c-4.7,1.6-10.5-0.4-10.5-0.4s-7.6-6.5-12-26.8C138.4,119.5,143.1,110.7,143.1,110.7z"/>
		<path class="st4" d="M162,167.6c0,0,5.4-7,2.6-26c-4.3-29.9-15.3-34.4-15.3-34.4s-8.1,6.2-0.4,35C155.3,166,162,167.6,162,167.6z"
			/>
		<path class="st9" d="M146.4,130.1c0.5,3.5,1.4,7.5,2.6,12.1c0.6,2.3,1.2,4.4,1.9,6.3c3.4-1.2,8.8-4.1,6.5-11.5
			C155.2,130.1,149.6,129.7,146.4,130.1z"/>
		<path class="st26" d="M149,142.2c0.6,2.3,1.2,4.4,1.9,6.3c3.3-1.2,8.6-4,6.6-11.2l-9.1,2.1C148.5,140.4,148.7,141.3,149,142.2z"/>
		<path class="st28" d="M119.7,159.7c-2.8-3.9-4.4-8.2-5.3-12.1l-11.7,2.2c1.1,4.4,2.9,7.9,4.2,10.1c2.6,4.4,5.7,3.3,5.7,3.3
			l6.6-1.7C120.2,160.9,119.7,159.7,119.7,159.7z"/>
	</g>
	<g>
		<g>
			<path class="st29" d="M233,97.7l-0.1,5.8l3.7-3.5l11.6-7.9l-9.5,2.1c0,0-4.7,1.8-5,2.1C233.5,96.5,233,97.7,233,97.7z"/>
			<polygon class="st10" points="228.3,94.7 248.2,92.1 233,97.7 			"/>
			<polygon class="st10" points="240.1,102.6 234.3,99.1 248.2,92.1 			"/>
		</g>
		<g>
			<g>
				<path class="st30" d="M207.7,121.7c0-0.5,0-0.9,0.1-1.4c0.1-0.4,0.1-0.9,0.2-1.3l0.5,0.1c-0.1,0.4-0.2,0.8-0.2,1.2
					c-0.1,0.4-0.1,0.9-0.1,1.3c0,0.1,0,0.3,0,0.4l-0.5,0C207.7,122,207.7,121.8,207.7,121.7z M209,116.1c0.4-0.9,0.9-1.8,1.5-2.7
					l0.4,0.3c-0.6,0.9-1.1,1.7-1.5,2.6L209,116.1z M223.8,113.3C223.7,113.3,223.7,113.2,223.8,113.3l0.1-0.5c0,0,0.1,0,0.1,0
					c0,0,0,0,0,0c0.3,0,0.9-0.1,1.3-0.3c0.3-0.2,0.5-0.6,0.7-1l0.4,0.2c-0.2,0.5-0.4,0.9-0.8,1.2c-0.5,0.4-1.3,0.5-1.6,0.4
					C223.9,113.3,223.8,113.3,223.8,113.3z M212.4,110.9c0.7-0.7,1.4-1.5,2.2-2.1l0.3,0.4c-0.8,0.7-1.5,1.4-2.2,2.1L212.4,110.9z
					 M221.4,109.8c-0.1-0.5-0.1-0.9,0-1.4c0-0.3,0.1-0.5,0.1-0.8l0.5,0.1c-0.1,0.2-0.1,0.5-0.1,0.7c-0.1,0.4-0.1,0.9,0,1.3
					c0,0.3,0.1,0.6,0.2,0.9l-0.4,0.2C221.6,110.5,221.5,110.2,221.4,109.8z M223.4,107.1L223.4,107.1l0.1-0.5l0.1,0
					c1,0.4,1.9,1,2.5,1.9l-0.4,0.3C225.1,108.1,224.3,107.5,223.4,107.1z M217.4,107.2c0.5-0.2,1.4-0.6,1.9-0.7
					c0.4-0.1,0.7-0.1,1.1-0.1l0,0.5c-0.3,0-0.7,0.1-1,0.1c-0.3,0.1-1,0.3-1.8,0.7L217.4,107.2z M222.9,104.8
					c0.6-0.9,1.3-1.7,2.1-2.3l0.3,0.4c-0.8,0.6-1.4,1.4-2,2.2L222.9,104.8z"/>
			</g>
			<g>
				<path class="st30" d="M227.8,101.3c0.5-0.2,1-0.4,1.4-0.5l-0.1-0.5c-0.5,0.1-1,0.3-1.5,0.5L227.8,101.3z"/>
			</g>
		</g>
	</g>
	<g>
		<path class="st15" d="M178.5,158.6l-0.2,0.2c-0.1,0.1-0.3,0.1-0.4,0l-4.3-4.7c-0.1-0.1-0.1-0.3,0-0.4l0.2-0.2
			c0.1-0.1,0.3-0.1,0.4,0l4.3,4.7C178.6,158.3,178.6,158.5,178.5,158.6z"/>
		<path class="st14" d="M193.1,154.8c-0.6-0.5-5,1.5-5,2.2s-3.1,7.3-3.1,7.3l-5.5-4.4l0,0c0-0.2-0.6-1.9-0.6-2.2
			c0-0.3-0.9-0.9-1.4-0.8c-0.4,0.1,0.4,0.6,0.4,0.7c0.1,0.3-0.4,0.4-0.4,0.4s-1.6-0.9-1.6-1.4c0-0.5-0.4-1.6-0.7-1.4
			c-0.2,0.1-0.2,0.9-0.1,1.2c-0.1-0.4-0.2-0.9-0.4-0.9c-0.3-0.1-0.4,0.2-0.3,0.4c0,0.2,0.5,1.9,0.6,2.1c0.1,0.2,2.7,2.3,3,2.7
			c0,0,7.1,8.1,7.6,8.3c0.4,0.2,2-2.6,3.5-4.5C190.6,162.8,194.9,156.2,193.1,154.8z"/>
		<path class="st13" d="M207.3,214.3c0,0,1,1,1,1.3c0,0.3,0.1,4.1-0.3,4.4c-0.4,0.3-1.6,0.6-1.2,1c0.3,0.3,2.5,0.2,3.9,0.2
			c0.4,0,0.9-3.4,1.1-3.9c0.2-0.7,0.8-2.3,0.6-2.8c-0.1-0.2-0.6-0.7-1.3-1.2c-0.8-0.5-1.5-1.6-1.5-1.6L207.3,214.3z"/>
		<path class="st18" d="M197.3,216.5c0,0,0.9,2.5,0.9,2.5c0.1,0.4,0.3,1.4,0.3,1.7c0,1.3-6-1.1-4.6-1.7c0.1-0.1,0.5-0.5,0.5-0.9
			c0.1-0.7-0.5-1.6-0.5-1.6L197.3,216.5z"/>
		<g>
			<path class="st31" d="M187.9,170.7c0,0-0.4,4.4-0.4,4.5c0,7.1-1.4,21.1-1.1,22.4c0.7,3.3,7.7,20,7.7,20l3.8-0.5l-5-20l1.8-8
				l2.6-15.9L187.9,170.7z"/>
			<path class="st15" d="M200.7,174.6l0.7,4.2l2,17.2l7.4,16.8c0,0-1,2.4-2.6,2.8l-11.8-17.3l-7.4-22.1l0.3-4.9L200.7,174.6z"/>
		</g>
		<path class="st32" d="M186.4,160.2l5.3,0.5c0,0,0.2-4.3,0.2-6.4c0-2.5-0.2-5.7-0.5-5.7c-0.8,0.2-2,0.7-2.7,1.6
			C186.4,153.5,186.4,160.2,186.4,160.2z"/>
		<path class="st25" d="M189,153.9c-0.1,0.8-2.1,21.6-2.1,21.6c9.6,4.7,14.9,0.8,14.9,0.8s-0.3-14.6,0.1-16.6
			c0.2-1.3,0.6-10.1-0.3-10.3c-1.1-0.3-2.3-0.6-3.7-0.8c-1.2-0.1-5.7-0.2-6.5,0.1C191.3,148.7,189.4,150.7,189,153.9z"/>
		<path class="st33" d="M211.1,213.2c0,0-2.2,6.3-3.1,6.6c-0.2,0.1-1.3,0.3-1.6,0.8c-0.1,0.1,0,0.6,0,0.6h4.7c0,0,0.6-2.8,0.8-4
			c0,0,1.2-3,1.1-3.3S211.1,213.2,211.1,213.2z"/>
		<path class="st33" d="M198.8,221.2l-0.7-2.2c0,0-1.4,0.6-2.2,0.5c-0.7-0.1-2.1-0.5-2.1-0.5c-2.9,0.9-5.2,1.4-4.8,2.2l0,0H198.8z"
			/>
		<g>
			<path class="st14" d="M185.6,169.1c0,0-0.1-0.1-0.1-0.1c0.2-2,0.1-4-0.5-4.7c0,0,0.2-0.3,0.3-0.6c0.7,0.6,1.1,2.1,1,4.6
				c0,0.2-0.1,0.3-0.1,0.5C185.9,169,185.7,169.1,185.6,169.1z"/>
		</g>
		<path class="st34" d="M211.3,175.7c0,0,0-0.1,0-0.1c-0.1-1.4-1.3-13.6-1.5-14.1c-0.2-0.5-5.5-8.1-5.5-8.1l-2.6,3.6l5.1,6.9
			c0.1,0.4,2,8.6,2,8.6s0.4,1.5,0.6,2.4c-0.1,0.2-0.2,0.4-0.2,0.6c-0.2,0.4-0.4,0.6-0.6,0.9c-0.2,0.3-0.6,1-0.7,1.2
			c-0.1,0.2-0.2,0.6-0.2,0.9c-0.1,0.3-0.1,0.6-0.1,0.7c0,0.1-0.1,0.3-0.2,0.4c-0.1,0.2,0.1,0.4,0.3,0.3c0.2-0.1,0.3-0.3,0.4-0.5
			c0.3-0.4,0.4-1.2,0.5-1.2c0.1,0,0.3,1.4,0.3,1.5c0,0.1,0.3,1.7,0.5,2c0.2,0.3,0.3,0.2,0.4,0.1c0-0.2-0.2-2.3-0.2-2.3
			s0-0.3,0.1-0.2c0.1,0.1,0.3,2,0.4,2.3c0.1,0.3,0.3,0.4,0.4,0.2c0.2-0.3-0.1-2.3-0.1-2.3s0-0.3,0.1-0.2c0.1,0,0.2,1.7,0.3,1.8
			c0.1,0.1,0.3,0.2,0.4,0c0.1-0.3-0.2-2.1-0.2-2.1s0-0.1,0.1-0.1s0.3,1.5,0.4,1.6c0.1,0.1,0.2,0,0.2,0c0.3-0.2-0.1-1.5-0.1-2.2
			c0-0.7-0.3-1.4-0.2-2.2C211.2,175.9,211.3,175.8,211.3,175.7z"/>
		<path class="st25" d="M208.4,158.2l-4.6,3.1c0,0-2.6-3.8-4-5.2c-1.7-1.7,0.6-7,1.7-6.7C204.1,150.1,208.4,158.2,208.4,158.2z"/>
		<path class="st18" d="M197.5,144.1l0.7,4.5c0,0-2.5,5.4-4,4.9c-1.3-0.4-0.5-5.2-0.5-5.2s0.7-2.6,0.5-3.8
			C194,143.2,197.5,144.1,197.5,144.1z"/>
		<path class="st35" d="M194.2,144.5c-0.2-1.3,3.3-0.4,3.3-0.4l0.1,0.4c-0.1,0.3-0.2,0.5-0.4,0.6c-0.8,0.8-2,1.4-3.1,1.4
			C194.2,145.8,194.3,145.1,194.2,144.5z"/>
		<g>
			<path class="st18" d="M198.1,137.7c0.1,0,0.8,5.2-0.5,6.6c-1.3,1.4-3.9,1.9-4.8,0.8c-1-1.2-1-6.8,1.1-8.3
				C195.8,135.3,198.1,137.7,198.1,137.7z"/>
			<path class="st33" d="M194.6,134c1.6,0.3,2.6,1.3,3,1.7c0.7,0.1,1.7,0.5,2.7,2.2c1.2,2.1,0.3,4.4-1.1,5.5
				c-1.4,1.1-1.4,2.4-1.4,2.4l-0.2-0.7c-0.2-0.5-0.2-1-0.2-1.6c0-0.3,0.1-0.7,0.2-1c0.3-0.8-0.7-1.2-1.1-1.9
				c-0.2-0.5-0.2-1.6-0.6-2.4l-0.4-0.6c0,0-1-0.8-2-0.6S192.5,133.6,194.6,134z"/>
			<path class="st18" d="M196.6,141.6c0,0.6,0.3,1.2,0.6,1.2c0.4,0,0.7-0.5,0.7-1.1c0-0.6-0.3-1.2-0.6-1.2
				C196.9,140.5,196.6,141,196.6,141.6z"/>
		</g>
		<path class="st0" d="M194.4,143.1l-2-0.1c0,0,0,0.8,0.9,0.8C194.4,143.9,194.4,143.1,194.4,143.1z"/>
	</g>
	<polygon class="st8" points="104.9,221 105.9,220.8 101.7,198.4 100.7,198.6 	"/>
	<polygon class="st8" points="94.1,221.1 92.9,221.1 97.3,198.4 98.2,198.6 	"/>
	<polygon class="st8" points="83.3,221.1 84.3,221.1 80.1,198.5 79.1,198.7 	"/>
	<path class="st17" d="M87.6,167.8c-3.9,0.4-8.9,0.9-13.9,9.4c-5.5,9.3-2.6,23.3,1.7,27.1c4.3,3.9,18.4,8.7,30.3,1.5
		c0,0,7.2-4.3,3.5-11.5c-5.7-11.1-4.9-13.4-7.4-17.7C99.3,172.2,95.7,166.9,87.6,167.8z"/>
	<path class="st9" d="M73.7,177.2c3.4-5.8,6.8-7.9,9.9-8.7c-1.2,1.2-2.4,2.8-3.6,4.8c-5.5,9.3-2.6,23.3,1.7,27.1
		c3.8,3.4,15.4,7.6,26.2,3.5c-1.1,1.2-2.2,1.9-2.2,1.9c-11.9,7.2-26,2.4-30.3-1.5C71.1,200.5,68.2,186.5,73.7,177.2z"/>
	<polygon class="st12" points="99.9,182 100.9,185 97.9,183.8 	"/>
	<path class="st29" d="M96.8,173.1c0.2,0,0.8,0.2,1.6,1.7c1,1.9,2.5,7.8,2.5,7.8l-4.5,1.7l-0.6-1.2l-1-9.5
		C94.9,173.6,96.8,173.1,96.8,173.1z"/>
	<path class="st10" d="M90.9,172.3c1.3,0,4.5,0.4,5.9,0.8c0,0,1.1,9.3-1,16.4c-0.5,1.6,0.4,6.6,0.4,6.6l-13.3-0.2c0,0,1.6-12.1,1-14
		c-0.6-1.9-0.6-8.7-0.6-8.7s0.1,0,3-0.5C87.6,172.4,89.5,172.3,90.9,172.3z"/>
	<path class="st14" d="M89.3,213.4c0,0,0.3,3.4,0.8,4.3c0.5,0.9,0,2.5-0.1,2.8c0,0.2-1.1,0.5-2.9,0.3c-1.8-0.2-1.7-0.6-1.6-1.3
		c0.1-0.7,1.1-1.5,1.1-2.1c0.1-0.6-0.5-2.9-0.5-2.9L89.3,213.4z"/>
	<path class="st27" d="M94.7,193.3c0,0,9.2-0.5,11.3,0.7c2.1,1.2-0.4,3.8-0.4,3.8s-7.5,3.3-20,4c-3,0.2-3.2-7.7-2.7-8.4
		C83.5,192.7,94.7,193.3,94.7,193.3z"/>
	<path class="st33" d="M87,221.1c-1.8-0.2-1.6-1.1-1.4-1.8c0.1-0.4,0.6-0.9,0.9-1.4c0.2,0.1,0.4,0.4,1.2,0.6
		c0.8,0.2,1.9-0.2,2.7-0.5c0.3,1,0.3,2.2,0.2,2.3C90.5,220.6,88.8,221.3,87,221.1z"/>
	<path class="st4" d="M88,199.9c0.4,2.8,2.2,16.6,2.2,16.6l-4.2,0.5c0,0-5.2-18.1-4.9-20.8c0.3-2.8,2.2-3,2.2-3S87,192.5,88,199.9z"
		/>
	<path class="st14" d="M83.1,174.2c1.2-0.5,1.9,10.8,2,15.4c2.2,0.2,6.1,0,7-0.1c0.5,0,1.5-0.4,1.9-0.5c0.5-0.1,0.9-0.1,1.1-0.1
		c0.1,0,2.4,1,2.6,1.2c0.2,0.3,0.9,0.9,0.8,1.2c-0.1,0.3-1.3-0.8-1.3-0.8l-0.6-0.3c0.7,0.7,2,1.6,1.9,1.9c-0.2,0.3-1.4-0.6-2.3-1.2
		c0.7,0.7,1.7,1.9,1.4,2.1c-0.2,0.2-1.2-1.2-2.4-1.6c-0.4-0.1-0.8,0.3-1.2,0.3c-0.2,0-0.6,0.1-0.8,0l-1.2-0.3
		c-0.4,0-0.4,0.3-0.8,0.4c-0.5,0.1-1.3,0.2-1.9,0.4c-3.5,0.9-4.7,1.3-5.8,1.3C80.4,193.4,80.2,175.3,83.1,174.2z"/>
	<path class="st29" d="M80.8,184.7c-0.2-4.7-0.2-10.6,2.5-11.6c1-0.4,2.9,2,2.6,11.7C84.4,185,82.3,185.1,80.8,184.7z"/>
	<polygon class="st12" points="95.6,182.7 95.3,182.7 91.3,192.7 91.6,192.7 	"/>
	<path class="st14" d="M101.7,216.3c0,0-0.4,1.2,0.3,2c0.7,0.8,3.4,1.5,3.8,2c0.4,0.4,0.3,0.8,0.3,0.8l-7.7-0.2l0.1-2.3l0.4-1.7
		L101.7,216.3z"/>
	<path class="st33" d="M102.4,218.7c0,0-2,0.8-2.9,0.3c-1-0.5-0.9-0.6-1.2-0.4c-0.3,0.2-0.4,2.4-0.4,2.4l8.7,0.3
		c0.6,0,0.9-0.5,0.4-0.8c-0.3-0.3-0.7-0.4-0.9-0.6C105.4,219.4,102.4,218.7,102.4,218.7z"/>
	<path class="st4" d="M101.4,195.5c0.6-1.3,1.9-2.9,4.3-1.9c2.3,0.9,2.9,3.2,2.2,5.6c-0.7,2.4-5.4,16.2-5.6,18.1l-3.8,0
		c0,0,0.7-11,0.9-13.6C99.5,201.1,100.4,197.6,101.4,195.5z"/>
	<path d="M107.5,182.7H94.9c-0.3,0-0.6,0.2-0.8,0.5l-3.9,9.5h-6.9c-0.2,0-0.4,0.2-0.4,0.4l0,0c0,0.2,0.2,0.4,0.4,0.4h19.7
		c0.5,0,1-0.3,1.3-0.8l3.9-8.7C108.5,183.3,108.1,182.7,107.5,182.7z"/>
	<path class="st0" d="M100.7,188.2c-0.1,0.4-0.5,0.7-0.8,0.6c-0.4-0.1-0.6-0.5-0.5-0.9c0.1-0.4,0.5-0.7,0.8-0.6
		C100.6,187.4,100.8,187.8,100.7,188.2z"/>
	<g>
		<path class="st8" d="M93.9,160.9c-0.4-0.1-0.8-0.3-1.1-0.4c-0.4-0.2-0.9-0.4-1.3-0.5c-0.7-0.1-1.9,0-2.6,0.7
			c-0.8,0.9-2.3,0.2-2,4.9c0.3,5.3,3.3,4.8,3.4,4.7c0.1-0.1,2.6-3.4,2.6-3.4s0.9,2,0.9,1.9C93.8,168.6,98.4,162.4,93.9,160.9z"/>
		<path class="st14" d="M91.6,170.6l0.3,1.9c0,0,0.6,2.7-0.2,3.3c-0.7,0.5-3.1-3.4-3.1-3.4l0.3-4.8L91.6,170.6z"/>
		<path class="st10" d="M88.7,169.1c0.6,1.6,2.1,2.7,3.1,3.1l-0.2-1.6l-2.8-3L88.7,169.1z"/>
		<path class="st14" d="M91.5,162.3c1.6-0.3,3,1,2.9,2.6c0,0.7-0.1,1.5-0.2,2.4c-0.3,2.2-1.8,4.1-2.8,4c-1-0.2-3.5-2.1-3.1-5.2
			C88.6,164.1,89.8,162.6,91.5,162.3z"/>
		<path class="st14" d="M89,166.5c-0.1,0.5-0.5,0.8-0.9,0.8c-0.4-0.1-0.6-0.5-0.6-1s0.5-0.8,0.9-0.8C88.8,165.5,89.1,166,89,166.5z"
			/>
		<path class="st8" d="M88.4,165.5c0,0,1.2,0.3,1.6-0.5c0.4-0.8,2-2.4,4.1-1.7c2,0.7-1.8-1.7-1.9-1.7c-0.2,0-2.1,0-2.1,0
			s-1.5,1.2-1.6,1.4c-0.1,0.1-0.5,1.6-0.5,1.6L88.4,165.5z"/>
	</g>
	<path class="st0" d="M90.6,168.7l2.2,0.4c0,0-0.2,0.8-1.2,0.7C90.4,169.6,90.6,168.7,90.6,168.7z"/>
	<path class="st0" d="M68,144.3l2.2,0.4c0,0-0.2,0.8-1.2,0.7C67.9,145.2,68,144.3,68,144.3z"/>
	<path class="st4" d="M245,211.4c-1.9,0.2-3.8,0.5-5.6,1c-3.4,0.9-6.6,2.2-9.8,3.6c-1.6,0.7-3.2,1.4-4.7,2.1
		c-0.7,0.4-1.4,0.7-2.1,1.2c-0.9,0.6-2.3,1.8-2.5,2l0.7,0c0.5-0.4,2.3-2,4.9-3.2C231.9,215.2,238.2,212.2,245,211.4
		C245,211.4,245,211.4,245,211.4z"/>
</g>
</svg>
