<?xml version="1.0" encoding="utf-8"?>
<!-- Generator: Adobe Illustrator 27.2.0, SVG Export Plug-In . SVG Version: 6.00 Build 0)  -->
<svg version="1.1" id="Layer_1" xmlns="http://www.w3.org/2000/svg" xmlns:xlink="http://www.w3.org/1999/xlink" x="0px" y="0px"
	 viewBox="0 0 287 318" style="enable-background:new 0 0 287 318;" xml:space="preserve">
<style type="text/css">
	.st0{fill:#FFFFFF;}
	.st1{fill:none;stroke:#DADADA;}
	.st2{fill:none;}
	
		.st3{clip-path:url(#SVGID_00000183223261019286920760000008286923146976441016_);fill:url(#SVGID_00000026150601236329088610000017039895529261654183_);}
	.st4{opacity:0.3098;clip-path:url(#SVGID_00000162344671813565201100000005697007890259431344_);}
	.st5{clip-path:url(#SVGID_00000107562628614166171840000018010972262972358834_);}
	
		.st6{clip-path:url(#SVGID_00000054968914596455396580000012009924656891840675_);fill:url(#SVGID_00000181078013848294133250000004232923690760201129_);}
	.st7{clip-path:url(#SVGID_00000119799385563340189150000016527248939244817574_);}
	
		.st8{clip-path:url(#SVGID_00000158001123376436628400000002953802347752116103_);fill:url(#SVGID_00000072268264290247714840000010574532781940302737_);}
	.st9{clip-path:url(#SVGID_00000024708660337848288930000009802997626013298867_);}
	
		.st10{clip-path:url(#SVGID_00000008853383925357472220000002496856464312258690_);fill:url(#SVGID_00000011723003595629678340000013322830322709351088_);}
	.st11{opacity:0.2706;clip-path:url(#SVGID_00000162344671813565201100000005697007890259431344_);}
	.st12{clip-path:url(#SVGID_00000013155967142230472840000014327633635240703139_);fill:#622A7D;}
	
		.st13{clip-path:url(#SVGID_00000054246047814472529670000001705009982531269771_);fill:url(#SVGID_00000080187721168238438870000010418975198856513923_);}
	.st14{opacity:0.4392;clip-path:url(#SVGID_00000070087378032405264560000006598008672304548535_);}
	.st15{clip-path:url(#SVGID_00000140736240456463812670000015453671615946743473_);fill:#B96428;}
	
		.st16{clip-path:url(#SVGID_00000056400956013903699960000017778959801932648596_);fill:url(#SVGID_00000001643253481691346180000012472412108721373062_);}
	.st17{opacity:0.2588;clip-path:url(#SVGID_00000036962607552322628360000014715916664590064299_);}
	.st18{clip-path:url(#SVGID_00000137131993897942023940000003910975255597962633_);fill:#33707D;}
	
		.st19{clip-path:url(#SVGID_00000057141647349841784550000016254790876671653012_);fill:url(#SVGID_00000035519857367017407380000018045385229142458805_);}
	.st20{opacity:0.3686;clip-path:url(#SVGID_00000129204871064446284840000001304674016867474357_);}
	.st21{clip-path:url(#SVGID_00000155126928389666569840000015377741517398432897_);fill:#B36328;}
	
		.st22{clip-path:url(#SVGID_00000022531559549472198400000001673629730750035897_);fill:url(#SVGID_00000036240451646951902490000010086461911205490348_);}
	.st23{opacity:0.3294;clip-path:url(#SVGID_00000085933371603558280820000008896328514659796138_);}
	.st24{clip-path:url(#SVGID_00000158016922323910353350000015067506893047446408_);fill:#A8A7A7;}
	
		.st25{clip-path:url(#SVGID_00000051366810908542904420000010813131869149117827_);fill:url(#SVGID_00000030470360020337720250000003238920644831805609_);}
	.st26{clip-path:url(#SVGID_00000063595443482597503230000006016313064071090860_);fill:#4A4FA0;}
	
		.st27{clip-path:url(#SVGID_00000065045146253543958740000002056054999937401525_);fill:url(#SVGID_00000054246480247404950570000002757983807746164409_);}
	.st28{clip-path:url(#SVGID_00000121281405476488400270000008948174402068255930_);fill:#4A4FA0;}
	
		.st29{clip-path:url(#SVGID_00000116211331166787913070000004499868875181846400_);fill:url(#SVGID_00000049219523806024506500000012517864838503222202_);}
</style>
<g>
	<path class="st0" d="M22,6h245c6.6,0,12,5.4,12,12v276c0,6.6-5.4,12-12,12H22c-6.6,0-12-5.4-12-12V18C10,11.4,15.4,6,22,6z"/>
	<path class="st1" d="M22,6.5h245c6.4,0,11.5,5.1,11.5,11.5v276c0,6.4-5.1,11.5-11.5,11.5H22c-6.4,0-11.5-5.1-11.5-11.5V18
		C10.5,11.6,15.6,6.5,22,6.5z"/>
</g>
<rect x="173.1" y="193.4" class="st2" width="69.8" height="69.8"/>
<g>
	<defs>
		<polygon id="SVGID_1_" points="190.5,139.1 192.5,139.3 193.8,117.6 191.8,117.5 		"/>
	</defs>
	<clipPath id="SVGID_00000127013293623358308230000017834475346928503937_">
		<use xlink:href="#SVGID_1_"  style="overflow:visible;"/>
	</clipPath>
	
		<linearGradient id="SVGID_00000063602862626319846670000004368217855281075851_" gradientUnits="userSpaceOnUse" x1="-1360.552" y1="1647.3422" x2="-1360.4891" y2="1647.3422" gradientTransform="matrix(20.8988 541.1771 97.4284 -377.5222 -131872.375 1358322.625)">
		<stop  offset="0" style="stop-color:#FFFFFF"/>
		<stop  offset="1" style="stop-color:#D3EDF5"/>
	</linearGradient>
	
		<polygon style="clip-path:url(#SVGID_00000127013293623358308230000017834475346928503937_);fill:url(#SVGID_00000063602862626319846670000004368217855281075851_);" points="
		193.4,106.2 194.6,136.4 190.9,150.5 189.8,120.3 	"/>
</g>
<g>
	<g>
		<defs>
			<rect id="SVGID_00000064322237398672665770000006008011565595455928_" x="25.5" y="30" width="222.9" height="222.1"/>
		</defs>
		<clipPath id="SVGID_00000095319810883466209310000009639625057816782742_">
			<use xlink:href="#SVGID_00000064322237398672665770000006008011565595455928_"  style="overflow:visible;"/>
		</clipPath>
		<g style="opacity:0.3098;clip-path:url(#SVGID_00000095319810883466209310000009639625057816782742_);">
			<g>
				<defs>
					<rect id="SVGID_00000142874059381857725480000009175317084016769940_" x="68.1" y="84.2" width="148.3" height="139.2"/>
				</defs>
				<clipPath id="SVGID_00000058572706074401481080000014142114114512377770_">
					<use xlink:href="#SVGID_00000142874059381857725480000009175317084016769940_"  style="overflow:visible;"/>
				</clipPath>
				<g style="clip-path:url(#SVGID_00000058572706074401481080000014142114114512377770_);">
					<defs>
						<path id="SVGID_00000091695444156223741150000010360034812343730091_" d="M149.6,122.6c-16.4-4.8-33.6-42.4-60.7-38.1
							c-32,5.1-26.8,76.2,13.3,112.9c21.2,19.4,51.2,29.2,79.7,25C219.9,216.9,246.5,150.9,149.6,122.6"/>
					</defs>
					<clipPath id="SVGID_00000027567448074562132870000012877689345401183880_">
						<use xlink:href="#SVGID_00000091695444156223741150000010360034812343730091_"  style="overflow:visible;"/>
					</clipPath>
					
						<linearGradient id="SVGID_00000029738181976290633360000012963146170125797506_" gradientUnits="userSpaceOnUse" x1="-1355.6168" y1="1655.0958" x2="-1355.5426" y2="1655.0958" gradientTransform="matrix(2251.8582 1513.1472 1513.1472 -2251.8582 548318.8125 5778384.5)">
						<stop  offset="0" style="stop-color:#D9BCD9"/>
						<stop  offset="1" style="stop-color:#9E55A0"/>
					</linearGradient>
					
						<polygon style="clip-path:url(#SVGID_00000027567448074562132870000012877689345401183880_);fill:url(#SVGID_00000029738181976290633360000012963146170125797506_);" points="
						115.9,-7.6 314.3,125.8 187.5,314.4 -10.9,181.1 					"/>
				</g>
			</g>
		</g>
		<g style="opacity:0.3098;clip-path:url(#SVGID_00000095319810883466209310000009639625057816782742_);">
			<g>
				<defs>
					<rect id="SVGID_00000068673326126899631990000014449520442315835060_" x="54.6" y="93.6" width="164.6" height="123.7"/>
				</defs>
				<clipPath id="SVGID_00000123419793031413333530000018414133991368033457_">
					<use xlink:href="#SVGID_00000068673326126899631990000014449520442315835060_"  style="overflow:visible;"/>
				</clipPath>
				<g style="clip-path:url(#SVGID_00000123419793031413333530000018414133991368033457_);">
					<defs>
						<path id="SVGID_00000015322720325887033740000013518240018996755339_" d="M113.5,135.5c-10.7,13.4-52.1,14.9-58.4,41.6
							c-7.4,31.5,60.2,53.8,109.4,30.7c26.1-12.2,46.5-36.2,53.5-64.1C227.5,106.5,176.6,56.7,113.5,135.5"/>
					</defs>
					<clipPath id="SVGID_00000017501640589621767010000013253760950109158797_">
						<use xlink:href="#SVGID_00000015322720325887033740000013518240018996755339_"  style="overflow:visible;"/>
					</clipPath>
					
						<linearGradient id="SVGID_00000170996848452925777300000000781851590711305344_" gradientUnits="userSpaceOnUse" x1="-1355.5182" y1="1655.0718" x2="-1355.4438" y2="1655.0718" gradientTransform="matrix(3112.4504 -221.601 -221.601 -3112.4504 4585765 4851097.5)">
						<stop  offset="0" style="stop-color:#F3E1EE"/>
						<stop  offset="1" style="stop-color:#80489B"/>
					</linearGradient>
					
						<polygon style="clip-path:url(#SVGID_00000017501640589621767010000013253760950109158797_);fill:url(#SVGID_00000170996848452925777300000000781851590711305344_);" points="
						35.4,57.6 226.6,44 239.8,230 48.7,243.7 					"/>
				</g>
			</g>
		</g>
		<g style="opacity:0.3098;clip-path:url(#SVGID_00000095319810883466209310000009639625057816782742_);">
			<g>
				<defs>
					<rect id="SVGID_00000007425850249419894050000014611916751922276741_" x="89" y="58.7" width="20.5" height="22.5"/>
				</defs>
				<clipPath id="SVGID_00000076584163662908359200000017145633080323446957_">
					<use xlink:href="#SVGID_00000007425850249419894050000014611916751922276741_"  style="overflow:visible;"/>
				</clipPath>
				<g style="clip-path:url(#SVGID_00000076584163662908359200000017145633080323446957_);">
					<defs>
						<path id="SVGID_00000074411636140408525830000001307617675906866080_" d="M101.1,65.8c-2.3-1.1-3.9-7-8-7.1
							c-4.8,0-5.8,10.5-0.8,16.9c2.6,3.4,6.8,5.5,11.1,5.6C109.2,81.3,114.7,72.3,101.1,65.8"/>
					</defs>
					<clipPath id="SVGID_00000132050080946266573680000015492169561657534365_">
						<use xlink:href="#SVGID_00000074411636140408525830000001307617675906866080_"  style="overflow:visible;"/>
					</clipPath>
					
						<linearGradient id="SVGID_00000065753772755347633390000003977246071288592788_" gradientUnits="userSpaceOnUse" x1="-1354.0109" y1="1653.8805" x2="-1353.9365" y2="1653.8805" gradientTransform="matrix(412.0328 224.6693 224.6693 -412.0328 186412.4688 985722.625)">
						<stop  offset="0" style="stop-color:#D9BCD9"/>
						<stop  offset="9.204745e-04" style="stop-color:#D9BCD9"/>
						<stop  offset="7.276493e-02" style="stop-color:#CAA1CA"/>
						<stop  offset="0.1542" style="stop-color:#BE8BBD"/>
						<stop  offset="0.2504" style="stop-color:#B47AB4"/>
						<stop  offset="0.3695" style="stop-color:#AE6FAD"/>
						<stop  offset="0.5364" style="stop-color:#AA68A9"/>
						<stop  offset="1" style="stop-color:#A966A8"/>
					</linearGradient>
					
						<polygon style="clip-path:url(#SVGID_00000132050080946266573680000015492169561657534365_);fill:url(#SVGID_00000065753772755347633390000003977246071288592788_);" points="
						93.6,47.2 124.2,63.9 108.4,92.8 77.9,76.1 					"/>
				</g>
			</g>
		</g>
		<g style="opacity:0.2706;clip-path:url(#SVGID_00000095319810883466209310000009639625057816782742_);">
			<g>
				<defs>
					<rect id="SVGID_00000067955003628875457600000013350134259228272025_" x="94.6" y="94" width="115.1" height="116.1"/>
				</defs>
				<clipPath id="SVGID_00000183937497509030876540000007276921004914329218_">
					<use xlink:href="#SVGID_00000067955003628875457600000013350134259228272025_"  style="overflow:visible;"/>
				</clipPath>
				<path style="clip-path:url(#SVGID_00000183937497509030876540000007276921004914329218_);fill:#622A7D;" d="M209.7,111.2
					l-1.4,25.7c-0.2,3-2.7,5.4-5.6,5.2l-4.4-0.2l-1.4,25.6l-2.1,37.5v0c-0.2,3-2.7,5.4-5.6,5.2l-1.2-0.1l-61.5-3.4l-20.4,2.3
					L94.6,103.2l13.5-1.5l0-2l0-4.5l18.4,0.2c1-1,2.4-1.5,3.8-1.4l31.6,1.7l-0.7,0.1l1.1,0l1.4,0l-1.9-0.1l5-0.6l0.1,0.7l4.3,0
					l9.6,0.1l0,0.8l12.4,0.7l2.1,0.1c2.9,0.2,5.1,2.8,5,5.8l-0.1,1.7l4.4,0.2C207.7,105.5,209.9,108.1,209.7,111.2"/>
			</g>
		</g>
	</g>
	<g>
		<defs>
			<path id="SVGID_00000181809560753988298090000018069006982258860457_" d="M123.9,112.3l-5.6,101.5c-0.2,3,2.1,5.6,5,5.8l64,3.5
				l1.2,0.1c2.9,0.2,5.4-2.2,5.6-5.2v0l2.1-37.5l1.4-25.6l4.4,0.2c2.9,0.2,5.4-2.2,5.6-5.2l1.4-25.7c0.2-3-2.1-5.6-5-5.8l-4.4-0.2
				l0.1-1.7c0.2-3-2.1-5.6-5-5.8l-2.1-0.1l-63-3.5c-0.1,0-0.2,0-0.3,0C126.4,107,124.1,109.3,123.9,112.3"/>
		</defs>
		<clipPath id="SVGID_00000072983860818730783730000013328291587621531540_">
			<use xlink:href="#SVGID_00000181809560753988298090000018069006982258860457_"  style="overflow:visible;"/>
		</clipPath>
		
			<linearGradient id="SVGID_00000129183443154675179600000011675507514995709871_" gradientUnits="userSpaceOnUse" x1="-1355.6062" y1="1654.8716" x2="-1355.5319" y2="1654.8716" gradientTransform="matrix(522.6991 2052.2817 2052.2817 -522.6991 -2687545.5 3647169.75)">
			<stop  offset="0" style="stop-color:#F0D73B"/>
			<stop  offset="1" style="stop-color:#F58921"/>
		</linearGradient>
		
			<polygon style="clip-path:url(#SVGID_00000072983860818730783730000013328291587621531540_);fill:url(#SVGID_00000129183443154675179600000011675507514995709871_);" points="
			203.5,85.3 236.8,216.2 123.7,245 90.4,114.1 		"/>
	</g>
	<g>
		<defs>
			<rect id="SVGID_00000155130816997670209480000008254645865004346522_" x="26.4" y="44" width="222.9" height="222.1"/>
		</defs>
		<clipPath id="SVGID_00000042721012863845344510000007965582514500576917_">
			<use xlink:href="#SVGID_00000155130816997670209480000008254645865004346522_"  style="overflow:visible;"/>
		</clipPath>
		<g style="opacity:0.4392;clip-path:url(#SVGID_00000042721012863845344510000007965582514500576917_);">
			<g>
				<defs>
					<rect id="SVGID_00000059309536472593517400000014578708949577132454_" x="116.9" y="107" width="77.7" height="116"/>
				</defs>
				<clipPath id="SVGID_00000116940047370320272710000008474633304501497781_">
					<use xlink:href="#SVGID_00000059309536472593517400000014578708949577132454_"  style="overflow:visible;"/>
				</clipPath>
				<path style="clip-path:url(#SVGID_00000116940047370320272710000008474633304501497781_);fill:#B96428;" d="M194.7,180.3
					l-2.1,37.5c-0.1,0-0.2,0-0.3,0l-4.7-0.3l-0.1,1.7c-0.1,1.5-0.7,2.8-1.7,3.7l-64-3.5c-2.9-0.2-5.1-2.8-5-5.8l5.6-101.5
					c0.2-3,2.7-5.4,5.6-5.2l63,3.5c1.8,1,2.9,3,2.8,5.2l-3.9,64.4L194.7,180.3C194.6,180.3,194.6,180.3,194.7,180.3"/>
			</g>
		</g>
	</g>
	<g>
		<defs>
			<polygon id="SVGID_00000003075013266646042000000001887290324822905743_" points="174.6,220.3 187.2,221 191.1,221.2 
				191.3,217.7 193.5,180.2 197.4,116.5 193.8,116.3 180.9,115.5 			"/>
		</defs>
		<clipPath id="SVGID_00000048494616520259588950000010302215217271717263_">
			<use xlink:href="#SVGID_00000003075013266646042000000001887290324822905743_"  style="overflow:visible;"/>
		</clipPath>
		
			<linearGradient id="SVGID_00000003789681439491489880000007347179892375838392_" gradientUnits="userSpaceOnUse" x1="-1355.8793" y1="1654.7986" x2="-1355.8049" y2="1654.7986" gradientTransform="matrix(1137.0529 1601.5511 1601.5511 -1137.0529 -1108385.75 4053224.25)">
			<stop  offset="0" style="stop-color:#FFFFFF"/>
			<stop  offset="1" style="stop-color:#D3EDF5"/>
		</linearGradient>
		
			<polygon style="clip-path:url(#SVGID_00000048494616520259588950000010302215217271717263_);fill:url(#SVGID_00000003789681439491489880000007347179892375838392_);" points="
			189.7,104.8 247.3,185.8 182.3,232 124.7,151 		"/>
	</g>
	<g>
		<defs>
			<rect id="SVGID_00000054987025980442284050000009358587627721976226_" x="26.4" y="44" width="222.9" height="222.1"/>
		</defs>
		<clipPath id="SVGID_00000023999344229598043170000015856019821310983330_">
			<use xlink:href="#SVGID_00000054987025980442284050000009358587627721976226_"  style="overflow:visible;"/>
		</clipPath>
		<g style="opacity:0.2588;clip-path:url(#SVGID_00000023999344229598043170000015856019821310983330_);">
			<g>
				<defs>
					<rect id="SVGID_00000162323970758547007900000001027408499948453267_" x="174.6" y="115.5" width="20" height="105.5"/>
				</defs>
				<clipPath id="SVGID_00000177470997124907063460000018385043601384498580_">
					<use xlink:href="#SVGID_00000162323970758547007900000001027408499948453267_"  style="overflow:visible;"/>
				</clipPath>
				<path style="clip-path:url(#SVGID_00000177470997124907063460000018385043601384498580_);fill:#33707D;" d="M194.7,180.3
					l-2.1,37.5c-0.1,0-0.2,0-0.3,0l-1.1-0.1l-3.6-0.2l-0.1,1.7c0,0.6-0.2,1.2-0.4,1.7l-12.5-0.7l6.2-104.7l12.9,0.8l-3.9,63.7
					l3.6,0.2L194.7,180.3C194.6,180.3,194.6,180.3,194.7,180.3"/>
			</g>
		</g>
	</g>
	<g>
		<defs>
			<path id="SVGID_00000060742678226659856710000011756852305111157682_" d="M111.3,108.7L105,212.3c-0.2,3.1,2.2,5.8,5.3,6
				l69.4,4.2c3.1,0.2,5.8-2.2,6-5.3l0.1-1.7l4.7,0.3c3.1,0.2,5.8-2.2,6-5.3l1.6-26.2c0.2-3.1-2.2-5.8-5.3-6L188,178l3.9-64.4
				c0.2-3.1-2.2-5.8-5.3-6l-69.4-4.2c-0.1,0-0.2,0-0.3,0C113.9,103.4,111.5,105.7,111.3,108.7"/>
		</defs>
		<clipPath id="SVGID_00000070833494101384772430000001771916941219206556_">
			<use xlink:href="#SVGID_00000060742678226659856710000011756852305111157682_"  style="overflow:visible;"/>
		</clipPath>
		
			<linearGradient id="SVGID_00000047762821376341541560000003030238099265567674_" gradientUnits="userSpaceOnUse" x1="-1355.5988" y1="1655.0321" x2="-1355.5244" y2="1655.0321" gradientTransform="matrix(1037.4226 2111.8665 -2111.8665 1037.4226 4901647.5 1145958.5)">
			<stop  offset="0" style="stop-color:#F0D73B"/>
			<stop  offset="1" style="stop-color:#F58921"/>
		</linearGradient>
		
			<polygon style="clip-path:url(#SVGID_00000070833494101384772430000001771916941219206556_);fill:url(#SVGID_00000047762821376341541560000003030238099265567674_);" points="
			57.6,126.6 123,259.6 245.3,199.5 180,66.5 		"/>
	</g>
	<g>
		<defs>
			<rect id="SVGID_00000178175705252970588880000008177749308217216951_" x="26.4" y="44" width="222.9" height="222.1"/>
		</defs>
		<clipPath id="SVGID_00000117642504566528159120000007013810867284670140_">
			<use xlink:href="#SVGID_00000178175705252970588880000008177749308217216951_"  style="overflow:visible;"/>
		</clipPath>
		<g style="opacity:0.3686;clip-path:url(#SVGID_00000117642504566528159120000007013810867284670140_);">
			<g>
				<defs>
					<rect id="SVGID_00000151518350675695792900000013118311820682566785_" x="107.9" y="110.1" width="74" height="107.1"/>
				</defs>
				<clipPath id="SVGID_00000097478269969940677880000005770448334689811389_">
					<use xlink:href="#SVGID_00000151518350675695792900000013118311820682566785_"  style="overflow:visible;"/>
				</clipPath>
				<polygon style="clip-path:url(#SVGID_00000097478269969940677880000005770448334689811389_);fill:#B36328;" points="
					181.9,110.9 180.4,217.3 107.9,216.4 109.1,110.1 				"/>
			</g>
		</g>
	</g>
	<g>
		<defs>
			<polygon id="SVGID_00000142155634094608856260000007238121218738153114_" points="107.2,112.8 106.1,214.6 164.8,215.2 
				178.6,215.4 180.1,109.1 170.5,108.9 161.5,108.8 107.3,108.2 			"/>
		</defs>
		<clipPath id="SVGID_00000142139249827542021430000007504967031028532871_">
			<use xlink:href="#SVGID_00000142155634094608856260000007238121218738153114_"  style="overflow:visible;"/>
		</clipPath>
		
			<linearGradient id="SVGID_00000026882899784353592620000001077537859168700544_" gradientUnits="userSpaceOnUse" x1="-1355.6711" y1="1654.9984" x2="-1355.5969" y2="1654.9984" gradientTransform="matrix(1640.3401 2196.9072 2196.9072 -1640.3401 -1412021.875 5693140.5)">
			<stop  offset="0" style="stop-color:#FFFFFF"/>
			<stop  offset="1" style="stop-color:#D3EDF5"/>
		</linearGradient>
		
			<polygon style="clip-path:url(#SVGID_00000142139249827542021430000007504967031028532871_);fill:url(#SVGID_00000026882899784353592620000001077537859168700544_);" points="
			153.6,72.8 231.5,177 132.6,250.8 54.8,146.6 		"/>
	</g>
	<g>
		<defs>
			<rect id="SVGID_00000143587108542305286810000010269885482844247171_" x="26.4" y="44" width="222.9" height="222.1"/>
		</defs>
		<clipPath id="SVGID_00000016780603894696821660000016323786638790165386_">
			<use xlink:href="#SVGID_00000143587108542305286810000010269885482844247171_"  style="overflow:visible;"/>
		</clipPath>
		<g style="opacity:0.3294;clip-path:url(#SVGID_00000016780603894696821660000016323786638790165386_);">
			<g>
				<defs>
					<rect id="SVGID_00000112606352967708661400000011626536367355701405_" x="106.1" y="108.2" width="71.7" height="107"/>
				</defs>
				<clipPath id="SVGID_00000085943573028534217410000010211680705558986925_">
					<use xlink:href="#SVGID_00000112606352967708661400000011626536367355701405_"  style="overflow:visible;"/>
				</clipPath>
				<polygon style="clip-path:url(#SVGID_00000085943573028534217410000010211680705558986925_);fill:#A8A7A7;" points="
					177.8,214.3 164.8,215.2 106.1,214.6 107.2,112.8 161.5,108.8 170.5,108.2 170.5,108.9 				"/>
			</g>
		</g>
	</g>
	<g>
		<defs>
			<polygon id="SVGID_00000146475068968050665430000005750952149666384039_" points="93.7,116.2 105.4,221.9 177.5,213.9 
				166.1,108.2 			"/>
		</defs>
		<clipPath id="SVGID_00000124855741673583825140000003949586526935268736_">
			<use xlink:href="#SVGID_00000146475068968050665430000005750952149666384039_"  style="overflow:visible;"/>
		</clipPath>
		
			<linearGradient id="SVGID_00000048481915546669642410000006786421211745864877_" gradientUnits="userSpaceOnUse" x1="-1355.66" y1="1655.0366" x2="-1355.5857" y2="1655.0366" gradientTransform="matrix(1826.1708 2049.7114 2049.7114 -1826.1708 -916599.25 5801195.5)">
			<stop  offset="0" style="stop-color:#FFFFFF"/>
			<stop  offset="1" style="stop-color:#D3EDF5"/>
		</linearGradient>
		
			<polygon style="clip-path:url(#SVGID_00000124855741673583825140000003949586526935268736_);fill:url(#SVGID_00000048481915546669642410000006786421211745864877_);" points="
			140.5,66.6 234,171.6 130.8,263.5 37.3,158.5 		"/>
	</g>
	<g>
		<defs>
			<rect id="SVGID_00000013166264073453704820000008464286632201852033_" x="26.4" y="44" width="222.9" height="222.1"/>
		</defs>
		<clipPath id="SVGID_00000093868682000938019840000008293217974089062034_">
			<use xlink:href="#SVGID_00000013166264073453704820000008464286632201852033_"  style="overflow:visible;"/>
		</clipPath>
		
			<rect x="106.6" y="140.2" transform="matrix(0.9939 -0.1102 0.1102 0.9939 -14.6857 15.6733)" style="clip-path:url(#SVGID_00000093868682000938019840000008293217974089062034_);fill:#4A4FA0;" width="55.8" height="1.1"/>
		
			<rect x="113.4" y="130.9" transform="matrix(0.9939 -0.1102 0.1102 0.9939 -13.6793 15.3786)" style="clip-path:url(#SVGID_00000093868682000938019840000008293217974089062034_);fill:#4A4FA0;" width="37.8" height="1.1"/>
		
			<rect x="107" y="143.9" transform="matrix(0.9939 -0.1102 0.1102 0.9939 -15.0837 15.7704)" style="clip-path:url(#SVGID_00000093868682000938019840000008293217974089062034_);fill:#4A4FA0;" width="56.4" height="1.1"/>
		
			<rect x="107.3" y="147.5" transform="matrix(0.9939 -0.1102 0.1102 0.9939 -15.4885 15.8316)" style="clip-path:url(#SVGID_00000093868682000938019840000008293217974089062034_);fill:#4A4FA0;" width="56.5" height="1.1"/>
		
			<rect x="107.7" y="151.1" transform="matrix(0.9939 -0.1102 0.1102 0.9939 -15.8733 15.9022)" style="clip-path:url(#SVGID_00000093868682000938019840000008293217974089062034_);fill:#4A4FA0;" width="56.5" height="1.1"/>
		
			<rect x="107.8" y="156.1" transform="matrix(0.9939 -0.1102 0.1102 0.9939 -16.4785 15.0551)" style="clip-path:url(#SVGID_00000093868682000938019840000008293217974089062034_);fill:#4A4FA0;" width="40.5" height="1.1"/>
		
			<rect x="119.5" y="166" transform="matrix(0.9939 -0.1102 0.1102 0.9939 -17.5566 15.269)" style="clip-path:url(#SVGID_00000093868682000938019840000008293217974089062034_);fill:#4A4FA0;" width="19.8" height="1.1"/>
		
			<rect x="119.8" y="168.1" transform="matrix(0.9939 -0.1102 0.1102 0.9939 -17.71 16.828)" style="clip-path:url(#SVGID_00000093868682000938019840000008293217974089062034_);fill:#4A4FA0;" width="47.3" height="1.1"/>
		
			<rect x="120.1" y="171.8" transform="matrix(0.9939 -0.1102 0.1102 0.9939 -18.1138 16.8895)" style="clip-path:url(#SVGID_00000093868682000938019840000008293217974089062034_);fill:#4A4FA0;" width="47.4" height="1.1"/>
		
			<rect x="121.1" y="183.8" transform="matrix(0.9939 -0.1102 0.1102 0.9939 -19.5062 15.5548)" style="clip-path:url(#SVGID_00000093868682000938019840000008293217974089062034_);fill:#4A4FA0;" width="19.8" height="1.1"/>
		
			<rect x="121.4" y="185.9" transform="matrix(0.9939 -0.1102 0.1102 0.9939 -19.6597 17.1138)" style="clip-path:url(#SVGID_00000093868682000938019840000008293217974089062034_);fill:#4A4FA0;" width="47.3" height="1.1"/>
		
			<rect x="121.7" y="189.6" transform="matrix(0.9939 -0.1102 0.1102 0.9939 -20.0647 17.1764)" style="clip-path:url(#SVGID_00000093868682000938019840000008293217974089062034_);fill:#4A4FA0;" width="47.4" height="1.1"/>
		<path style="clip-path:url(#SVGID_00000093868682000938019840000008293217974089062034_);fill:#4A4FA0;" d="M107.9,168l0.9,8.4
			l8.9-0.9l-0.9-8.4L107.9,168z M116.6,174.6l-6.7,0.7l-0.7-6.4l6.7-0.7L116.6,174.6z"/>
	</g>
</g>
<g>
	<defs>
		<polygon id="SVGID_00000012436948632371613690000015674897087158020500_" points="111.3,190.1 109.1,188.7 108.5,189.6 
			111.6,191.6 116.3,185.3 115.4,184.6 		"/>
	</defs>
	<clipPath id="SVGID_00000088855553847836658770000001753765304592505512_">
		<use xlink:href="#SVGID_00000012436948632371613690000015674897087158020500_"  style="overflow:visible;"/>
	</clipPath>
	
		<linearGradient id="SVGID_00000133499205972573073420000005395748176404617125_" gradientUnits="userSpaceOnUse" x1="-1356.1647" y1="1656.8691" x2="-1356.1018" y2="1656.8691" gradientTransform="matrix(43.9222 167.4609 167.4609 -43.9222 -217783.7812 300061.7812)">
		<stop  offset="0" style="stop-color:#FDEC4D"/>
		<stop  offset="1" style="stop-color:#F6912C"/>
	</linearGradient>
	
		<polygon style="clip-path:url(#SVGID_00000088855553847836658770000001753765304592505512_);fill:url(#SVGID_00000133499205972573073420000005395748176404617125_);" points="
		115.8,182.7 118,191.1 109,193.5 106.8,185.1 	"/>
</g>
<g>
	<defs>
		<rect id="SVGID_00000109012433413659899740000006501975161142686098_" x="40.2" y="81.5" width="188.6" height="187.9"/>
	</defs>
	<clipPath id="SVGID_00000172409792091592949500000011255481709752481195_">
		<use xlink:href="#SVGID_00000109012433413659899740000006501975161142686098_"  style="overflow:visible;"/>
	</clipPath>
	<path style="clip-path:url(#SVGID_00000172409792091592949500000011255481709752481195_);fill:#4A4FA0;" d="M110.9,201.9l0.7,7.1
		l7.6-0.8l-0.7-7.1L110.9,201.9z M118.2,207.4l-5.7,0.6l-0.6-5.4l5.7-0.6L118.2,207.4z"/>
</g>
<g>
	<defs>
		<polygon id="SVGID_00000070840146988860444830000012061501052211898786_" points="113,205.4 110.8,204 110.2,205 113.3,206.9 
			117.9,200.6 117,200 		"/>
	</defs>
	<clipPath id="SVGID_00000115494164555728437390000002281986892021073301_">
		<use xlink:href="#SVGID_00000070840146988860444830000012061501052211898786_"  style="overflow:visible;"/>
	</clipPath>
	
		<linearGradient id="SVGID_00000134934872505284717940000013360348625676575423_" gradientUnits="userSpaceOnUse" x1="-1357.481" y1="1657.0642" x2="-1357.4181" y2="1657.0642" gradientTransform="matrix(43.9222 167.4609 167.4609 -43.9222 -217756.9375 300306.1562)">
		<stop  offset="0" style="stop-color:#FDEC4D"/>
		<stop  offset="1" style="stop-color:#F6912C"/>
	</linearGradient>
	
		<polygon style="clip-path:url(#SVGID_00000115494164555728437390000002281986892021073301_);fill:url(#SVGID_00000134934872505284717940000013360348625676575423_);" points="
		117.4,198.1 119.7,206.5 110.7,208.8 108.5,200.4 	"/>
</g>
</svg>
