<?xml version="1.0" encoding="utf-8"?>
<!-- Generator: Adobe Illustrator 27.2.0, SVG Export Plug-In . SVG Version: 6.00 Build 0)  -->
<svg version="1.1" id="Layer_1" xmlns="http://www.w3.org/2000/svg" xmlns:xlink="http://www.w3.org/1999/xlink" x="0px" y="0px"
	 viewBox="0 0 287 318" style="enable-background:new 0 0 287 318;" xml:space="preserve">
<style type="text/css">
	.st0{fill:#FFFFFF;}
	.st1{fill:none;stroke:#DADADA;}
	.st2{fill:none;}
	.st3{fill:#F16724;}
	.st4{fill:url(#SVGID_1_);}
	.st5{fill:#284A62;}
	.st6{fill:#D74027;}
	.st7{fill:#D4EAF8;}
	.st8{fill:#A6D9E6;}
	.st9{fill:#FCB614;}
</style>
<g>
	<path class="st0" d="M22,6h245c6.6,0,12,5.4,12,12v276c0,6.6-5.4,12-12,12H22c-6.6,0-12-5.4-12-12V18C10,11.4,15.4,6,22,6z"/>
	<path class="st1" d="M22,6.5h245c6.4,0,11.5,5.1,11.5,11.5v276c0,6.4-5.1,11.5-11.5,11.5H22c-6.4,0-11.5-5.1-11.5-11.5V18
		C10.5,11.6,15.6,6.5,22,6.5z"/>
</g>
<rect x="173.1" y="193.4" class="st2" width="69.8" height="69.8"/>
<g>
	<path class="st3" d="M245,149.5c0,5.4-0.4,10.7-1.3,15.9c-7.5,45.2-46.8,79.6-94.1,79.6c-2.1,0-4.2-0.1-6.2-0.2
		c-49.8-3.2-89.3-44.6-89.3-95.3c0-52.7,42.7-95.5,95.5-95.5C202.3,54,245,96.7,245,149.5z"/>
	<linearGradient id="SVGID_1_" gradientUnits="userSpaceOnUse" x1="125.3077" y1="135.0048" x2="210.2735" y2="223.4825">
		<stop  offset="0" style="stop-color:#BB5827"/>
		<stop  offset="1" style="stop-color:#FFFFFF"/>
	</linearGradient>
	<path class="st4" d="M243.7,165.3c-7.5,45.2-46.8,79.6-94.1,79.6c-2.1,0-4.2-0.1-6.2-0.2l-52.7-52.8l16.5-1.9l-7.7-6.2l9.6-33.3
		l90.8-28.7L243.7,165.3z"/>
	<g>
		<g>
			<path class="st5" d="M200.8,181.7c0,1.6-1.3,2.8-2.8,2.8h-96.8c-1.6,0-2.8-1.3-2.8-2.8v-58c0-1.6,1.3-2.8,2.8-2.8h96.8
				c1.6,0,2.8,1.3,2.8,2.8V181.7z"/>
		</g>
		<g>
			<rect x="104.9" y="125.3" class="st0" width="89.2" height="54.7"/>
		</g>
		<g>
			<path class="st5" d="M208.1,192.5c-1.5,2-4.5,1.9-6.1,1.9H97.1c-1.6,0-3.7,0.3-6.1-1.9l-3.3-3.9c-0.8-0.9-0.8-1.9,2.8-1.9h118
				c3.6,0,3.6,1.1,2.8,1.9L208.1,192.5z"/>
		</g>
		<g>
			<polygon class="st6" points="175.4,170.7 122.7,170.7 122.7,156.3 149.3,149.1 175.4,156.3 			"/>
		</g>
		<g>
			<g>
				<rect x="128" y="104.4" class="st7" width="43.1" height="66.3"/>
			</g>
			<g>
				<g>
					<rect x="130.7" y="126" class="st8" width="3.8" height="3.8"/>
				</g>
				<g>
					<rect x="130.7" y="130.8" class="st8" width="3.8" height="3.8"/>
				</g>
				<g>
					<rect x="130.7" y="135.6" class="st8" width="3.8" height="3.8"/>
				</g>
			</g>
			<g>
				<g>
					<rect x="130.7" y="147.8" class="st8" width="3.8" height="3.8"/>
				</g>
				<g>
					<rect x="130.7" y="152.6" class="st8" width="3.8" height="3.8"/>
				</g>
				<g>
					<rect x="130.7" y="157.4" class="st8" width="3.8" height="3.8"/>
				</g>
			</g>
			<g>
				<rect x="136.6" y="118.3" class="st8" width="30.1" height="3.8"/>
			</g>
			<g>
				<rect x="136.6" y="142.1" class="st8" width="30.1" height="3.8"/>
			</g>
			<g>
				<rect x="136.6" y="127.5" class="st8" width="30.1" height="1.1"/>
			</g>
			<g>
				<rect x="136.6" y="132.2" class="st8" width="30.1" height="1.1"/>
			</g>
			<g>
				<rect x="136.6" y="136.9" class="st8" width="30.1" height="1.1"/>
			</g>
			<g>
				<rect x="136.6" y="158.2" class="st8" width="30.1" height="1.1"/>
			</g>
			<g>
				<rect x="136.6" y="149.6" class="st8" width="30.1" height="1.1"/>
			</g>
			<g>
				<rect x="136.6" y="153.9" class="st8" width="30.1" height="1.1"/>
			</g>
		</g>
		<g>
			<polygon class="st9" points="175.4,178.9 122.7,178.9 122.7,159 149.1,168.9 175.4,159 			"/>
		</g>
	</g>
</g>
</svg>
