<?xml version="1.0" encoding="utf-8"?>
<!-- Generator: Adobe Illustrator 27.2.0, SVG Export Plug-In . SVG Version: 6.00 Build 0)  -->
<svg version="1.1" id="Layer_1" xmlns="http://www.w3.org/2000/svg" xmlns:xlink="http://www.w3.org/1999/xlink" x="0px" y="0px"
	 viewBox="0 0 287 318" style="enable-background:new 0 0 287 318;" xml:space="preserve">
<style type="text/css">
	.st0{fill:#FFFFFF;}
	.st1{fill:none;stroke:#DADADA;}
	.st2{fill:none;}
	.st3{fill:#FFCA00;}
	.st4{fill:#FFAC12;}
	.st5{fill:#EF3F0F;}
	.st6{fill:#CC2A05;}
	.st7{fill:#383838;}
	.st8{fill:#2DAAD6;}
	.st9{fill:#63C4EE;}
	.st10{fill:#4D4F4E;}
</style>
<g>
	<path class="st0" d="M22,6h245c6.6,0,12,5.4,12,12v276c0,6.6-5.4,12-12,12H22c-6.6,0-12-5.4-12-12V18C10,11.4,15.4,6,22,6z"/>
	<path class="st1" d="M22,6.5h245c6.4,0,11.5,5.1,11.5,11.5v276c0,6.4-5.1,11.5-11.5,11.5H22c-6.4,0-11.5-5.1-11.5-11.5V18
		C10.5,11.6,15.6,6.5,22,6.5z"/>
</g>
<rect x="173.1" y="193.4" class="st2" width="69.8" height="69.8"/>
<g>
	<g>
		<g>
			<path class="st3" d="M186.9,176.4H73.3V71.5c0-6.9,5.6-12.5,12.5-12.5h88.7c6.9,0,12.5,5.6,12.5,12.5V176.4z"/>
		</g>
		<g>
			<rect x="73.3" y="117.6" class="st4" width="36.8" height="29.9"/>
		</g>
		<g>
			<rect x="110.3" y="87.7" class="st4" width="39.5" height="29.9"/>
		</g>
		<g>
			<rect x="110.3" y="147.5" class="st4" width="39.5" height="28.9"/>
		</g>
		<g>
			<rect x="149.5" y="117.6" class="st4" width="37.4" height="29.9"/>
		</g>
		<g>
			<path class="st5" d="M174.4,59.1H85.7c-6.9,0-12.5,5.6-12.5,12.5v15.8h113.6V71.5C186.9,64.6,181.3,59.1,174.4,59.1z"/>
		</g>
		<g>
			<path class="st6" d="M174.4,59.1h-44.4v28.2h56.8V71.5C186.9,64.6,181.3,59.1,174.4,59.1z"/>
		</g>
		<g>
			<path class="st7" d="M90.1,69.9c-1.2,0-2.1-1-2.1-2.1V51.1c0-1.2,1-2.1,2.1-2.1c1.2,0,2.1,1,2.1,2.1v16.7
				C92.3,69,91.3,69.9,90.1,69.9z"/>
		</g>
		<g>
			<path class="st7" d="M103.2,69.9c-1.2,0-2.1-1-2.1-2.1V51.1c0-1.2,1-2.1,2.1-2.1s2.1,1,2.1,2.1v16.7
				C105.3,69,104.3,69.9,103.2,69.9z"/>
		</g>
		<g>
			<path class="st7" d="M116.2,69.9c-1.2,0-2.1-1-2.1-2.1V51.1c0-1.2,1-2.1,2.1-2.1c1.2,0,2.1,1,2.1,2.1v16.7
				C118.3,69,117.4,69.9,116.2,69.9z"/>
		</g>
		<g>
			<path class="st7" d="M129.2,69.9c-1.2,0-2.1-1-2.1-2.1V51.1c0-1.2,1-2.1,2.1-2.1c1.2,0,2.1,1,2.1,2.1v16.7
				C131.3,69,130.4,69.9,129.2,69.9z"/>
		</g>
		<g>
			<path class="st7" d="M142.2,69.9c-1.2,0-2.1-1-2.1-2.1V51.1c0-1.2,1-2.1,2.1-2.1s2.1,1,2.1,2.1v16.7
				C144.3,69,143.4,69.9,142.2,69.9z"/>
		</g>
		<g>
			<path class="st7" d="M155.2,69.9c-1.2,0-2.1-1-2.1-2.1V51.1c0-1.2,1-2.1,2.1-2.1s2.1,1,2.1,2.1v16.7
				C157.4,69,156.4,69.9,155.2,69.9z"/>
		</g>
		<g>
			<path class="st7" d="M168.2,69.9c-1.2,0-2.1-1-2.1-2.1V51.1c0-1.2,1-2.1,2.1-2.1c1.2,0,2.1,1,2.1,2.1v16.7
				C170.4,69,169.4,69.9,168.2,69.9z"/>
		</g>
	</g>
	<g>
		<g>
			<polygon class="st8" points="124.4,157.4 126.7,152 121,152.5 123.4,147.1 117.6,147.6 120,142.2 114.3,142.7 116.6,137.3 
				116,137.3 116.4,137.1 110.7,137.6 113.1,132.2 107.4,132.7 109.7,127.3 104,127.8 106.4,122.4 100.6,122.8 103,117.4 
				102.4,117.5 71.5,138.7 85.1,158.6 98.7,178.4 130,156.9 			"/>
		</g>
		<g>
			
				<rect x="32.5" y="143.5" transform="matrix(0.5656 0.8247 -0.8247 0.5656 171.4726 30.7202)" class="st7" width="48.1" height="69.2"/>
		</g>
		<g>
			<path class="st7" d="M83.9,144.9c-0.2,0-0.5-0.1-0.6-0.3c-0.2-0.3-0.1-0.8,0.2-1l8.3-5.7c0.3-0.2,0.8-0.1,1,0.2
				c0.2,0.3,0.1,0.8-0.2,1l-8.3,5.7C84.2,144.9,84.1,144.9,83.9,144.9z"/>
		</g>
		<g>
			<path class="st7" d="M86.9,149.2c-0.2,0-0.5-0.1-0.6-0.3c-0.2-0.3-0.1-0.8,0.2-1l14.6-10c0.3-0.2,0.8-0.1,1,0.2
				c0.2,0.3,0.1,0.8-0.2,1l-14.6,10C87.1,149.2,87,149.2,86.9,149.2z"/>
		</g>
		<g>
			<path class="st7" d="M89.8,153.5c-0.2,0-0.5-0.1-0.6-0.3c-0.2-0.3-0.1-0.8,0.2-1l14.6-10c0.3-0.2,0.8-0.1,1,0.2
				c0.2,0.3,0.1,0.8-0.2,1l-14.6,10C90.1,153.4,89.9,153.5,89.8,153.5z"/>
		</g>
		<g>
			<path class="st7" d="M92.7,157.8c-0.2,0-0.5-0.1-0.6-0.3c-0.2-0.3-0.1-0.8,0.2-1l14.6-10c0.3-0.2,0.8-0.1,1,0.2
				c0.2,0.3,0.1,0.8-0.2,1l-14.6,10C93,157.7,92.9,157.8,92.7,157.8z"/>
		</g>
		<g>
			<path class="st7" d="M95.7,162c-0.2,0-0.5-0.1-0.6-0.3c-0.2-0.3-0.1-0.8,0.2-1l14.6-10c0.3-0.2,0.8-0.1,1,0.2
				c0.2,0.3,0.1,0.8-0.2,1l-14.6,10C95.9,162,95.8,162,95.7,162z"/>
		</g>
		<g>
			<path class="st7" d="M98.6,166.3c-0.2,0-0.5-0.1-0.6-0.3c-0.2-0.3-0.1-0.8,0.2-1l14.6-10c0.3-0.2,0.8-0.1,1,0.2
				c0.2,0.3,0.1,0.8-0.2,1l-14.6,10C98.9,166.3,98.7,166.3,98.6,166.3z"/>
		</g>
		<g>
			<path class="st0" d="M55.7,164.3c-0.2,0-0.5-0.1-0.6-0.3c-0.2-0.3-0.1-0.8,0.2-1l10.1-6.9c0.3-0.2,0.8-0.1,1,0.2
				c0.2,0.3,0.1,0.8-0.2,1l-10.1,6.9C56,164.2,55.8,164.3,55.7,164.3z"/>
		</g>
		<g>
			<path class="st0" d="M58.6,168.6c-0.2,0-0.5-0.1-0.6-0.3c-0.2-0.3-0.1-0.8,0.2-1L76,155.1c0.3-0.2,0.8-0.1,1,0.2
				c0.2,0.3,0.1,0.8-0.2,1L59,168.4C58.9,168.5,58.8,168.6,58.6,168.6z"/>
		</g>
		<g>
			<path class="st0" d="M61.3,172.5c-0.2,0-0.5-0.1-0.6-0.3c-0.2-0.3-0.1-0.8,0.2-1l10.1-6.9c0.3-0.2,0.8-0.1,1,0.2
				c0.2,0.3,0.1,0.8-0.2,1l-10.1,6.9C61.6,172.4,61.4,172.5,61.3,172.5z"/>
		</g>
		<g>
			<path class="st0" d="M64.2,176.7c-0.2,0-0.5-0.1-0.6-0.3c-0.2-0.3-0.1-0.8,0.2-1l17.8-12.2c0.3-0.2,0.8-0.1,1,0.2
				c0.2,0.3,0.1,0.8-0.2,1l-17.8,12.2C64.5,176.7,64.4,176.7,64.2,176.7z"/>
		</g>
		<g>
			<g>
				<path class="st9" d="M44.7,171.6c4.7,0,9.3,2.2,12.1,6.4c4.6,6.7,2.9,15.8-3.8,20.4c-2.5,1.7-5.4,2.6-8.3,2.6
					c-4.7,0-9.3-2.2-12.1-6.4c-4.6-6.7-2.9-15.8,3.8-20.4C39,172.4,41.9,171.6,44.7,171.6L44.7,171.6z M44.7,170.1v1.4V170.1
					L44.7,170.1c-3.3,0-6.4,1-9.1,2.8c-7.3,5-9.2,15.1-4.2,22.4c3,4.4,8,7,13.3,7c3.3,0,6.4-1,9.1-2.8c3.5-2.4,5.9-6.1,6.7-10.3
					c0.8-4.2-0.1-8.5-2.6-12.1C55,172.7,50.1,170.1,44.7,170.1L44.7,170.1z"/>
			</g>
			<g>
				
					<rect x="44" y="170.6" transform="matrix(0.8247 -0.5656 0.5656 0.8247 -97.4832 57.9592)" class="st9" width="1.4" height="31.2"/>
			</g>
			<g>
				
					<rect x="29.2" y="185.5" transform="matrix(0.8247 -0.5655 0.5655 0.8247 -97.4772 57.9525)" class="st9" width="31.2" height="1.4"/>
			</g>
			<g>
				<path class="st9" d="M51.3,201c-11.2-3.1-15.6-10.1-17.2-15.4c-1.8-5.8-0.9-10.7-0.9-10.9l1.4,0.3c0,0-0.9,4.9,0.8,10.3
					c2.2,7.2,7.7,12.1,16.2,14.4L51.3,201z"/>
			</g>
			<g>
				<path class="st9" d="M56.4,197.5l-1.4-0.1c0.9-8.8-1.7-15.6-7.7-20.3c-4.5-3.5-9.2-4.4-9.3-4.5l0.3-1.4c0.2,0,5.2,1,9.9,4.7
					C52.6,179.4,57.5,185.9,56.4,197.5z"/>
			</g>
			<g>
				<path class="st9" d="M29.3,184.9l-0.1-1.4c0.1,0,13.1-1.3,18.6-12.8l1.3,0.6C43.2,183.5,29.5,184.9,29.3,184.9z"/>
			</g>
			<g>
				<path class="st9" d="M41.8,201.9l-1.3-0.6c5.9-12.2,19.6-13.5,19.8-13.6l0.1,1.4C60.3,189.1,47.3,190.4,41.8,201.9z"/>
			</g>
		</g>
	</g>
	<g>
		<g>
			<polygon class="st9" points="151.3,188.2 154.6,183.4 148.9,182.8 152.2,177.9 146.5,177.4 149.8,172.5 144.1,171.9 147.4,167 
				146.8,167 147.2,166.8 141.5,166.2 144.8,161.4 139.1,160.8 142.4,155.9 136.7,155.4 140,150.5 134.3,149.9 137.6,145.1 137,145 
				102.7,160.2 112.5,182.2 122.3,204.2 157,188.8 			"/>
		</g>
		<g>
			
				<rect x="56.8" y="161.7" transform="matrix(0.4068 0.9135 -0.9135 0.4068 227.3253 42.536)" class="st10" width="48.1" height="69.2"/>
		</g>
		<g>
			<path class="st7" d="M113.9,168.6c-0.3,0-0.5-0.2-0.7-0.4c-0.2-0.4,0-0.8,0.4-0.9l9.2-4.1c0.4-0.2,0.8,0,0.9,0.4
				c0.2,0.4,0,0.8-0.4,0.9l-9.2,4.1C114.1,168.6,114,168.6,113.9,168.6z"/>
		</g>
		<g>
			<path class="st7" d="M116.1,173.4c-0.3,0-0.5-0.2-0.7-0.4c-0.2-0.4,0-0.8,0.4-0.9l16.2-7.2c0.4-0.2,0.8,0,0.9,0.4
				c0.2,0.4,0,0.8-0.4,0.9l-16.2,7.2C116.3,173.3,116.2,173.4,116.1,173.4z"/>
		</g>
		<g>
			<path class="st7" d="M118.2,178.1c-0.3,0-0.5-0.2-0.7-0.4c-0.2-0.4,0-0.8,0.4-0.9l16.2-7.2c0.4-0.2,0.8,0,0.9,0.4
				c0.2,0.4,0,0.8-0.4,0.9l-16.2,7.2C118.4,178.1,118.3,178.1,118.2,178.1z"/>
		</g>
		<g>
			<path class="st7" d="M120.3,182.8c-0.3,0-0.5-0.2-0.7-0.4c-0.2-0.4,0-0.8,0.4-0.9l16.2-7.2c0.4-0.2,0.8,0,0.9,0.4
				c0.2,0.4,0,0.8-0.4,0.9l-16.2,7.2C120.5,182.8,120.4,182.8,120.3,182.8z"/>
		</g>
		<g>
			<path class="st7" d="M122.4,187.6c-0.3,0-0.5-0.2-0.7-0.4c-0.2-0.4,0-0.8,0.4-0.9l16.2-7.2c0.4-0.2,0.8,0,0.9,0.4
				c0.2,0.4,0,0.8-0.4,0.9l-16.2,7.2C122.6,187.6,122.5,187.6,122.4,187.6z"/>
		</g>
		<g>
			<path class="st7" d="M124.5,192.3c-0.3,0-0.5-0.2-0.7-0.4c-0.2-0.4,0-0.8,0.4-0.9l16.2-7.2c0.4-0.2,0.8,0,0.9,0.4
				c0.2,0.4,0,0.8-0.4,0.9l-16.2,7.2C124.7,192.3,124.6,192.3,124.5,192.3z"/>
		</g>
		<g>
			<path class="st0" d="M82.7,182.6c-0.3,0-0.5-0.2-0.7-0.4c-0.2-0.4,0-0.8,0.4-0.9l11.1-5c0.4-0.2,0.8,0,0.9,0.4
				c0.2,0.4,0,0.8-0.4,0.9l-11.1,5C82.9,182.5,82.8,182.6,82.7,182.6z"/>
		</g>
		<g>
			<path class="st0" d="M84.8,187.3c-0.3,0-0.5-0.2-0.7-0.4c-0.2-0.4,0-0.8,0.4-0.9l19.7-8.8c0.4-0.2,0.8,0,0.9,0.4
				c0.2,0.4,0,0.8-0.4,0.9l-19.7,8.8C85,187.3,84.9,187.3,84.8,187.3z"/>
		</g>
		<g>
			<path class="st0" d="M86.7,191.6c-0.3,0-0.5-0.2-0.7-0.4c-0.2-0.4,0-0.8,0.4-0.9l11.1-5c0.4-0.2,0.8,0,0.9,0.4
				c0.2,0.4,0,0.8-0.4,0.9l-11.1,5C86.9,191.6,86.8,191.6,86.7,191.6z"/>
		</g>
		<g>
			<path class="st0" d="M88.8,196.3c-0.3,0-0.5-0.2-0.7-0.4c-0.2-0.4,0-0.8,0.4-0.9l19.7-8.8c0.4-0.2,0.8,0,0.9,0.4
				c0.2,0.4,0,0.8-0.4,0.9l-19.7,8.8C89,196.3,88.9,196.3,88.8,196.3z"/>
		</g>
		<g>
			<g>
				<path class="st9" d="M67.8,187.5c5.6,0,11,3.2,13.4,8.7c3.3,7.4,0,16.1-7.4,19.4c-1.9,0.9-4,1.3-6,1.3c-5.6,0-11-3.2-13.4-8.7
					c-3.3-7.4,0-16.1,7.4-19.4C63.8,187.9,65.8,187.5,67.8,187.5L67.8,187.5z M67.8,186v1.4V186c-2.3,0-4.5,0.5-6.5,1.4
					c-8.1,3.6-11.8,13.2-8.2,21.3c2.6,5.8,8.4,9.6,14.7,9.6c2.3,0,4.5-0.5,6.5-1.4c3.9-1.8,6.9-4.9,8.5-8.9c1.5-4,1.4-8.4-0.3-12.3
					C79.9,189.8,74.2,186,67.8,186L67.8,186z"/>
			</g>
			<g>
				
					<rect x="67.1" y="186.6" transform="matrix(0.9135 -0.4068 0.4068 0.9135 -76.3719 45.0723)" class="st9" width="1.4" height="31.2"/>
			</g>
			<g>
				
					<rect x="52.2" y="201.4" transform="matrix(0.9136 -0.4067 0.4067 0.9136 -76.3491 45.0513)" class="st9" width="31.2" height="1.4"/>
			</g>
			<g>
				<path class="st9" d="M71.5,217.9c-10.5-5.1-13.5-12.8-14.1-18.3c-0.7-6,1.1-10.7,1.1-10.9l1.3,0.5l-0.7-0.3l0.7,0.3
					c0,0-1.7,4.6-1.1,10.3c0.9,7.5,5.4,13.3,13.3,17.1L71.5,217.9z"/>
			</g>
			<g>
				<path class="st9" d="M77.2,215.3l-1.4-0.4c2.5-8.5,1.2-15.7-3.9-21.4c-3.8-4.3-8.3-6-8.3-6.1l0.5-1.3c0.2,0.1,4.9,1.9,8.9,6.5
					C76.7,196.8,80.4,204.1,77.2,215.3z"/>
			</g>
			<g>
				<path class="st9" d="M54.1,198.1c-0.8,0-1.2,0-1.2,0l0.1-1.4c0.1,0,13.1,1.1,20.6-9.2l1.2,0.8C68.2,197.3,57.7,198.1,54.1,198.1
					z"/>
			</g>
			<g>
				<path class="st9" d="M62.1,217l-1.2-0.8c8-10.9,21.8-9.8,21.9-9.8l-0.1,1.4C82.6,207.8,69.6,206.7,62.1,217z"/>
			</g>
		</g>
	</g>
	<g>
		<g>
			<polygon class="st10" points="161.3,213.8 132.1,212.8 154,228.2 			"/>
		</g>
		<g>
			<polygon class="st7" points="175.1,225.2 181.4,253.8 162.3,235 			"/>
		</g>
		<g>
			<path class="st10" d="M209.9,140.6l-76.1-12.6c-4.3-0.7-6.4,5-2.7,7.3l59.2,36.6L209.9,140.6z"/>
		</g>
		<g>
			<path class="st7" d="M238.4,164.3l26.2,72.6c1.5,4.1-3.7,7.2-6.6,4l-46.7-51.5L238.4,164.3z"/>
		</g>
		<g>
			<path class="st5" d="M250.9,137.4l-3.9,19.4c-0.6,2.9-2.2,5.6-4.6,7.4L166.4,233c-2.7,2.5-6.9,2.6-9.7,0.2
				c-2.8-2.4-3.5-6.5-1.5-9.6l53.8-87.3c1.4-2.7,3.7-4.7,6.5-5.8l18.4-7.3c4.8-1.9,9.8-0.7,13.1,2.3
				C250.1,128.3,251.9,132.7,250.9,137.4z"/>
		</g>
		<g>
			<path class="st6" d="M250.9,137.4l-3.9,19.4c-0.6,2.9-2.2,5.6-4.6,7.4L166.4,233c-2.7,2.5-6.9,2.6-9.7,0.2l90.3-107.8
				C250.1,128.3,251.9,132.7,250.9,137.4z"/>
		</g>
	</g>
</g>
</svg>
