<?xml version="1.0" encoding="utf-8"?>
<!-- Generator: Adobe Illustrator 27.2.0, SVG Export Plug-In . SVG Version: 6.00 Build 0)  -->
<svg version="1.1" id="Layer_1" xmlns="http://www.w3.org/2000/svg" xmlns:xlink="http://www.w3.org/1999/xlink" x="0px" y="0px"
	 viewBox="0 0 287 318" style="enable-background:new 0 0 287 318;" xml:space="preserve">
<style type="text/css">
	.st0{fill:#FFFFFF;}
	.st1{fill:none;stroke:#DADADA;}
	.st2{fill:#474747;}
	.st3{fill:#D92E4D;}
	.st4{fill:#FF3B5E;}
	.st5{fill:#2B2B2B;}
	.st6{fill:#1DA7DE;}
	.st7{fill:#33C5FF;}
	.st8{fill:#D1E4EB;}
	.st9{fill:#B6CCD4;}
</style>
<g>
	<path class="st0" d="M22,6h245c6.6,0,12,5.4,12,12v276c0,6.6-5.4,12-12,12H22c-6.6,0-12-5.4-12-12V18C10,11.4,15.4,6,22,6z"/>
	<path class="st1" d="M22,6.5h245c6.4,0,11.5,5.1,11.5,11.5v276c0,6.4-5.1,11.5-11.5,11.5H22c-6.4,0-11.5-5.1-11.5-11.5V18
		C10.5,11.6,15.6,6.5,22,6.5z"/>
</g>
<g>
	<g>
		<path class="st2" d="M95.2,91.8c0-3.2,2.6-5.7,5.7-5.7h24.5V68.9h-24.5C88.3,68.9,78,79.1,78,91.8v6.5h17.2V91.8z"/>
		<path class="st3" d="M201.9,99.6h-26.6v-1.3h-17.2v1.3h-32.7H95.2v-1.3H78v1.3H51.4C44,99.6,38,105.1,38,112v86.8
			c0,6.8,6,12.4,13.4,12.4h74h76.5c7.4,0,13.5-5.6,13.5-12.4V112C215.3,105.1,209.3,99.6,201.9,99.6z"/>
		<path class="st4" d="M95.2,99.6v-1.3H78v1.3H51.4C44,99.6,38,105.1,38,112v86.8c0,6.8,6,12.4,13.4,12.4h74V99.6H95.2z"/>
		<path class="st3" d="M201.9,99.6h-26.6v-1.3h-17.2v1.3h-32.7v111.6h76.5c7.4,0,13.5-5.6,13.5-12.4V112
			C215.3,105.1,209.3,99.6,201.9,99.6z"/>
		<path class="st5" d="M152.4,86c3.2,0,5.7,2.6,5.7,5.7v6.5h17.2v-6.5c0-12.6-10.3-22.9-22.9-22.9h-27V86H152.4z"/>
	</g>
	<path class="st0" d="M165.1,155.3c0,21.3-17.2,38.5-38.5,38.5c-21.2,0-38.5-17.2-38.5-38.5c0-21.3,17.2-38.5,38.5-38.5
		C147.9,116.9,165.1,134.1,165.1,155.3z"/>
	<g>
		<rect x="122.2" y="126.9" class="st5" width="8.9" height="56.9"/>
		<rect x="98.2" y="150.9" class="st5" width="56.9" height="8.9"/>
	</g>
</g>
<g>
	<g>
		<path class="st3" d="M222.1,188.4V216c0,6.6,5.4,11.9,11.9,11.9c6.6,0,11.9-5.3,11.9-11.9v-27.5
			C237.4,186.7,228.6,187.4,222.1,188.4z"/>
		<path class="st0" d="M234.1,151.5c-6.6,0-11.9,5.4-11.9,11.9v26.1c6.4-1,15.2-1.7,23.9,0.1v-26.2
			C246,156.8,240.6,151.5,234.1,151.5z"/>
		<path class="st4" d="M234.1,150.4c-6.6,0-11.9,5.3-11.9,11.9v26.1c6.4-1,15.2-1.7,23.9,0.1v-26.2
			C246,155.7,240.6,150.4,234.1,150.4z"/>
	</g>
	<g>
		<path class="st6" d="M186.8,187.3l12.9-24.3c3.1-5.8,10.3-8,16.1-5c5.8,3.1,8,10.3,5,16.1l-12.9,24.3
			C199.4,195.9,191.9,191.2,186.8,187.3z"/>
		<path class="st0" d="M180,225.5c-5.8-3.1-8-10.3-5-16.1l12.2-23.1c5.2,3.9,12.6,8.6,21.1,11.1l-12.3,23.1
			C193.1,226.4,185.8,228.6,180,225.5z"/>
		<path class="st7" d="M179.5,226.5c-5.8-3.1-8-10.3-5-16.1l12.2-23.1c5.2,3.9,12.6,8.6,21.1,11.1l-12.3,23.1
			C192.5,227.4,185.3,229.6,179.5,226.5z"/>
	</g>
	<path class="st0" d="M202,223.6c-8.7-6.8-10.2-19.4-3.4-28.1c6.8-8.7,19.4-10.2,28-3.4c8.7,6.8,10.2,19.4,3.4,28.1
		C223.3,228.9,210.7,230.4,202,223.6z"/>
	<g>
		<path class="st8" d="M199.9,196.5c-6.1,7.8-5,19,2.5,25.4l22.7-29C217.1,187.2,206,188.7,199.9,196.5z"/>
		<path class="st9" d="M226.5,194l-22.7,29c8,5.6,19,4.1,25.1-3.7C235,211.5,233.8,200.4,226.5,194z"/>
	</g>
</g>
</svg>
