<?xml version="1.0" encoding="utf-8"?>
<!-- Generator: Adobe Illustrator 27.2.0, SVG Export Plug-In . SVG Version: 6.00 Build 0)  -->
<svg version="1.1" id="Layer_1" xmlns="http://www.w3.org/2000/svg" xmlns:xlink="http://www.w3.org/1999/xlink" x="0px" y="0px"
	 viewBox="0 0 287 318" style="enable-background:new 0 0 287 318;" xml:space="preserve">
<style type="text/css">
	.st0{fill:#FFFFFF;}
	.st1{fill:none;stroke:#DADADA;}
	.st2{fill:none;}
	.st3{fill:#FE9C28;}
	.st4{fill:#FEBD00;}
	.st5{fill:#FFD734;}
</style>
<g>
	<path class="st0" d="M22,6h245c6.6,0,12,5.4,12,12v276c0,6.6-5.4,12-12,12H22c-6.6,0-12-5.4-12-12V18C10,11.4,15.4,6,22,6z"/>
	<path class="st1" d="M22,6.5h245c6.4,0,11.5,5.1,11.5,11.5v276c0,6.4-5.1,11.5-11.5,11.5H22c-6.4,0-11.5-5.1-11.5-11.5V18
		C10.5,11.6,15.6,6.5,22,6.5z"/>
</g>
<rect x="173.1" y="193.4" class="st2" width="69.8" height="69.8"/>
<g>
	<path class="st3" d="M233.7,109.5c-1.1-1-2.7-1.7-4.4-1.7H65.6c-1.7,0-3.2,0.6-4.4,1.7c-1.3,1.2-2.2,2.9-2.2,4.9v98.2
		c0,1.9,0.9,3.7,2.2,4.9c1.1,1,2.7,1.7,4.4,1.7h163.7c1.7,0,3.2-0.6,4.4-1.7c1.3-1.2,2.2-2.9,2.2-4.8v-98.2
		C235.9,112.4,235.1,110.7,233.7,109.5z"/>
	<path class="st4" d="M132.1,163.5l-70.9,54c-1.3-1.2-2.2-2.9-2.2-4.9v-98.2c0-1.9,0.9-3.7,2.2-4.9L132.1,163.5z"/>
	<path class="st4" d="M235.9,114.4v98.2c0,1.9-0.8,3.6-2.2,4.8l-70.9-54l70.9-54C235.1,110.7,235.9,112.4,235.9,114.4z"/>
	<path class="st5" d="M233.7,109.5l-70.9,54l-10.9,8.3c-2.7,2.1-6.3,2.1-9,0l-10.9-8.3l-70.9-54c1.1-1,2.7-1.7,4.4-1.7h163.7
		C231,107.8,232.6,108.4,233.7,109.5z"/>
</g>
</svg>
